<svg width="48" height="48" viewBox="0 0 48 48" fill="none" xmlns="http://www.w3.org/2000/svg">
<rect width="48" height="48" rx="10" fill="#3B97FB"/>
<path fill-rule="evenodd" clip-rule="evenodd" d="M18.7321 14C17.7755 14.5523 17.4477 15.7754 18 16.732L27 32.3205C27.5523 33.2771 28.7755 33.6048 29.7321 33.0525C30.6886 32.5002 31.0164 31.2771 30.4641 30.3205L21.4641 14.732C20.9118 13.7754 19.6886 13.4477 18.7321 14ZM20.7931 16.5698L20.1651 15.482C20.027 15.2429 19.7212 15.1609 19.4821 15.299C19.2429 15.4371 19.161 15.7429 19.299 15.982L19.9593 17.1257L20.7931 16.5698ZM21.5447 17.8716L20.7109 18.4274L28.299 31.5705C28.4371 31.8096 28.7429 31.8916 28.9821 31.7535C29.2212 31.6154 29.3031 31.3096 29.1651 31.0705L21.5447 17.8716Z" fill="white"/>
<path fill-rule="evenodd" clip-rule="evenodd" d="M27.7341 14.5111C27.4819 13.8296 26.5181 13.8296 26.2659 14.5111L25.9169 15.4544C25.8376 15.6686 25.6687 15.8376 25.4544 15.9168L24.5111 16.2659C23.8296 16.5181 23.8296 17.4819 24.5111 17.7341L25.4544 18.0831C25.6687 18.1624 25.8376 18.3313 25.9169 18.5456L26.2659 19.4889C26.5181 20.1703 27.4819 20.1703 27.7341 19.4889L28.0831 18.5456C28.1624 18.3313 28.3313 18.1624 28.5456 18.0831L29.4889 17.7341C30.1704 17.4819 30.1704 16.5181 29.4889 16.2659L28.5456 15.9168C28.3313 15.8376 28.1624 15.6686 28.0831 15.4544L27.7341 14.5111ZM27 16.5643C26.8751 16.7285 26.7285 16.8751 26.5643 17C26.7285 17.1248 26.8751 17.2714 27 17.4357C27.1249 17.2714 27.2715 17.1248 27.4357 17C27.2715 16.8751 27.1249 16.7285 27 16.5643Z" fill="white"/>
<path fill-rule="evenodd" clip-rule="evenodd" d="M17.7341 19.5111C17.4819 18.8296 16.5181 18.8296 16.2659 19.5111L15.9169 20.4544C15.8376 20.6686 15.6687 20.8376 15.4544 20.9168L14.5111 21.2659C13.8296 21.5181 13.8296 22.4819 14.5111 22.7341L15.4544 23.0831C15.6687 23.1624 15.8376 23.3313 15.9169 23.5456L16.2659 24.4889C16.5181 25.1703 17.4819 25.1703 17.7341 24.4889L18.0831 23.5456C18.1624 23.3313 18.3313 23.1624 18.5456 23.0831L19.4889 22.7341C20.1704 22.4819 20.1704 21.5181 19.4889 21.2659L18.5456 20.9168C18.3313 20.8376 18.1624 20.6686 18.0831 20.4544L17.7341 19.5111ZM17 21.5643C16.8751 21.7285 16.7285 21.8751 16.5643 22C16.7285 22.1248 16.8751 22.2714 17 22.4357C17.1249 22.2714 17.2715 22.1248 17.4357 22C17.2715 21.8751 17.1249 21.7285 17 21.5643Z" fill="white"/>
<path fill-rule="evenodd" clip-rule="evenodd" d="M30.2659 21.5111C30.5181 20.8296 31.4819 20.8296 31.7341 21.5111L32.0831 22.4544C32.1624 22.6686 32.3313 22.8376 32.5456 22.9168L33.4889 23.2659C34.1704 23.5181 34.1704 24.4819 33.4889 24.7341L32.5456 25.0831C32.3313 25.1624 32.1624 25.3313 32.0831 25.5456L31.7341 26.4889C31.4819 27.1703 30.5181 27.1703 30.2659 26.4889L29.9169 25.5456C29.8376 25.3313 29.6687 25.1624 29.4544 25.0831L28.5111 24.7341C27.8296 24.4819 27.8296 23.5181 28.5111 23.2659L29.4544 22.9168C29.6687 22.8376 29.8376 22.6686 29.9169 22.4544L30.2659 21.5111ZM30.5643 24C30.7285 23.8751 30.8751 23.7285 31 23.5643C31.1249 23.7285 31.2715 23.8751 31.4357 24C31.2715 24.1248 31.1249 24.2714 31 24.4357C30.8751 24.2714 30.7285 24.1248 30.5643 24Z" fill="white"/>
</svg>
