<svg width="48" height="48" viewBox="0 0 48 48" fill="none" xmlns="http://www.w3.org/2000/svg">
<rect width="48" height="48" rx="10" fill="#FABC5C"/>
<path d="M23.25 29C23.25 29.4142 23.5858 29.75 24 29.75C24.4142 29.75 24.75 29.4142 24.75 29V21C24.75 20.5858 24.4142 20.25 24 20.25C23.5858 20.25 23.25 20.5858 23.25 21L23.25 29Z" fill="white"/>
<path d="M20 29.75C19.5858 29.75 19.25 29.4142 19.25 29L19.25 23.5C19.25 23.0858 19.5858 22.75 20 22.75C20.4142 22.75 20.75 23.0858 20.75 23.5L20.75 29C20.75 29.4142 20.4142 29.75 20 29.75Z" fill="white"/>
<path d="M27.25 29C27.25 29.4142 27.5858 29.75 28 29.75C28.4142 29.75 28.75 29.4142 28.75 29V26C28.75 25.5858 28.4142 25.25 28 25.25C27.5858 25.25 27.25 25.5858 27.25 26V29Z" fill="white"/>
<path fill-rule="evenodd" clip-rule="evenodd" d="M21 14.25C18.3766 14.25 16.25 16.3766 16.25 19V29C16.25 31.6234 18.3766 33.75 21 33.75H27C29.6234 33.75 31.75 31.6234 31.75 29V20.6569C31.75 19.3971 31.2496 18.1889 30.3588 17.2981L28.7019 15.6412C27.8111 14.7504 26.6029 14.25 25.3431 14.25H21ZM17.75 19C17.75 17.2051 19.2051 15.75 21 15.75H25.3431C26.2051 15.75 27.0317 16.0924 27.6412 16.7019L29.2981 18.3588C29.9076 18.9683 30.25 19.7949 30.25 20.6569V29C30.25 30.7949 28.7949 32.25 27 32.25H21C19.2051 32.25 17.75 30.7949 17.75 29V19Z" fill="white"/>
</svg>
