<svg width="46" height="46" viewBox="0 0 46 46" fill="none" xmlns="http://www.w3.org/2000/svg">
<rect x="1" y="1" width="44" height="44" rx="6" stroke="#0F172A"/>
<path fill-rule="evenodd" clip-rule="evenodd" d="M29.7501 16.25C29.7501 19.9779 26.728 23 23.0001 23C19.2722 23 16.2501 19.9779 16.2501 16.25C16.2501 12.5221 19.2722 9.5 23.0001 9.5C26.728 9.5 29.7501 12.5221 29.7501 16.25ZM27.5001 16.25C27.5001 18.7353 25.4854 20.75 23.0001 20.75C20.5148 20.75 18.5001 18.7353 18.5001 16.25C18.5001 13.7647 20.5148 11.75 23.0001 11.75C25.4854 11.75 27.5001 13.7647 27.5001 16.25Z" fill="#FF4400"/>
<path fill-rule="evenodd" clip-rule="evenodd" d="M33.8001 30.425C33.8001 33.7801 28.9647 36.5 23.0001 36.5C17.0354 36.5 12.2001 33.7801 12.2001 30.425C12.2001 27.0699 17.0354 24.35 23.0001 24.35C28.9647 24.35 33.8001 27.0699 33.8001 30.425ZM31.5501 30.425C31.5501 30.9287 31.1634 31.8429 29.5337 32.7596C27.9746 33.6366 25.6692 34.25 23.0001 34.25C20.331 34.25 18.0255 33.6366 16.4664 32.7596C14.8367 31.8429 14.4501 30.9287 14.4501 30.425C14.4501 29.9213 14.8367 29.007 16.4664 28.0904C18.0255 27.2133 20.331 26.6 23.0001 26.6C25.6692 26.6 27.9746 27.2133 29.5337 28.0904C31.1634 29.007 31.5501 29.9213 31.5501 30.425Z" fill="#FF4400"/>
<path d="M32.7501 16.25C32.7501 15.5892 32.5365 14.9784 32.1745 14.4827C31.8414 14.0265 31.3827 13.6679 30.8492 13.4577L30.8111 13.4423C30.7432 13.4141 30.6762 13.3823 30.6109 13.3472C30.5419 13.3102 30.4749 13.2694 30.4106 13.2252C30.0317 12.9642 29.7501 12.5818 29.7501 12.125C29.7501 11.5037 30.2597 10.9875 30.8669 11.119C32.665 11.5086 34.1199 12.8193 34.7127 14.5324C34.8989 15.0706 35.0001 15.6485 35.0001 16.25C35.0001 16.8515 34.8989 17.4294 34.7127 17.9676C34.1199 19.6807 32.665 20.9914 30.8669 21.3809C30.2597 21.5125 29.7501 20.9963 29.7501 20.375C29.7501 19.9182 30.0317 19.5358 30.4106 19.2748C30.4749 19.2305 30.5419 19.1898 30.6109 19.1527C30.6762 19.1176 30.7432 19.0859 30.8111 19.0577L30.8492 19.0422C31.3827 18.8321 31.8414 18.4735 32.1745 18.0173C32.5365 17.5216 32.7501 16.9107 32.7501 16.25Z" fill="#FF4400"/>
<path d="M35.7501 29.75C35.7501 29.8808 35.6814 30.1764 35.337 30.556C35.21 30.6959 35.0455 30.8473 34.8332 31.006C34.7943 31.0351 34.7567 31.0658 34.7207 31.0981C34.6839 31.1311 34.6487 31.1657 34.6153 31.2018C34.3921 31.4427 34.2501 31.7491 34.2501 32.081C34.2501 32.9393 35.131 33.5193 35.8448 33.0425C35.9601 32.9655 36.0715 32.8866 36.1788 32.8061L36.2219 32.7735C36.5453 32.5267 36.8302 32.2642 37.0719 31.9885C37.6672 31.3095 38.0001 30.5507 38.0001 29.75C38.0001 28.9493 37.6672 28.1905 37.0719 27.5114C36.8302 27.2358 36.5453 26.9733 36.2219 26.7265L36.1788 26.6939C36.0715 26.6134 35.9601 26.5345 35.8448 26.4575C35.131 25.9807 34.2501 26.5607 34.2501 27.419C34.2501 27.7509 34.3921 28.0573 34.6153 28.2982C34.6487 28.3343 34.6839 28.3689 34.7207 28.4019C34.7567 28.4342 34.7943 28.4649 34.8332 28.494C35.0455 28.6527 35.21 28.8041 35.337 28.944C35.6814 29.3236 35.7501 29.6192 35.7501 29.75Z" fill="#FF4400"/>
<path d="M13.25 16.2498C13.25 15.589 13.4636 14.9781 13.8256 14.4825C14.1587 14.0263 14.6174 13.6677 15.1509 13.4575L15.189 13.4421C15.2569 13.4139 15.3239 13.3821 15.3892 13.347C15.4582 13.31 15.5252 13.2692 15.5895 13.2249C15.9684 12.964 16.25 12.5816 16.25 12.1248C16.25 11.5034 15.7404 10.9872 15.1332 11.1188C13.3351 11.5083 11.8802 12.8191 11.2874 14.5322C11.1012 15.0704 11 15.6482 11 16.2498C11 16.8513 11.1012 17.4291 11.2874 17.9673C11.8802 19.6804 13.3351 20.9912 15.1332 21.3807C15.7404 21.5123 16.25 20.9961 16.25 20.3748C16.25 19.9179 15.9684 19.5355 15.5895 19.2746C15.5252 19.2303 15.4582 19.1895 15.3892 19.1525C15.3239 19.1174 15.2569 19.0856 15.189 19.0574L15.1509 19.042C14.6174 18.8319 14.1587 18.4732 13.8256 18.017C13.4636 17.5214 13.25 16.9105 13.25 16.2498Z" fill="#FF4400"/>
<path d="M10.25 29.7498C10.25 29.8805 10.3187 30.1762 10.6631 30.5557C10.7901 30.6957 10.9546 30.8471 11.1669 31.0058C11.2058 31.0349 11.2434 31.0656 11.2794 31.0979C11.3162 31.1309 11.3514 31.1655 11.3848 31.2015C11.608 31.4425 11.75 31.7488 11.75 32.0807C11.75 32.9391 10.8691 33.5191 10.1553 33.0423C10.04 32.9653 9.92855 32.8864 9.82128 32.8059L9.77824 32.7733C9.45478 32.5265 9.16986 32.264 8.92818 31.9883C8.33288 31.3093 8 30.5505 8 29.7498C8 28.9491 8.33289 28.1902 8.92821 27.5112C9.16987 27.2356 9.45479 26.9731 9.77824 26.7263L9.82128 26.6937C9.92855 26.6131 10.04 26.5343 10.1553 26.4572C10.8691 25.9805 11.75 26.5604 11.75 27.4188C11.75 27.7507 11.608 28.057 11.3848 28.298C11.3514 28.3341 11.3162 28.3687 11.2794 28.4017C11.2434 28.4339 11.2058 28.4647 11.1669 28.4938C10.9546 28.6525 10.7901 28.8038 10.6631 28.9438C10.3187 29.3234 10.25 29.619 10.25 29.7498Z" fill="#FF4400"/>
</svg>
