<svg width="96" height="96" viewBox="0 0 96 96" fill="none" xmlns="http://www.w3.org/2000/svg">
<path d="M95.9717 48.0017C95.9717 72.2447 78.0067 92.2869 54.6686 95.5392C52.4864 95.8419 50.2538 96 47.9876 96C45.3716 96 42.8028 95.7915 40.3012 95.3879C17.4506 91.7084 0 71.8915 0 48.0017C0 21.4918 21.4855 0 47.9842 0C74.4829 0 95.9717 21.4918 95.9717 48.0017Z" fill="#1877F2"/>
<path d="M54.6685 38.5406V48.9972H67.6001L65.5525 63.0829H54.6685V95.5359C52.4863 95.8386 50.2537 95.9967 47.9875 95.9967C45.3716 95.9967 42.8028 95.7881 40.3012 95.3845V63.0829H28.3749V48.9972H40.3012V36.2031C40.3012 28.2656 46.7333 21.8281 54.6719 21.8281V21.8349C54.6954 21.8349 54.7156 21.8281 54.7391 21.8281H67.6035V34.0102H59.1976C56.6994 34.0102 54.6719 36.0383 54.6719 38.5372L54.6685 38.5406Z" fill="white"/>
</svg>
