<svg width="33" height="32" viewBox="0 0 33 32" fill="none" xmlns="http://www.w3.org/2000/svg">
<path d="M16.0683 0H15.9955C7.18165 0 0.0366211 7.14713 0.0366211 15.9636V16.0364C0.0366211 24.8529 7.18165 32 15.9955 32H16.0683C24.8822 32 32.0272 24.8529 32.0272 16.0364V15.9636C32.0272 7.14713 24.8822 0 16.0683 0Z" fill="#383D38"/>
<path d="M20.9815 6.50977H11.0828C8.34805 6.50977 6.12329 8.73518 6.12329 11.4707V20.5293C6.12329 23.2648 8.34805 25.4903 11.0828 25.4903H20.9815C23.7163 25.4903 25.941 23.2648 25.941 20.5293V11.4707C25.941 8.73518 23.7163 6.50977 20.9815 6.50977ZM7.87284 11.4707C7.87284 9.70046 9.31305 8.25983 11.0828 8.25983H20.9815C22.7513 8.25983 24.1915 9.70046 24.1915 11.4707V20.5293C24.1915 22.2996 22.7513 23.7402 20.9815 23.7402H11.0828C9.31305 23.7402 7.87284 22.2996 7.87284 20.5293V11.4707Z" fill="white"/>
<path d="M16.0325 20.6138C18.5755 20.6138 20.6456 18.5442 20.6456 15.9993C20.6456 13.4543 18.5767 11.3848 16.0325 11.3848C13.4883 11.3848 11.4193 13.4543 11.4193 15.9993C11.4193 18.5442 13.4883 20.6138 16.0325 20.6138ZM16.0325 13.1359C17.6117 13.1359 18.8961 14.4207 18.8961 16.0004C18.8961 17.5801 17.6117 18.8648 16.0325 18.8648C14.4533 18.8648 13.1689 17.5801 13.1689 16.0004C13.1689 14.4207 14.4533 13.1359 16.0325 13.1359Z" fill="white"/>
<path d="M21.0725 12.1297C21.7573 12.1297 22.3155 11.5725 22.3155 10.8864C22.3155 10.2003 21.7585 9.64307 21.0725 9.64307C20.3866 9.64307 19.8296 10.2003 19.8296 10.8864C19.8296 11.5725 20.3866 12.1297 21.0725 12.1297Z" fill="white"/>
</svg>
