<svg width="32" height="32" viewBox="0 0 32 32" fill="none" xmlns="http://www.w3.org/2000/svg">
<path d="M32 16C32 7.16345 24.8387 0 16.0047 0C7.17074 0 0.00939941 7.16345 0.00939941 16C0.00939941 24.8366 7.17074 32 16.0047 32C24.8387 32 32 24.8366 32 16Z" fill="#383D38"/>
<path d="M26.0762 12.6842C25.9503 11.4688 25.6795 10.1253 24.6825 9.41923C23.9103 8.87169 22.8954 8.85145 21.9478 8.85258C19.9449 8.85258 17.9409 8.85595 15.938 8.85708C14.0115 8.85933 12.085 8.86045 10.1585 8.8627C9.3537 8.8627 8.57141 8.80086 7.82397 9.1494C7.18218 9.44846 6.67976 10.0174 6.37741 10.6503C5.95817 11.5307 5.8705 12.5279 5.81992 13.5016C5.72663 15.2746 5.73675 17.0521 5.84802 18.824C5.93007 20.117 6.138 21.546 7.13722 22.3701C8.02291 23.0998 9.27277 23.1358 10.4215 23.1369C14.0676 23.1403 17.715 23.1436 21.3623 23.1459C21.8298 23.147 22.3176 23.138 22.7942 23.0863C23.7316 22.9851 24.6252 22.7164 25.2276 22.0216C25.8357 21.3211 25.9919 20.3464 26.0841 19.4233C26.3089 17.1837 26.3066 14.9227 26.0762 12.6842ZM13.8294 19.1389V12.8596L19.2649 15.9987L13.8294 19.1389Z" fill="white"/>
</svg>
