<svg width="32" height="32" viewBox="0 0 32 32" fill="none" xmlns="http://www.w3.org/2000/svg">
<path d="M32.0072 16.0006C32.0072 24.0816 26.0188 30.7623 18.2394 31.8464C17.512 31.9473 16.7678 32 16.0124 32C15.1405 32 14.2842 31.9305 13.4503 31.796C5.83458 30.5695 0.0177002 23.9638 0.0177002 16.0006C0.0177002 7.16393 7.17952 0 16.0135 0C24.8476 0 32.0094 7.16393 32.0094 16.0006H32.0072Z" fill="#383D38"/>
<path d="M6.50482 7.05664L13.8818 16.9225L6.45886 24.944H8.12996L14.6294 17.9214L19.8803 24.944H25.566L17.7743 14.5233L24.684 7.05664H23.0129L17.0279 13.5244L12.1917 7.05664H6.50593H6.50482ZM8.96157 8.28762H11.573L23.107 23.7131H20.4956L8.96157 8.28762Z" fill="white"/>
</svg>
