<svg width="33" height="32" viewBox="0 0 33 32" fill="none" xmlns="http://www.w3.org/2000/svg">
<path d="M32.0344 16.0006C32.0344 24.0816 26.046 30.7623 18.2667 31.8464C17.5393 31.9473 16.7951 32 16.0397 32C15.1677 32 14.3114 31.9305 13.4775 31.796C5.8618 30.5695 0.0449219 23.9638 0.0449219 16.0006C0.0449219 7.16393 7.20674 0 16.0408 0C24.8748 0 32.0366 7.16393 32.0366 16.0006H32.0344Z" fill="#383D38"/>
<path d="M18.2666 12.8472V16.3327H22.5772L21.8946 21.028H18.2666V31.8456C17.5392 31.9465 16.795 31.9992 16.0396 31.9992C15.1676 31.9992 14.3114 31.9297 13.4775 31.7952V21.028H9.50208V16.3327H13.4775V12.068C13.4775 9.42219 15.6216 7.27637 18.2677 7.27637V7.27861C18.2756 7.27861 18.2823 7.27637 18.2902 7.27637H22.5783V11.3371H19.7763C18.9436 11.3371 18.2677 12.0131 18.2677 12.8461L18.2666 12.8472Z" fill="white"/>
</svg>
