<svg width="33" height="32" viewBox="0 0 33 32" fill="none" xmlns="http://www.w3.org/2000/svg">
<path d="M16.0588 0H15.986C7.17213 0 0.0270996 7.14713 0.0270996 15.9636V16.0364C0.0270996 24.8529 7.17213 32 15.986 32H16.0588C24.8727 32 32.0177 24.8529 32.0177 16.0364V15.9636C32.0177 7.14713 24.8727 0 16.0588 0Z" fill="#383D38"/>
<path d="M23.7558 11.5776V14.599C23.2279 14.5474 22.542 14.4274 21.7832 14.1494C20.7924 13.7862 20.055 13.2895 19.5719 12.905V19.0117L19.5596 18.9926C19.5674 19.1137 19.5719 19.237 19.5719 19.3615C19.5719 22.3941 17.1051 24.8628 14.0722 24.8628C11.0394 24.8628 8.57251 22.3941 8.57251 19.3615C8.57251 16.3288 11.0394 13.859 14.0722 13.859C14.3692 13.859 14.6606 13.8826 14.9453 13.9285V16.9062C14.6718 16.8087 14.3782 16.756 14.0722 16.756C12.6365 16.756 11.4675 17.9242 11.4675 19.3615C11.4675 20.7987 12.6365 21.9669 14.0722 21.9669C15.5079 21.9669 16.6769 20.7976 16.6769 19.3615C16.6769 19.3077 16.6758 19.2538 16.6724 19.2V7.33301H19.6907C19.7019 7.58862 19.712 7.84648 19.7232 8.1021C19.7434 8.60548 19.9227 9.08868 20.2354 9.48443C20.6019 9.94969 21.1432 10.4901 21.9031 10.9217C22.6148 11.3242 23.2828 11.498 23.7558 11.5798V11.5776Z" fill="white"/>
</svg>
