<svg width="46" height="46" viewBox="0 0 46 46" fill="none" xmlns="http://www.w3.org/2000/svg">
<rect x="1" y="1" width="44" height="44" rx="6" stroke="#0F172A"/>
<path fill-rule="evenodd" clip-rule="evenodd" d="M20 29.0001C21.6569 29.0001 23 27.657 23 26.0001C23 24.3433 21.6569 23.0001 20 23.0001C18.3431 23.0001 17 24.3433 17 26.0001C17 27.657 18.3431 29.0001 20 29.0001ZM20 31.2501C22.8995 31.2501 25.25 28.8996 25.25 26.0001C25.25 23.1006 22.8995 20.7501 20 20.7501C17.1005 20.7501 14.75 23.1006 14.75 26.0001C14.75 28.8996 17.1005 31.2501 20 31.2501Z" fill="#FF4400"/>
<path fill-rule="evenodd" clip-rule="evenodd" d="M15.0932 19.3068C16.4543 21.8728 14.6528 24.9932 11.75 25.0975V26.9029C14.6528 27.0072 16.4543 30.1275 15.0933 32.6936L16.6568 33.5962C18.1985 31.1345 21.8015 31.1345 23.3432 33.5962L24.9067 32.6936C23.5457 30.1275 25.3472 27.0072 28.25 26.9029V25.0975C25.3472 24.9932 23.5457 21.8728 24.9068 19.3068L23.3433 18.4041C21.8015 20.8659 18.1984 20.8659 16.6567 18.4041L15.0932 19.3068ZM13.072 20.3006C12.4921 19.2962 12.8363 18.0118 13.8407 17.4319L15.6593 16.3819C16.6637 15.802 17.9481 16.1462 18.528 17.1506C19.1822 18.2837 20.8178 18.2837 21.472 17.1506C22.0519 16.1462 23.3363 15.802 24.3407 16.3819L26.1593 17.4319C27.1637 18.0118 27.5079 19.2962 26.928 20.3006C26.2738 21.4337 27.0915 22.8502 28.4 22.8502C29.5598 22.8502 30.5 23.7904 30.5 24.9502V27.0502C30.5 28.21 29.5598 29.1502 28.4 29.1502C27.0915 29.1502 26.2738 30.5666 26.928 31.6998C27.5079 32.7042 27.1637 33.9886 26.1593 34.5684L24.3407 35.6185C23.3363 36.1983 22.0519 35.8542 21.472 34.8498C20.8178 33.7166 19.1822 33.7166 18.528 34.8498C17.9481 35.8542 16.6637 36.1984 15.6593 35.6185L13.8407 34.5685C12.8363 33.9886 12.4921 32.7042 13.072 31.6998C13.7263 30.5666 12.9085 29.1502 11.6 29.1502C10.4402 29.1502 9.5 28.21 9.5 27.0502V24.9502C9.5 23.7904 10.4402 22.8502 11.6 22.8502C12.9085 22.8502 13.7262 21.4337 13.072 20.3006Z" fill="#FF4400"/>
<path fill-rule="evenodd" clip-rule="evenodd" d="M23.6389 12.6676C22.787 12.3524 22.787 11.1476 23.6389 10.8324L24.818 10.3961C25.0858 10.297 25.297 10.0858 25.3961 9.81801L25.8324 8.63887C26.1476 7.78704 27.3524 7.78704 27.6676 8.63887L28.1039 9.81801C28.203 10.0858 28.4142 10.297 28.682 10.3961L29.8611 10.8324C30.713 11.1476 30.713 12.3524 29.8611 12.6676L28.682 13.1039C28.4142 13.203 28.203 13.4142 28.1039 13.682L27.6676 14.8611C27.3524 15.713 26.1476 15.713 25.8324 14.8611L25.3961 13.682C25.297 13.4142 25.0858 13.203 24.818 13.1039L23.6389 12.6676ZM32.8464 20C33.0928 19.8127 33.3127 19.5928 33.5 19.3464C33.6873 19.5928 33.9072 19.8127 34.1536 20C33.9072 20.1873 33.6873 20.4072 33.5 20.6536C33.3127 20.4072 33.0928 20.1873 32.8464 20ZM32.3989 16.2666C32.7771 15.2445 34.2229 15.2445 34.6011 16.2666L35.1247 17.6816C35.2436 18.003 35.497 18.2564 35.8184 18.3753L37.2334 18.8989C38.2555 19.2771 38.2555 20.7229 37.2334 21.1011L35.8184 21.6247C35.497 21.7436 35.2436 21.997 35.1247 22.3184L34.6011 23.7334C34.2229 24.7555 32.7771 24.7555 32.3989 23.7334L31.8753 22.3184C31.7564 21.997 31.503 21.7436 31.1816 21.6247L29.7666 21.1011C28.7445 20.7229 28.7445 19.2771 29.7666 18.8989L31.1816 18.3753C31.503 18.2564 31.7564 18.003 31.8753 17.6816L32.3989 16.2666Z" fill="#FF4400"/>
</svg>
