<svg width="96" height="96" viewBox="0 0 96 96" fill="none" xmlns="http://www.w3.org/2000/svg">
<path d="M48.0951 0H47.8766C21.4351 0 0 21.4414 0 47.8907V48.1093C0 74.5586 21.4351 96 47.8766 96H48.0951C74.5367 96 95.9717 74.5586 95.9717 48.1093V47.8907C95.9717 21.4414 74.5367 0 48.0951 0Z" fill="url(#paint0_linear_35_2768)"/>
<path d="M62.8357 19.5312H33.1394C24.9353 19.5312 18.261 26.2075 18.261 34.4141V61.5899C18.261 69.7965 24.9353 76.4727 33.1394 76.4727H62.8357C71.0399 76.4727 77.7142 69.7965 77.7142 61.5899V34.4141C77.7142 26.2075 71.0399 19.5312 62.8357 19.5312ZM23.5096 34.4141C23.5096 29.1033 27.8303 24.7814 33.1394 24.7814H62.8357C68.1449 24.7814 72.4655 29.1033 72.4655 34.4141V61.5899C72.4655 66.9006 68.1449 71.2225 62.8357 71.2225H33.1394C27.8303 71.2225 23.5096 66.9006 23.5096 61.5899V34.4141Z" fill="white"/>
<path d="M47.9877 61.8423C55.6168 61.8423 61.8271 55.6336 61.8271 47.9988C61.8271 40.364 55.6202 34.1553 47.9877 34.1553C40.3551 34.1553 34.1482 40.364 34.1482 47.9988C34.1482 55.6336 40.3551 61.8423 47.9877 61.8423ZM47.9877 39.4088C52.7252 39.4088 56.5785 43.2632 56.5785 48.0022C56.5785 52.7411 52.7252 56.5955 47.9877 56.5955C43.2501 56.5955 39.3968 52.7411 39.3968 48.0022C39.3968 43.2632 43.2501 39.4088 47.9877 39.4088Z" fill="white"/>
<path d="M63.1082 36.3915C65.1626 36.3915 66.837 34.72 66.837 32.6616C66.837 30.6032 65.1659 28.9316 63.1082 28.9316C61.0504 28.9316 59.3793 30.6032 59.3793 32.6616C59.3793 34.72 61.0504 36.3915 63.1082 36.3915Z" fill="white"/>
<defs>
<linearGradient id="paint0_linear_35_2768" x1="14.021" y1="81.9748" x2="81.9707" y2="14.0485" gradientUnits="userSpaceOnUse">
<stop stop-color="#FAAD4F"/>
<stop offset="0.35" stop-color="#DD2A7B"/>
<stop offset="0.62" stop-color="#9537B0"/>
<stop offset="1" stop-color="#515BD4"/>
</linearGradient>
</defs>
</svg>
