<svg width="96" height="96" viewBox="0 0 96 96" fill="none" xmlns="http://www.w3.org/2000/svg">
<path d="M48.0951 0H47.8766C21.4351 0 0 21.4414 0 47.8907V48.1093C0 74.5586 21.4351 96 47.8766 96H48.0951C74.5366 96 95.9717 74.5586 95.9717 48.1093V47.8907C95.9717 21.4414 74.5366 0 48.0951 0Z" fill="url(#paint0_linear_35_2780)"/>
<path d="M76.5575 47.9983V48.1631C76.4802 61.9024 66.6554 73.3815 53.6599 76.0116C52.779 76.1865 51.8879 76.3244 50.9801 76.4219C49.9983 76.5228 48.9963 76.58 47.9876 76.58C44.02 76.58 40.2407 75.7694 36.8044 74.2996L23.5466 75.7123C21.2837 75.9544 19.6127 73.6438 20.5508 71.572L24.1149 63.6782C21.1459 59.1747 19.4143 53.7832 19.4143 47.9983C19.4143 32.2444 32.235 19.4199 47.9876 19.4199C62.8828 19.4199 75.1521 30.8822 76.4432 45.4522C76.5206 46.2863 76.5575 47.144 76.5575 47.9983Z" fill="white"/>
<path d="M61.7228 39.6539C63.0038 38.6045 64.7623 40.1752 63.8612 41.5643L57.8628 50.8202L54.6887 55.7172C54.0129 56.7599 52.594 57.0088 51.6021 56.2587L46.34 52.2665L43.0953 49.8078C42.8331 49.6094 42.4666 49.6161 42.211 49.8247L34.249 56.3226C32.9679 57.3686 31.2128 55.798 32.1139 54.4089L37.7324 45.7449L40.9064 40.8479C41.5823 39.8052 43.0012 39.5564 43.9931 40.3064L49.1005 44.1776L52.3418 46.6328C52.6074 46.8313 52.9739 46.8245 53.2295 46.616L61.7228 39.6505V39.6539Z" fill="url(#paint1_linear_35_2780)"/>
<defs>
<linearGradient id="paint0_linear_35_2780" x1="14.021" y1="81.9748" x2="81.9673" y2="14.0485" gradientUnits="userSpaceOnUse">
<stop stop-color="#0498FA"/>
<stop offset="0.34" stop-color="#5C5EFE"/>
<stop offset="0.73" stop-color="#F44E90"/>
<stop offset="1" stop-color="#FA8679"/>
</linearGradient>
<linearGradient id="paint1_linear_35_2780" x1="36.0781" y1="60.0021" x2="60.0016" y2="36.0857" gradientUnits="userSpaceOnUse">
<stop stop-color="#0498FA"/>
<stop offset="0.34" stop-color="#5C5EFE"/>
<stop offset="0.73" stop-color="#F44E90"/>
<stop offset="1" stop-color="#FA8679"/>
</linearGradient>
</defs>
</svg>
