<svg width="100" height="24" viewBox="0 0 100 24" fill="none" xmlns="http://www.w3.org/2000/svg">
<path d="M37.6084 5.36737H32.1695C31.7973 5.36737 31.4808 5.63777 31.4227 6.00519L29.223 19.9521C29.1793 20.2272 29.3924 20.4754 29.6715 20.4754H32.2681C32.6403 20.4754 32.9568 20.205 33.0149 19.8368L33.6082 16.0751C33.6654 15.7068 33.9827 15.4365 34.3541 15.4365H36.0759C39.6587 15.4365 41.7264 13.7027 42.2664 10.2671C42.5098 8.76403 42.2767 7.58303 41.5729 6.75594C40.7999 5.84772 39.4288 5.36737 37.6084 5.36737ZM38.2359 10.4612C37.9385 12.4128 36.4473 12.4128 35.0055 12.4128H34.1848L34.7605 8.768C34.7947 8.54771 34.9856 8.38547 35.2083 8.38547H35.5844C36.5666 8.38547 37.4931 8.38547 37.9719 8.94535C38.2574 9.27937 38.3449 9.77563 38.2359 10.4612Z" fill="#253B80"/>
<path d="M53.8653 10.3984H51.2607C51.0388 10.3984 50.8472 10.5606 50.813 10.7809L50.6977 11.5094L50.5155 11.2453C49.9517 10.427 48.6943 10.1534 47.4394 10.1534C44.5613 10.1534 42.1031 12.3333 41.6243 15.3911C41.3754 16.9165 41.7293 18.3751 42.5945 19.3922C43.3882 20.3275 44.5239 20.7172 45.8751 20.7172C48.1941 20.7172 49.4801 19.226 49.4801 19.226L49.364 19.9497C49.3202 20.2265 49.5334 20.4746 49.8109 20.4746H52.157C52.53 20.4746 52.8449 20.2042 52.9038 19.836L54.3114 10.9217C54.3559 10.6473 54.1436 10.3984 53.8653 10.3984ZM50.2348 15.4675C49.9835 16.9555 48.8025 17.9543 47.2962 17.9543C46.5399 17.9543 45.9355 17.7118 45.5474 17.2521C45.1625 16.7956 45.0162 16.1459 45.1386 15.4222C45.3733 13.9469 46.5741 12.9154 48.0573 12.9154C48.7969 12.9154 49.3982 13.1612 49.7942 13.6248C50.1911 14.0932 50.3485 14.747 50.2348 15.4675Z" fill="#253B80"/>
<path d="M67.7374 10.3982H65.1202C64.8704 10.3982 64.6358 10.5223 64.4943 10.7299L60.8845 16.0471L59.3544 10.9374C59.2581 10.6177 58.9631 10.3982 58.6291 10.3982H56.0571C55.7446 10.3982 55.5275 10.7036 55.6269 10.9979L58.5098 19.4581L55.7995 23.2842C55.5863 23.5856 55.8011 24 56.1693 24H58.7834C59.0315 24 59.2637 23.8791 59.4045 23.6755L68.1096 11.11C68.318 10.8094 68.1041 10.3982 67.7374 10.3982Z" fill="#253B80"/>
<path d="M76.4024 5.36737H70.9627C70.5913 5.36737 70.2747 5.63777 70.2167 6.00519L68.0169 19.9521C67.9732 20.2272 68.1863 20.4754 68.4639 20.4754H71.2553C71.5146 20.4754 71.7365 20.2861 71.777 20.0284L72.4013 16.0751C72.4586 15.7068 72.7759 15.4365 73.1473 15.4365H74.8683C78.4518 15.4365 80.5188 13.7027 81.0595 10.2671C81.3037 8.76403 81.0691 7.58303 80.3653 6.75594C79.593 5.84772 78.2228 5.36737 76.4024 5.36737ZM77.0299 10.4612C76.7332 12.4128 75.2421 12.4128 73.7994 12.4128H72.9795L73.5561 8.768C73.5903 8.54771 73.7795 8.38547 74.003 8.38547H74.3792C75.3606 8.38547 76.2879 8.38547 76.7666 8.94535C77.0521 9.27937 77.1388 9.77563 77.0299 10.4612Z" fill="#179BD7"/>
<path d="M92.6602 10.3984H90.0573C89.8338 10.3984 89.6437 10.5606 89.6103 10.7809L89.495 11.5094L89.3121 11.2453C88.7482 10.427 87.4917 10.1534 86.2367 10.1534C83.3586 10.1534 80.9012 12.3333 80.4224 15.3911C80.1743 16.9165 80.5266 18.3751 81.3919 19.3922C82.1871 20.3275 83.3212 20.7172 84.6724 20.7172C86.9914 20.7172 88.2774 19.226 88.2774 19.226L88.1613 19.9497C88.1176 20.2265 88.3307 20.4746 88.6098 20.4746H90.9551C91.3265 20.4746 91.643 20.2042 91.7011 19.836L93.1095 10.9217C93.1525 10.6473 92.9393 10.3984 92.6602 10.3984ZM89.0297 15.4675C88.78 16.9555 87.5974 17.9543 86.0912 17.9543C85.3365 17.9543 84.7305 17.7118 84.3424 17.2521C83.9574 16.7956 83.8127 16.1459 83.9336 15.4222C84.1698 13.9469 85.3691 12.9154 86.8523 12.9154C87.5919 12.9154 88.1931 13.1612 88.5892 13.6248C88.9876 14.0932 89.1451 14.747 89.0297 15.4675Z" fill="#179BD7"/>
<path d="M95.7303 5.74987L93.4979 19.952C93.4542 20.2272 93.6673 20.4753 93.9448 20.4753H96.1891C96.5621 20.4753 96.8786 20.2049 96.9359 19.8367L99.1372 5.89064C99.181 5.61547 98.9678 5.36655 98.6903 5.36655H96.1772C95.9553 5.36734 95.7644 5.52958 95.7303 5.74987Z" fill="#179BD7"/>
<path d="M6.63589 23.1856L7.05182 20.5437L6.12532 20.5222H1.70117L4.77573 1.02741C4.78527 0.968555 4.81629 0.91368 4.86162 0.874712C4.90695 0.835743 4.965 0.81427 5.02545 0.81427H12.4852C14.9617 0.81427 16.6707 1.32961 17.563 2.34678C17.9814 2.82395 18.2478 3.32259 18.3766 3.87134C18.5118 4.44712 18.5142 5.13504 18.3822 5.97407L18.3726 6.03531V6.57292L18.791 6.80991C19.1433 6.9968 19.4232 7.21073 19.6379 7.45568C19.9958 7.86366 20.2272 8.38219 20.3251 8.99694C20.4261 9.62919 20.3927 10.3815 20.2272 11.2333C20.0364 12.2131 19.7278 13.0664 19.3111 13.7647C18.9277 14.408 18.4394 14.9417 17.8597 15.3552C17.3062 15.7481 16.6485 16.0463 15.9049 16.2372C15.1844 16.4249 14.3628 16.5195 13.4618 16.5195H12.8812C12.4661 16.5195 12.0629 16.669 11.7464 16.937C11.429 17.2106 11.2191 17.5844 11.1547 17.9932L11.1109 18.231L10.3761 22.8874L10.3427 23.0583C10.3339 23.1124 10.3188 23.1395 10.2966 23.1578C10.2767 23.1745 10.2481 23.1856 10.2202 23.1856H6.63589Z" fill="#253B80"/>
<path d="M19.1865 6.09732C19.1642 6.23968 19.1388 6.38521 19.1101 6.53473C18.1264 11.5856 14.7608 13.3304 10.4623 13.3304H8.27365C7.74797 13.3304 7.30499 13.7122 7.22308 14.2307L6.10253 21.3373L5.78521 23.3518C5.73193 23.6922 5.99437 23.9991 6.33793 23.9991H10.2197C10.6794 23.9991 11.0699 23.6651 11.1422 23.2118L11.1804 23.0146L11.9113 18.3765L11.9582 18.122C12.0298 17.6671 12.421 17.3331 12.8807 17.3331H13.4613C17.2221 17.3331 20.1663 15.8061 21.0268 11.3875C21.3862 9.54169 21.2001 8.00043 20.249 6.91646C19.9611 6.5896 19.604 6.31841 19.1865 6.09732Z" fill="#179BD7"/>
<path d="M18.157 5.68703C18.0067 5.64329 17.8516 5.60352 17.6925 5.56774C17.5327 5.53274 17.3688 5.50173 17.2003 5.47469C16.6102 5.37925 15.9636 5.33392 15.2709 5.33392H9.42399C9.28005 5.33392 9.14326 5.36653 9.02079 5.42538C8.75119 5.55501 8.55078 5.8103 8.50226 6.12284L7.25844 14.0009L7.22266 14.2308C7.30457 13.7122 7.74754 13.3305 8.27322 13.3305H10.4618C14.7603 13.3305 18.126 11.5848 19.1097 6.5348C19.1391 6.38529 19.1638 6.23975 19.1861 6.0974C18.9371 5.96538 18.6675 5.85245 18.3773 5.75622C18.3057 5.73236 18.2317 5.7093 18.157 5.68703Z" fill="#222D65"/>
<path d="M8.50275 6.12289C8.55127 5.81034 8.75168 5.55505 9.02128 5.42622C9.14455 5.36737 9.28054 5.33476 9.42448 5.33476H15.2714C15.9641 5.33476 16.6106 5.38009 17.2007 5.47553C17.3693 5.50257 17.5332 5.53358 17.693 5.56857C17.8521 5.60436 18.0072 5.64413 18.1575 5.68787C18.2322 5.71013 18.3062 5.7332 18.3786 5.75626C18.6688 5.85249 18.9384 5.96622 19.1874 6.09744C19.48 4.23091 19.185 2.96005 18.1758 1.80927C17.0632 0.542383 15.0551 0 12.4855 0H5.02579C4.5009 0 4.05316 0.381736 3.97204 0.901056L0.864878 20.5963C0.803641 20.9859 1.10426 21.3375 1.49713 21.3375H6.1026L7.25893 14.001L8.50275 6.12289Z" fill="#253B80"/>
</svg>
