<svg width="56" height="56" viewBox="0 0 56 56" fill="none" xmlns="http://www.w3.org/2000/svg">
<g filter="url(#filter0_d_27_1532)">
<rect x="4" width="48" height="48" rx="10" fill="#3BBF70"/>
<path d="M21.8546 16.75C21.5579 17.483 20.8393 18 20 18C18.8954 18 18 17.1046 18 16C18 14.8954 18.8954 14 20 14C20.8393 14 21.5579 14.517 21.8546 15.25H26V14H30V15.25H34.1454C34.4421 14.517 35.1607 14 36 14C37.1046 14 38 14.8954 38 16C38 17.1046 37.1046 18 36 18C35.1607 18 34.4421 17.483 34.1454 16.75H32.9005C35.2234 18.3232 36.75 20.9833 36.75 24V25C36.75 25.4142 36.4142 25.75 36 25.75C35.5858 25.75 35.25 25.4142 35.25 25V24C35.25 20.6897 33.0314 17.8975 30 17.0294V18H26V17.0294C22.9686 17.8975 20.75 20.6897 20.75 24V25C20.75 25.4142 20.4142 25.75 20 25.75C19.5858 25.75 19.25 25.4142 19.25 25V24C19.25 20.9833 20.7766 18.3232 23.0995 16.75H21.8546Z" fill="white"/>
<path fill-rule="evenodd" clip-rule="evenodd" d="M29.424 20.7033C28.7261 19.7262 27.2739 19.7262 26.576 20.7033L22.7397 26.0741C22.3629 26.6016 22.3085 27.2941 22.5984 27.8739L25.0528 32.7826C25.3492 33.3755 25.9552 33.75 26.618 33.75H29.382C30.0448 33.75 30.6508 33.3755 30.9472 32.7826L33.4016 27.8739C33.6915 27.2941 33.6371 26.6016 33.2603 26.0741L29.424 20.7033ZM28.75 26.378V22.3404L32.0397 26.946C32.0936 27.0214 32.1013 27.1203 32.0599 27.2031L29.6056 32.1118C29.5632 32.1965 29.4767 32.25 29.382 32.25H26.618C26.5233 32.25 26.4368 32.1965 26.3944 32.1118L23.9401 27.2031C23.8987 27.1203 23.9064 27.0213 23.9603 26.946L27.25 22.3404V26.378C26.3761 26.6869 25.75 27.5203 25.75 28.5C25.75 29.7426 26.7574 30.75 28 30.75C29.2426 30.75 30.25 29.7426 30.25 28.5C30.25 27.5203 29.6239 26.6869 28.75 26.378ZM27.25 28.5C27.25 28.0858 27.5858 27.75 28 27.75C28.4142 27.75 28.75 28.0858 28.75 28.5C28.75 28.9142 28.4142 29.25 28 29.25C27.5858 29.25 27.25 28.9142 27.25 28.5Z" fill="white"/>
</g>
<defs>
<filter id="filter0_d_27_1532" x="0" y="0" width="56" height="56" filterUnits="userSpaceOnUse" color-interpolation-filters="sRGB">
<feFlood flood-opacity="0" result="BackgroundImageFix"/>
<feColorMatrix in="SourceAlpha" type="matrix" values="0 0 0 0 0 0 0 0 0 0 0 0 0 0 0 0 0 0 127 0" result="hardAlpha"/>
<feOffset dy="4"/>
<feGaussianBlur stdDeviation="2"/>
<feComposite in2="hardAlpha" operator="out"/>
<feColorMatrix type="matrix" values="0 0 0 0 0 0 0 0 0 0 0 0 0 0 0 0 0 0 0.25 0"/>
<feBlend mode="normal" in2="BackgroundImageFix" result="effect1_dropShadow_27_1532"/>
<feBlend mode="normal" in="SourceGraphic" in2="effect1_dropShadow_27_1532" result="shape"/>
</filter>
</defs>
</svg>
