<svg width="48" height="48" viewBox="0 0 48 48" fill="none" xmlns="http://www.w3.org/2000/svg">
<rect width="48" height="48" rx="10" fill="#9470FF"/>
<path d="M27.8285 24.9926C27.4142 24.9926 27.0785 24.6569 27.0785 24.2426V23.2107L24.5303 25.7588C24.2374 26.0517 23.7626 26.0517 23.4697 25.7588L22.5 24.7891L19.5303 27.7588C19.2374 28.0517 18.7626 28.0517 18.4697 27.7588C18.1768 27.4659 18.1768 26.991 18.4697 26.6981L21.9697 23.1981C22.2626 22.9052 22.7374 22.9052 23.0303 23.1981L24 24.1678L26.0036 22.1642H25C24.5858 22.1642 24.25 21.8284 24.25 21.4142C24.25 21 24.5858 20.6642 25 20.6642L27.8285 20.6642C28.2427 20.6642 28.5785 21 28.5785 21.4142L28.5785 24.2426C28.5785 24.6569 28.2427 24.9926 27.8285 24.9926Z" fill="white"/>
<path fill-rule="evenodd" clip-rule="evenodd" d="M14 24C14 27.7385 14 29.6077 14.8038 31C15.3305 31.9121 16.0879 32.6695 17 33.1962C18.3923 34 20.2615 34 24 34C27.7385 34 29.6077 34 31 33.1962C31.9121 32.6695 32.6695 31.9121 33.1962 31C34 29.6077 34 27.7385 34 24C34 20.2615 34 18.3923 33.1962 17C32.6695 16.0879 31.9121 15.3305 31 14.8038C29.6077 14 27.7385 14 24 14C20.2615 14 18.3923 14 17 14.8038C16.0879 15.3305 15.3305 16.0879 14.8038 17C14 18.3923 14 20.2615 14 24ZM31.8971 17.75C32.1453 18.1798 32.3146 18.751 32.4056 19.7556C32.4986 20.7808 32.5 22.1032 32.5 24C32.5 25.8968 32.4986 27.2192 32.4056 28.2444C32.3146 29.249 32.1453 29.8202 31.8971 30.25C31.5022 30.9341 30.9341 31.5022 30.25 31.8971C29.8202 32.1453 29.249 32.3146 28.2444 32.4056C27.2192 32.4986 25.8968 32.5 24 32.5C22.1032 32.5 20.7808 32.4986 19.7556 32.4056C18.751 32.3146 18.1798 32.1453 17.75 31.8971C17.0659 31.5022 16.4978 30.9341 16.1029 30.25C15.8547 29.8202 15.6854 29.249 15.5944 28.2444C15.5014 27.2192 15.5 25.8968 15.5 24C15.5 22.1032 15.5014 20.7808 15.5944 19.7556C15.6854 18.751 15.8547 18.1798 16.1029 17.75C16.4978 17.0659 17.0659 16.4978 17.75 16.1029C18.1798 15.8547 18.751 15.6854 19.7556 15.5944C20.7808 15.5014 22.1032 15.5 24 15.5C25.8968 15.5 27.2192 15.5014 28.2444 15.5944C29.249 15.6854 29.8202 15.8547 30.25 16.1029C30.9341 16.4978 31.5022 17.0659 31.8971 17.75Z" fill="white"/>
</svg>
