<svg width="200" height="200" viewBox="0 0 200 200" fill="none" xmlns="http://www.w3.org/2000/svg">
<path opacity="0.7" d="M27.171 66.8362C27.171 66.8362 16.019 95.6362 31.691 124.636C47.363 153.636 79.643 168.956 105.479 182.056C131.315 195.156 158.143 188.776 170.891 167.32C183.639 145.864 166.155 130.548 166.131 99.9522C166.107 69.3562 170.711 61.2562 154.131 35.4082C137.551 9.56022 96.907 3.83622 66.171 23.0082C35.435 42.1802 27.171 66.8362 27.171 66.8362Z" fill="white"/>
<path d="M27.5991 172.664H112.075C112.415 172.12 112.759 171.576 113.111 171.044C122.199 157.212 136.751 147.348 152.643 142.72C159.763 140.648 167.475 139.416 173.195 134.696C179.083 129.844 181.787 122.1 182.955 114.56C184.375 105.432 183.607 95.1962 177.411 88.3442C170.135 80.3002 157.943 79.3962 148.463 74.1242C132.147 65.0442 125.823 44.3682 110.979 33.0402C101.599 25.8842 88.9431 23.1122 77.5991 24.6802C61.5231 26.9082 46.3991 37.6802 41.8591 53.4802C40.5539 58.0821 40.0878 62.8813 40.4831 67.6482C41.2071 77.0682 43.2351 86.6082 41.3231 95.8602C39.2151 106.056 32.5831 114.66 28.6191 124.296C23.6831 136.296 23.0191 149.736 25.1111 162.528C25.671 165.967 26.503 169.357 27.5991 172.664Z" fill="#0F172A"/>
<path opacity="0.7" d="M27.5991 172.664H112.075C112.415 172.12 112.759 171.576 113.111 171.044C122.199 157.212 136.751 147.348 152.643 142.72C159.763 140.648 167.475 139.416 173.195 134.696C179.083 129.844 181.787 122.1 182.955 114.56C184.375 105.432 183.607 95.1962 177.411 88.3442C170.135 80.3002 157.943 79.3962 148.463 74.1242C132.147 65.0442 125.823 44.3682 110.979 33.0402C101.599 25.8842 88.9431 23.1122 77.5991 24.6802C61.5231 26.9082 46.3991 37.6802 41.8591 53.4802C40.5539 58.0821 40.0878 62.8813 40.4831 67.6482C41.2071 77.0682 43.2351 86.6082 41.3231 95.8602C39.2151 106.056 32.5831 114.66 28.6191 124.296C23.6831 136.296 23.0191 149.736 25.1111 162.528C25.671 165.967 26.503 169.357 27.5991 172.664Z" fill="white"/>
<path d="M16.7969 172.664H184.125" stroke="#263238" stroke-linecap="round" stroke-linejoin="round"/>
<path d="M111.601 45.3559V39.0759L106.897 38.6759C106.622 37.6937 106.232 36.7473 105.737 35.8559L108.773 32.2559L104.333 27.8159L100.733 30.8519C99.8489 30.3543 98.909 29.9636 97.9328 29.6879L97.5328 24.9839H91.2008L90.8008 29.6879C89.8247 29.9636 88.8847 30.3543 88.0008 30.8519L84.4008 27.8159L79.9608 32.2559L82.9968 35.8559C82.5011 36.7473 82.1118 37.6937 81.8368 38.6759L77.1328 39.0759V45.3559L81.8368 45.7559C82.1133 46.7312 82.5026 47.6708 82.9968 48.5559L79.9608 52.1559L84.4008 56.5959L88.0008 53.5599C88.8847 54.0575 89.8247 54.4482 90.8008 54.7239L91.2008 59.4279H97.4808L97.8808 54.7239C98.8635 54.4486 99.8101 54.0579 100.701 53.5599L104.301 56.5959L108.741 52.1559L105.705 48.5559C106.199 47.6708 106.588 46.7312 106.865 45.7559L111.601 45.3559ZM94.3608 49.5119C92.9178 49.5119 91.5072 49.084 90.3074 48.2823C89.1076 47.4806 88.1724 46.3411 87.6202 45.0079C87.068 43.6748 86.9235 42.2078 87.205 40.7925C87.4865 39.3772 88.1814 38.0772 89.2018 37.0568C90.2221 36.0365 91.5221 35.3416 92.9374 35.0601C94.3527 34.7786 95.8197 34.923 97.1529 35.4753C98.486 36.0275 99.6255 36.9626 100.427 38.1624C101.229 39.3623 101.657 40.7729 101.657 42.2159C101.656 43.1752 101.467 44.125 101.099 45.011C100.731 45.897 100.192 46.7018 99.513 47.3794C98.834 48.057 98.028 48.5941 97.1412 48.96C96.2544 49.3259 95.3041 49.5135 94.3448 49.5119H94.3608Z" stroke="#263238" stroke-linecap="round" stroke-linejoin="round"/>
<path d="M179.075 106.736V103.728L176.819 103.532C176.686 103.061 176.499 102.608 176.263 102.18L177.719 100.448L175.599 98.3199L173.871 99.7759C173.444 99.5376 172.99 99.3509 172.519 99.2199L172.323 96.9639H169.311L169.119 99.2199C168.647 99.3502 168.194 99.5369 167.767 99.7759L166.035 98.3199L163.907 100.448L165.363 102.18C165.123 102.607 164.935 103.061 164.803 103.532L162.547 103.728V106.736L164.803 106.932C164.935 107.403 165.123 107.857 165.363 108.284L163.895 110L166.023 112.128L167.755 110.672C168.182 110.911 168.635 111.098 169.107 111.228L169.299 113.484H172.311L172.507 111.228C172.978 111.097 173.432 110.91 173.859 110.672L175.587 112.128L177.719 110L176.263 108.268C176.499 107.84 176.686 107.386 176.819 106.916L179.075 106.736ZM170.807 108.736C170.114 108.737 169.437 108.532 168.861 108.148C168.285 107.764 167.836 107.217 167.57 106.578C167.305 105.939 167.235 105.235 167.37 104.556C167.504 103.876 167.837 103.252 168.327 102.762C168.816 102.273 169.44 101.939 170.119 101.803C170.798 101.668 171.502 101.737 172.141 102.002C172.781 102.267 173.328 102.715 173.713 103.291C174.098 103.867 174.303 104.543 174.303 105.236C174.302 105.695 174.211 106.151 174.035 106.575C173.859 106.999 173.6 107.385 173.275 107.71C172.95 108.034 172.563 108.292 172.139 108.467C171.714 108.642 171.259 108.732 170.799 108.732L170.807 108.736Z" stroke="#263238" stroke-linecap="round" stroke-linejoin="round"/>
<path d="M176.801 51.92C177.12 50.5376 177.076 49.096 176.672 47.7358C176.269 46.3756 175.52 45.1431 174.498 44.1585C173.476 43.174 172.217 42.4709 170.843 42.1178C169.469 41.7648 168.027 41.7738 166.657 42.144C165.822 40.6643 164.532 39.4939 162.978 38.8072C161.424 38.1205 159.69 37.9544 158.034 38.3335C156.378 38.7126 154.889 39.6168 153.789 40.9111C152.689 42.2054 152.036 43.8207 151.929 45.516C151.058 45.3495 150.162 45.3648 149.298 45.5609C148.433 45.7569 147.619 46.1296 146.905 46.6554C146.192 47.1813 145.594 47.8489 145.151 48.6165C144.708 49.3841 144.428 50.2351 144.329 51.116C143.437 51.2098 142.613 51.6329 142.017 52.3025C141.421 52.9721 141.096 53.84 141.106 54.7364C141.116 55.6329 141.46 56.4933 142.071 57.1495C142.682 57.8056 143.515 58.2102 144.409 58.284H174.521C175.258 58.2786 175.976 58.0469 176.577 57.6202C177.179 57.1935 177.635 56.5925 177.883 55.8983C178.132 55.2041 178.162 54.4503 177.968 53.7388C177.774 53.0273 177.367 52.3925 176.801 51.92Z" stroke="#263238" stroke-linecap="round" stroke-linejoin="round"/>
<path d="M160.254 55.5322V63.8322" stroke="#263238" stroke-linecap="round" stroke-linejoin="round"/>
<path d="M160.254 50.5557V53.8717" stroke="#263238" stroke-linecap="round" stroke-linejoin="round"/>
<path d="M160.254 47.4521V49.2281" stroke="#263238" stroke-linecap="round" stroke-linejoin="round"/>
<path d="M158.684 62.8638L160.252 64.8038L161.82 62.8638" stroke="#263238" stroke-linecap="round" stroke-linejoin="round"/>
<path d="M85.0565 149.26C85.3749 147.877 85.3299 146.436 84.9257 145.076C84.5216 143.715 83.7721 142.483 82.7502 141.499C81.7284 140.514 80.469 139.811 79.0948 139.458C77.7206 139.105 76.2783 139.114 74.9085 139.484C74.0748 138.003 72.7846 136.832 71.2305 136.144C69.6763 135.457 67.9415 135.291 66.2852 135.671C64.6289 136.051 63.1398 136.956 62.0402 138.252C60.9407 139.547 60.2897 141.164 60.1845 142.86C59.7889 142.784 59.3872 142.745 58.9845 142.744C57.4021 142.743 55.8747 143.325 54.6941 144.378C53.5135 145.432 52.7625 146.884 52.5845 148.456C51.6929 148.549 50.8682 148.972 50.2718 149.641C49.6754 150.31 49.3501 151.178 49.3596 152.074C49.3691 152.971 49.7127 153.831 50.3232 154.488C50.9337 155.144 51.7671 155.549 52.6605 155.624H82.8005C83.5368 155.616 84.253 155.383 84.8526 154.955C85.4521 154.527 85.9061 153.926 86.1533 153.233C86.4005 152.539 86.429 151.786 86.235 151.076C86.0411 150.365 85.6339 149.732 85.0685 149.26H85.0565Z" stroke="#263238" stroke-linecap="round" stroke-linejoin="round"/>
<path d="M68.4961 154.06V145.764" stroke="#263238" stroke-linecap="round" stroke-linejoin="round"/>
<path d="M68.4961 159.04V155.72" stroke="#263238" stroke-linecap="round" stroke-linejoin="round"/>
<path d="M68.4961 162.144V160.368" stroke="#263238" stroke-linecap="round" stroke-linejoin="round"/>
<path d="M70.0657 146.732L68.4977 144.792L66.9297 146.732" stroke="#263238" stroke-linecap="round" stroke-linejoin="round"/>
<path d="M21.3913 43.96H121.971C122.421 43.96 122.853 44.1386 123.171 44.4567C123.489 44.7748 123.667 45.2062 123.667 45.656V50.4H19.6953V45.656C19.6953 45.2062 19.874 44.7748 20.1921 44.4567C20.5101 44.1386 20.9415 43.96 21.3913 43.96Z" fill="#0F172A" stroke="#263238" stroke-linecap="round" stroke-linejoin="round"/>
<path d="M129.33 51.5879H24.2461V125.536H129.33V51.5879Z" fill="white" stroke="#263238" stroke-linecap="round" stroke-linejoin="round"/>
<path d="M130.938 47.1762C130.938 47.4926 130.844 47.802 130.669 48.0651C130.493 48.3282 130.243 48.5333 129.951 48.6544C129.658 48.7755 129.337 48.8072 129.026 48.7454C128.716 48.6837 128.431 48.5313 128.207 48.3075C127.983 48.0838 127.831 47.7987 127.769 47.4883C127.707 47.1779 127.739 46.8562 127.86 46.5639C127.981 46.2715 128.186 46.0216 128.449 45.8458C128.712 45.67 129.022 45.5762 129.338 45.5762C129.763 45.5762 130.17 45.7447 130.47 46.0448C130.77 46.3449 130.938 46.7518 130.938 47.1762Z" fill="white" stroke="#263238" stroke-linecap="round" stroke-linejoin="round"/>
<path d="M125.274 47.1762C125.274 47.4926 125.18 47.802 125.005 48.0651C124.829 48.3282 124.579 48.5333 124.287 48.6544C123.994 48.7755 123.672 48.8072 123.362 48.7454C123.052 48.6837 122.767 48.5313 122.543 48.3075C122.319 48.0838 122.167 47.7987 122.105 47.4883C122.043 47.1779 122.075 46.8562 122.196 46.5639C122.317 46.2715 122.522 46.0216 122.785 45.8458C123.048 45.67 123.358 45.5762 123.674 45.5762C124.099 45.5762 124.506 45.7447 124.806 46.0448C125.106 46.3449 125.274 46.7518 125.274 47.1762Z" fill="white" stroke="#263238" stroke-linecap="round" stroke-linejoin="round"/>
<path d="M119.598 47.1762C119.598 47.4926 119.505 47.802 119.329 48.0651C119.153 48.3282 118.903 48.5333 118.611 48.6544C118.318 48.7755 117.997 48.8072 117.686 48.7454C117.376 48.6837 117.091 48.5313 116.867 48.3075C116.643 48.0838 116.491 47.7987 116.429 47.4883C116.367 47.1779 116.399 46.8562 116.52 46.5639C116.641 46.2715 116.846 46.0216 117.11 45.8458C117.373 45.67 117.682 45.5762 117.998 45.5762C118.423 45.5762 118.83 45.7447 119.13 46.0448C119.43 46.3449 119.598 46.7518 119.598 47.1762Z" fill="white" stroke="#263238" stroke-linecap="round" stroke-linejoin="round"/>
<path d="M126.148 54.7598H121.988" stroke="#263238" stroke-width="2" stroke-linecap="round" stroke-linejoin="round"/>
<path d="M126.148 56.4482H121.988" stroke="#263238" stroke-width="2" stroke-linecap="round" stroke-linejoin="round"/>
<path d="M126.148 58.1357H121.988" stroke="#263238" stroke-width="2" stroke-linecap="round" stroke-linejoin="round"/>
<path d="M31.5234 98.392H63.0154" stroke="#263238" stroke-width="2" stroke-linecap="round" stroke-linejoin="round"/>
<path d="M31.5234 100.876H63.0154" stroke="#263238" stroke-width="2" stroke-linecap="round" stroke-linejoin="round"/>
<path d="M31.5234 103.404H56.3554" stroke="#263238" stroke-width="2" stroke-linecap="round" stroke-linejoin="round"/>
<path d="M98.3047 52.4199V52.6199" stroke="#263238" stroke-linecap="round" stroke-linejoin="round"/>
<path d="M98.3047 53.8203V123.512" stroke="#263238" stroke-linecap="round" stroke-linejoin="round" stroke-dasharray="1 3"/>
<path d="M98.3047 124.112V124.312" stroke="#263238" stroke-linecap="round" stroke-linejoin="round"/>
<path d="M25.5117 108.952H25.7117" stroke="#263238" stroke-linecap="round" stroke-linejoin="round"/>
<path d="M26.9062 108.952H126.922" stroke="#263238" stroke-linecap="round" stroke-linejoin="round" stroke-dasharray="1 2.99"/>
<path d="M127.523 108.952H127.723" stroke="#263238" stroke-linecap="round" stroke-linejoin="round"/>
<path d="M98.9972 108.26H97.6172V109.64H98.9972V108.26Z" fill="white" stroke="#263238" stroke-linecap="round" stroke-linejoin="round"/>
<path d="M92.7951 95.696H74.3711" stroke="#263238" stroke-linecap="round" stroke-linejoin="round"/>
<path d="M93.152 104.216C93.152 104.216 93.152 95.6519 83.584 95.6519C74.016 95.6519 74 104.216 74 104.216" stroke="#263238" stroke-linecap="round" stroke-linejoin="round"/>
<path d="M93.1518 105.024C93.598 105.024 93.9597 104.662 93.9597 104.216C93.9597 103.77 93.598 103.408 93.1518 103.408C92.7055 103.408 92.3438 103.77 92.3438 104.216C92.3438 104.662 92.7055 105.024 93.1518 105.024Z" fill="#0F172A" stroke="#263238" stroke-linecap="round" stroke-linejoin="round"/>
<path d="M73.1992 104.216C73.1992 104.058 73.2461 103.903 73.334 103.772C73.422 103.64 73.5469 103.537 73.6931 103.477C73.8393 103.416 74.0001 103.4 74.1553 103.431C74.3105 103.462 74.453 103.538 74.5649 103.65C74.6768 103.762 74.753 103.905 74.7838 104.06C74.8147 104.215 74.7989 104.376 74.7383 104.522C74.6778 104.668 74.5752 104.793 74.4437 104.881C74.3121 104.969 74.1574 105.016 73.9992 105.016C73.787 105.016 73.5836 104.932 73.4335 104.782C73.2835 104.632 73.1992 104.428 73.1992 104.216Z" fill="#0F172A" stroke="#263238" stroke-linecap="round" stroke-linejoin="round"/>
<path d="M92.4434 96.36H93.8594V94.944H92.4434V96.36Z" fill="#0F172A" stroke="#263238" stroke-linecap="round" stroke-linejoin="round"/>
<path d="M82.877 96.3599H84.293V94.9439H82.877V96.3599Z" fill="#0F172A" stroke="#263238" stroke-linecap="round" stroke-linejoin="round"/>
<path d="M73.3067 96.3599H74.7227V94.9439H73.3067V96.3599Z" fill="#0F172A" stroke="#263238" stroke-linecap="round" stroke-linejoin="round"/>
<path d="M42.9696 69.9477V67.1157L40.8536 66.9357C40.728 66.4931 40.5522 66.0663 40.3296 65.6637L41.6976 64.0397L39.6976 62.0397L38.0696 63.4077C37.6684 63.1822 37.2412 63.0062 36.7976 62.8837L36.6136 60.7637H33.7896L33.6056 62.8837C33.163 63.0057 32.7372 63.1817 32.3376 63.4077L30.7096 62.0397L28.7096 64.0397L30.0776 65.6637C29.8534 66.0655 29.6775 66.4925 29.5536 66.9357L27.4336 67.1157V69.9477L29.5536 70.1277C29.6782 70.5706 29.854 70.9975 30.0776 71.3997L28.7096 73.0237L30.7096 75.0237L32.3376 73.6557C32.7347 73.881 33.1578 74.057 33.5976 74.1797L33.7816 76.2997H36.6096L36.7936 74.1797C37.2359 74.0568 37.6616 73.8809 38.0616 73.6557L39.6896 75.0237L41.6896 73.0237L40.3216 71.3997C40.5435 70.9967 40.7193 70.57 40.8456 70.1277L42.9696 69.9477ZM35.1976 71.8197C34.5473 71.8197 33.9116 71.6268 33.3709 71.2655C32.8302 70.9042 32.4087 70.3907 32.1599 69.7899C31.911 69.1891 31.8459 68.528 31.9728 67.8902C32.0996 67.2524 32.4128 66.6665 32.8726 66.2067C33.3325 65.7469 33.9183 65.4337 34.5561 65.3068C35.1939 65.18 35.8551 65.2451 36.4559 65.494C37.0567 65.7428 37.5702 66.1642 37.9315 66.705C38.2928 67.2457 38.4856 67.8814 38.4856 68.5317C38.4856 69.4037 38.1392 70.24 37.5226 70.8566C36.9059 71.4733 36.0696 71.8197 35.1976 71.8197Z" fill="#0F172A" stroke="#263238" stroke-linecap="round" stroke-linejoin="round"/>
<path d="M52.5891 76.292V74.356L51.1371 74.228C51.0536 73.9255 50.9341 73.6341 50.7811 73.36L51.7171 72.248L50.3451 70.88L49.2331 71.816C48.9584 71.6634 48.6672 71.5426 48.3651 71.456L48.2411 70H46.3051L46.1771 71.452C45.8751 71.5386 45.5838 71.6594 45.3091 71.812L44.1971 70.876L42.8251 72.244L43.7651 73.356C43.6092 73.6291 43.4883 73.9207 43.4051 74.224L41.9531 74.352V76.288L43.4051 76.412C43.4875 76.7155 43.6085 77.0072 43.7651 77.28L42.8251 78.4L44.1971 79.768L45.3091 78.832C45.5838 78.9846 45.8751 79.1054 46.1771 79.192L46.3051 80.64H48.2411L48.3651 79.192C48.6672 79.1054 48.9584 78.9846 49.2331 78.832L50.3451 79.768L51.7171 78.4L50.8011 77.284C50.9548 77.0103 51.0743 76.7188 51.1571 76.416L52.5891 76.292ZM47.2731 77.572C46.8274 77.5728 46.3914 77.4413 46.0205 77.1941C45.6495 76.947 45.3603 76.5953 45.1893 76.1837C45.0184 75.772 44.9734 75.3189 45.0602 74.8816C45.147 74.4444 45.3615 74.0428 45.6767 73.7276C45.9919 73.4124 46.3935 73.1978 46.8308 73.1111C47.268 73.0243 47.7211 73.0692 48.1328 73.2402C48.5444 73.4111 48.8961 73.7004 49.1433 74.0714C49.3904 74.4423 49.5219 74.8783 49.5211 75.324C49.5201 75.9199 49.2829 76.4911 48.8615 76.9124C48.4402 77.3338 47.869 77.5709 47.2731 77.572Z" fill="#0F172A" stroke="#263238" stroke-linecap="round" stroke-linejoin="round"/>
<path d="M102.254 113.656H117.746" stroke="#263238" stroke-width="2" stroke-linecap="round" stroke-linejoin="round"/>
<path d="M102.254 116.14H117.746" stroke="#263238" stroke-width="2" stroke-linecap="round" stroke-linejoin="round"/>
<path d="M102.254 118.668H111.086" stroke="#263238" stroke-width="2" stroke-linecap="round" stroke-linejoin="round"/>
<path d="M81.8435 119.7H73.6875C73.1571 119.7 72.6484 119.489 72.2733 119.114C71.8982 118.739 71.6875 118.23 71.6875 117.7C71.6875 117.17 71.8982 116.661 72.2733 116.286C72.6484 115.911 73.1571 115.7 73.6875 115.7H81.8435C82.3739 115.7 82.8826 115.911 83.2577 116.286C83.6328 116.661 83.8435 117.17 83.8435 117.7C83.8435 118.23 83.6328 118.739 83.2577 119.114C82.8826 119.489 82.3739 119.7 81.8435 119.7Z" fill="#0F172A" stroke="#263238" stroke-linecap="round" stroke-linejoin="round"/>
<path d="M97.0427 119.7H88.8867C88.3563 119.7 87.8476 119.489 87.4725 119.114C87.0974 118.739 86.8867 118.231 86.8867 117.7C86.8867 117.17 87.0974 116.661 87.4725 116.286C87.8476 115.911 88.3563 115.7 88.8867 115.7H97.0427C97.5732 115.7 98.0819 115.911 98.4569 116.286C98.832 116.661 99.0427 117.17 99.0427 117.7C99.0427 118.231 98.832 118.739 98.4569 119.114C98.0819 119.489 97.5732 119.7 97.0427 119.7Z" fill="#0F172A" stroke="#263238" stroke-linecap="round" stroke-linejoin="round"/>
<path d="M120.683 76.7881H103.387V94.0841H120.683V76.7881Z" fill="white" stroke="#263238" stroke-linecap="round" stroke-linejoin="round"/>
<path d="M103.387 76.7881L120.683 94.0841" stroke="#263238" stroke-linecap="round" stroke-linejoin="round"/>
<path d="M120.683 76.7881L103.387 94.0841" stroke="#263238" stroke-linecap="round" stroke-linejoin="round"/>
<path d="M110.171 57.152V61.188L108.391 62.968H104.355V57.152H110.171Z" fill="white" stroke="#263238" stroke-linecap="round" stroke-linejoin="round"/>
<path d="M110.171 61.188L108.391 62.968V61.188H110.171Z" fill="white" stroke="#263238" stroke-linecap="round" stroke-linejoin="round"/>
<path d="M48.3199 88.3643V92.4003L46.5399 94.1843H42.5039V88.3643H48.3199Z" fill="white" stroke="#263238" stroke-linecap="round" stroke-linejoin="round"/>
<path d="M48.3191 92.3999L46.5391 94.1839V92.3999H48.3191Z" fill="white" stroke="#263238" stroke-linecap="round" stroke-linejoin="round"/>
<path d="M26.3434 113.232V117.268L24.5634 119.048H20.5234V113.232H26.3434Z" fill="white" stroke="#263238" stroke-linecap="round" stroke-linejoin="round"/>
<path d="M26.3425 117.268L24.5625 119.048V117.268H26.3425Z" fill="white" stroke="#263238" stroke-linecap="round" stroke-linejoin="round"/>
<path d="M139.468 66.5117H118.004V79.9637H139.468V66.5117Z" fill="#263238" stroke="#263238" stroke-linecap="round" stroke-linejoin="round"/>
<path d="M139.468 66.5117H118.004V68.5557H139.468V66.5117Z" fill="#0F172A" stroke="#263238" stroke-linecap="round" stroke-linejoin="round"/>
<path d="M120.191 70.2798H125.679" stroke="white" stroke-linecap="round" stroke-linejoin="round"/>
<path d="M122.938 71.8115H132.433" stroke="white" stroke-linecap="round" stroke-linejoin="round"/>
<path d="M121.727 73.2397H124.523" stroke="white" stroke-linecap="round" stroke-linejoin="round"/>
<path d="M122.938 74.9238H129.333" stroke="white" stroke-linecap="round" stroke-linejoin="round"/>
<path d="M120.191 76.4517H125.679" stroke="white" stroke-linecap="round" stroke-linejoin="round"/>
<path d="M58.7453 120.636H37.2812V134.088H58.7453V120.636Z" fill="#263238" stroke="#263238" stroke-linecap="round" stroke-linejoin="round"/>
<path d="M58.7453 120.636H37.2812V122.68H58.7453V120.636Z" fill="#0F172A" stroke="#263238" stroke-linecap="round" stroke-linejoin="round"/>
<path d="M39.4727 124.408H44.9567" stroke="white" stroke-linecap="round" stroke-linejoin="round"/>
<path d="M42.2148 125.936H51.7108" stroke="white" stroke-linecap="round" stroke-linejoin="round"/>
<path d="M41 127.364H43.796" stroke="white" stroke-linecap="round" stroke-linejoin="round"/>
<path d="M42.2148 129.048H48.6108" stroke="white" stroke-linecap="round" stroke-linejoin="round"/>
<path d="M39.4727 130.58H44.9567" stroke="white" stroke-linecap="round" stroke-linejoin="round"/>
<path d="M66.799 23.2002H47.079C46.8481 23.2012 46.6269 23.2935 46.4636 23.4568C46.3003 23.6201 46.2081 23.8413 46.207 24.0722V33.2722C46.2081 33.5028 46.3004 33.7235 46.4638 33.8862C46.6273 34.0489 46.8485 34.1402 47.079 34.1402H55.919L56.927 37.7402L57.939 34.1402H66.799C67.0296 34.1402 67.2508 34.0489 67.4142 33.8862C67.5776 33.7235 67.67 33.5028 67.671 33.2722V24.0722C67.67 23.8413 67.5778 23.6201 67.4145 23.4568C67.2512 23.2935 67.03 23.2012 66.799 23.2002Z" fill="#0F172A" stroke="#263238" stroke-linecap="round" stroke-linejoin="round"/>
<path d="M49.4805 25.832H64.3805" stroke="#263238" stroke-width="2" stroke-linecap="round" stroke-linejoin="round"/>
<path d="M49.4805 27.7202H64.3805" stroke="#263238" stroke-width="2" stroke-linecap="round" stroke-linejoin="round"/>
<path d="M49.4805 29.6084H64.3805" stroke="#263238" stroke-width="2" stroke-linecap="round" stroke-linejoin="round"/>
<path d="M49.4805 31.4961H60.7085" stroke="#263238" stroke-width="2" stroke-linecap="round" stroke-linejoin="round"/>
</svg>
