<svg width="46" height="46" viewBox="0 0 46 46" fill="none" xmlns="http://www.w3.org/2000/svg">
<rect x="1" y="1" width="44" height="44" rx="6" stroke="#0F172A"/>
<path fill-rule="evenodd" clip-rule="evenodd" d="M11 20C11 13.25 16.3726 8 23 8C29.6274 8 35 13.25 35 20C35 25.1406 31.52 28.5413 29.8606 29.8706C29.3412 30.2867 29 30.9043 29 31.5698C29 32.6358 28.1358 33.5 27.0698 33.5H18.9302C17.8642 33.5 17 32.6358 17 31.5698C17 30.9043 16.6588 30.2867 16.1394 29.8706C14.48 28.5413 11 25.1406 11 20ZM13.25 20C13.25 14.5076 17.6002 10.25 23 10.25C28.3998 10.25 32.75 14.5076 32.75 20C32.75 24.0888 29.9571 26.9104 28.4538 28.1146C27.5563 28.8337 26.8607 29.9412 26.762 31.25H19.238C19.1393 29.9412 18.4437 28.8337 17.5462 28.1146C16.0429 26.9104 13.25 24.0888 13.25 20Z" fill="#FF4400"/>
<path d="M18.6849 34.6403C18.0721 34.5382 17.4925 34.9522 17.3903 35.5651C17.2882 36.1779 17.7022 36.7575 18.3151 36.8597C21.417 37.3767 24.583 37.3767 27.6849 36.8597C28.2978 36.7575 28.7118 36.1779 28.6097 35.5651C28.5075 34.9522 27.9279 34.5382 27.3151 34.6403C24.4581 35.1165 21.5419 35.1165 18.6849 34.6403Z" fill="#FF4400"/>
</svg>
