<svg width="220" height="220" viewBox="0 0 220 220" fill="none" xmlns="http://www.w3.org/2000/svg">
<path d="M171.161 36.0184C171.161 36.0184 151.801 19.2984 125.841 25.718C99.8808 32.1376 88.4408 54.0496 73.2475 68.8908C65.2791 76.6612 53.7687 79.2836 44.4011 85.1708C14.4459 104.003 17.5611 148.342 39.7371 165.691C58.9519 180.686 83.4291 182.895 115.637 173.171C147.845 163.447 170.866 157.63 191.52 127.688C212.173 97.746 194.921 58.6696 171.161 36.0184Z" fill="#0F172A"/>
<path opacity="0.8" d="M171.161 36.0184C171.161 36.0184 151.801 19.2984 125.841 25.718C99.8808 32.1376 88.4408 54.0496 73.2475 68.8908C65.2791 76.6612 53.7687 79.2836 44.4011 85.1708C14.4459 104.003 17.5611 148.342 39.7371 165.691C58.9519 180.686 83.4291 182.895 115.637 173.171C147.845 163.447 170.866 157.63 191.52 127.688C212.173 97.746 194.921 58.6696 171.161 36.0184Z" fill="white"/>
<path d="M53.2749 94.8464C53.2749 94.8464 53.2749 92.5936 50.1201 89.4388C46.9653 86.284 44.9369 84.48 44.9369 84.48C44.9369 84.48 43.3573 89.6632 46.2877 92.84C48.4431 95.0596 50.7803 97.0951 53.2749 98.9252V94.8464Z" fill="#0F172A"/>
<path d="M48.695 108.922C48.695 108.922 48.695 106.669 45.5402 103.514C42.3854 100.36 40.357 98.56 40.357 98.56C40.357 98.56 38.7818 103.743 41.7078 106.898C43.8632 109.118 46.2004 111.153 48.695 112.983V108.922Z" fill="#0F172A"/>
<path d="M53.0772 98.6876C53.0772 98.6876 53.3148 96.4436 56.7864 93.6408C60.258 90.838 62.4668 89.2408 62.4668 89.2408C62.4668 89.2408 63.4876 94.5604 60.2404 97.3896C57.863 99.3699 55.3242 101.148 52.6504 102.705L53.0772 98.6876Z" fill="#0F172A"/>
<path d="M47.5475 115.311C47.5475 115.311 48.0183 113.111 51.7671 110.682C55.5159 108.253 57.8743 106.92 57.8743 106.92C57.8743 106.92 58.3143 112.319 54.7943 114.792C52.2222 116.509 49.5112 118.009 46.6895 119.275L47.5475 115.311Z" fill="#0F172A"/>
<path d="M48.5859 133.434C48.5859 133.434 48.5859 131.182 51.7407 128.022C54.8955 124.863 56.9239 123.064 56.9239 123.064C56.9239 123.064 58.5035 128.251 55.5731 131.424C53.4177 133.643 51.0805 135.679 48.5859 137.509V133.434Z" fill="#0F172A"/>
<path d="M48.5324 137.856C48.5324 137.856 48.8536 135.626 46.1784 132.053C43.5032 128.48 41.752 126.408 41.752 126.408C41.752 126.408 39.4552 131.318 41.906 134.856C43.7241 137.36 45.7494 139.708 47.9604 141.874L48.5324 137.856Z" fill="#0F172A"/>
<path d="M45.4219 150.968C45.4219 150.968 45.4219 148.716 48.5767 145.556C51.7315 142.397 53.7599 140.602 53.7599 140.602C53.7599 140.602 55.3395 145.785 52.4091 148.94C50.2537 151.16 47.9165 153.195 45.4219 155.025V150.968Z" fill="#0F172A"/>
<path d="M47.52 162.853C47.52 162.853 46.948 160.675 49.2008 156.82C51.4536 152.966 52.9628 150.713 52.9628 150.713C52.9628 150.713 55.8008 155.329 53.7636 159.122C52.2446 161.81 50.5019 164.365 48.554 166.76L47.52 162.853Z" fill="#0F172A"/>
<path d="M53.5612 94.27C53.3955 96.6163 53.1018 98.9518 52.6812 101.266C51.4316 107.712 48.3164 111.87 47.0668 117.691C45.8172 123.512 49.3988 131.01 48.4396 138.486C47.4804 145.961 44.572 150.119 45.4036 155.109C46.2352 160.098 50.6 173.611 50.6 173.611" stroke="#263238" stroke-linecap="round" stroke-linejoin="round"/>
<path d="M53.0469 100.184L56.4481 97.5744" stroke="#263238" stroke-linecap="round" stroke-linejoin="round"/>
<path d="M53.2049 97.1784L51.7793 94.6484" stroke="#263238" stroke-linecap="round" stroke-linejoin="round"/>
<path d="M47.2734 117.423C47.2734 117.423 50.1202 115.289 53.0462 113.155" stroke="#263238" stroke-linecap="round" stroke-linejoin="round"/>
<path d="M48.6948 112.979C48.6948 112.979 46.3232 108.328 43.6348 105.244" stroke="#263238" stroke-linecap="round" stroke-linejoin="round"/>
<path d="M48.6992 136.638C50.3226 133.639 52.3724 130.891 54.7844 128.48" stroke="#263238" stroke-linecap="round" stroke-linejoin="round"/>
<path d="M48.1449 139.801C47.2805 137.769 46.2503 135.812 45.0649 133.949C43.4017 131.498 43.1641 131.182 43.1641 131.182" stroke="#263238" stroke-linecap="round" stroke-linejoin="round"/>
<path d="M45.4219 155.109C46.1426 153.318 47.0002 151.585 47.9871 149.926C48.9724 148.386 50.0835 146.93 51.3091 145.574" stroke="#263238" stroke-linecap="round" stroke-linejoin="round"/>
<path d="M48.5535 166.76C48.3904 165.051 48.685 163.328 49.4071 161.77C50.5951 159.474 51.9371 156.49 52.4871 155.285" stroke="#263238" stroke-linecap="round" stroke-linejoin="round"/>
<path d="M32.6123 124.96C32.6123 124.96 32.3703 123.548 34.0027 121.229C35.6351 118.91 36.7175 117.555 36.7175 117.555C36.7175 117.555 38.2707 120.635 36.7747 122.932C35.6639 124.557 34.4187 126.086 33.0523 127.503L32.6123 124.96Z" fill="#0F172A"/>
<path d="M37.0132 133.285C37.0132 133.285 36.7668 131.872 38.4036 129.554C40.0404 127.235 41.1184 125.88 41.1184 125.88C41.1184 125.88 42.6716 128.96 41.1756 131.256C40.0643 132.883 38.8191 134.413 37.4532 135.832L37.0132 133.285Z" fill="#0F172A"/>
<path d="M33.1543 127.345C33.1543 127.345 32.7627 125.963 30.2811 124.582C27.7995 123.2 26.2463 122.448 26.2463 122.448C26.2463 122.448 26.1803 125.897 28.5255 127.318C30.2368 128.303 32.0281 129.142 33.8803 129.826L33.1543 127.345Z" fill="#0F172A"/>
<path d="M38.4306 137.166C38.4306 137.166 37.8938 135.846 35.2802 134.724C32.6666 133.602 31.043 133.025 31.043 133.025C31.043 133.025 31.3422 136.462 33.8238 137.628C35.6233 138.426 37.4867 139.072 39.3942 139.559L38.4306 137.166Z" fill="#0F172A"/>
<path d="M39.7455 148.645C39.7455 148.645 39.4991 147.233 37.1803 145.596C34.8615 143.959 33.3875 143.048 33.3875 143.048C33.3875 143.048 32.9475 146.472 35.1475 148.13C36.7403 149.288 38.4269 150.311 40.1899 151.188L39.7455 148.645Z" fill="#0F172A"/>
<path d="M40.256 151.413C40.256 151.413 39.816 150.049 41.1052 147.519C42.3944 144.989 43.2656 143.497 43.2656 143.497C43.2656 143.497 45.2412 146.326 44.0884 148.812C43.2209 150.579 42.2068 152.27 41.0568 153.868L40.256 151.413Z" fill="#0F172A"/>
<path d="M44.2167 162.8C44.2167 162.8 44.3839 161.374 46.6059 159.61C48.8279 157.846 50.2447 156.851 50.2447 156.851C50.2447 156.851 50.8651 160.244 48.7839 162.026C47.2595 163.273 45.6331 164.39 43.9219 165.365L44.2167 162.8Z" fill="#0F172A"/>
<path d="M43.6298 159.28C43.6298 159.28 43.3878 157.863 41.0646 156.231C38.7414 154.598 37.2762 153.683 37.2762 153.683C37.2762 153.683 36.8362 157.106 39.0362 158.765C40.6296 159.922 42.3162 160.945 44.0786 161.823L43.6298 159.28Z" fill="#0F172A"/>
<path d="M43.5991 166.98C43.5991 166.98 43.7223 165.55 41.8919 163.381C40.0615 161.212 38.8691 159.958 38.8691 159.958C38.8691 159.958 37.5887 163.156 39.2783 165.317C40.5255 166.84 41.8987 168.256 43.3835 169.55L43.5991 166.98Z" fill="#0F172A"/>
<path d="M32.3711 124.626C32.7317 126.08 33.1724 127.514 33.6911 128.92C35.1739 132.827 37.5807 135.08 38.9711 138.6C40.3615 142.12 38.9711 147.206 40.3659 151.8C41.7607 156.394 44.0575 158.673 44.0751 161.894C44.0927 165.114 42.8255 174.06 42.8255 174.06" stroke="#263238" stroke-linecap="round" stroke-linejoin="round"/>
<path d="M33.3394 128.278L30.9238 127.01" stroke="#263238" stroke-linecap="round" stroke-linejoin="round"/>
<path d="M32.9121 126.412L33.5281 124.67" stroke="#263238" stroke-linecap="round" stroke-linejoin="round"/>
<path d="M38.8298 138.464C38.8298 138.464 36.8102 137.434 34.7598 136.4" stroke="#263238" stroke-linecap="round" stroke-linejoin="round"/>
<path d="M37.4531 135.832C38.0445 133.956 38.8275 132.145 39.7895 130.429" stroke="#263238" stroke-linecap="round" stroke-linejoin="round"/>
<path d="M40.0395 150.665C38.695 148.964 37.1106 147.467 35.3359 146.221" stroke="#263238" stroke-linecap="round" stroke-linejoin="round"/>
<path d="M40.7129 152.592C41.0409 151.223 41.4825 149.884 42.0329 148.588C42.8073 146.868 42.9129 146.643 42.9129 146.643" stroke="#263238" stroke-linecap="round" stroke-linejoin="round"/>
<path d="M43.9688 164.336C44.7538 163.361 45.624 162.459 46.5691 161.638C47.1688 161.195 47.7323 160.705 48.2543 160.173" stroke="#263238" stroke-linecap="round" stroke-linejoin="round"/>
<path d="M44.0791 161.894C43.4341 160.848 42.7088 159.853 41.9099 158.919C41.1241 158.061 40.2691 157.27 39.3535 156.552" stroke="#263238" stroke-linecap="round" stroke-linejoin="round"/>
<path d="M43.384 169.55C43.2989 168.46 42.927 167.413 42.306 166.514C41.3116 165.194 40.1412 163.464 39.666 162.782" stroke="#263238" stroke-linecap="round" stroke-linejoin="round"/>
<path d="M53.8924 189.473H39.522C39.3812 189.473 39.2417 189.446 39.1114 189.393C38.9812 189.339 38.8628 189.261 38.7631 189.161C38.6633 189.062 38.5842 188.944 38.5302 188.814C38.4762 188.684 38.4484 188.544 38.4484 188.404L36.3848 172.48H57.0252L54.9616 188.386C54.9639 188.528 54.938 188.669 54.8853 188.801C54.8326 188.932 54.7542 189.052 54.6547 189.153C54.5552 189.255 54.4365 189.335 54.3056 189.39C54.1748 189.445 54.0343 189.473 53.8924 189.473Z" fill="#263238"/>
<path d="M56.8434 175.19H36.3834C36.1706 175.192 35.9596 175.151 35.7627 175.07C35.5658 174.989 35.3867 174.871 35.2358 174.721C35.085 174.571 34.9652 174.392 34.8835 174.196C34.8018 173.999 34.7598 173.788 34.7598 173.576C34.7598 173.147 34.9299 172.737 35.2327 172.434C35.5356 172.131 35.9463 171.961 36.3746 171.961H56.8346C57.2628 171.961 57.6736 172.131 57.9764 172.434C58.2792 172.737 58.4494 173.147 58.4494 173.576C58.4494 174.002 58.2804 174.412 57.9795 174.714C57.6786 175.017 57.2701 175.188 56.8434 175.19Z" fill="#263238"/>
<path d="M185.956 36.96H49.4199V150.097H185.956V36.96Z" fill="#0F172A"/>
<path opacity="0.5" d="M185.956 36.96H49.4199V150.097H185.956V36.96Z" fill="white"/>
<path d="M185.142 55.1496H73.2812V148.597H185.142V55.1496Z" fill="white"/>
<path d="M103.844 140.184H181.768" stroke="#8C8C8C" stroke-width="0.51243" stroke-miterlimit="10"/>
<path d="M103.844 140.184V139.476" stroke="#8C8C8C" stroke-width="0.51243" stroke-miterlimit="10"/>
<path d="M181.768 140.184V139.476" stroke="#8C8C8C" stroke-width="0.51243" stroke-miterlimit="10"/>
<path d="M107.68 140.184V111.725" stroke="#8C8C8C" stroke-width="0.51243" stroke-miterlimit="10"/>
<path d="M107.68 140.184H109.629" stroke="#8C8C8C" stroke-width="0.51243" stroke-miterlimit="10"/>
<path d="M107.68 136.629H109.629" stroke="#8C8C8C" stroke-width="0.51243" stroke-miterlimit="10"/>
<path d="M107.68 133.069H109.629" stroke="#8C8C8C" stroke-width="0.51243" stroke-miterlimit="10"/>
<path d="M107.68 129.514H109.629" stroke="#8C8C8C" stroke-width="0.51243" stroke-miterlimit="10"/>
<path d="M107.68 125.954H109.629" stroke="#8C8C8C" stroke-width="0.51243" stroke-miterlimit="10"/>
<path d="M107.68 122.399H109.629" stroke="#8C8C8C" stroke-width="0.51243" stroke-miterlimit="10"/>
<path d="M107.68 118.84H109.629" stroke="#8C8C8C" stroke-width="0.51243" stroke-miterlimit="10"/>
<path d="M107.68 115.284H109.629" stroke="#8C8C8C" stroke-width="0.51243" stroke-miterlimit="10"/>
<path d="M107.68 111.725H109.629" stroke="#8C8C8C" stroke-width="0.51243" stroke-miterlimit="10"/>
<path d="M173.732 118.84H169.416V140.184H173.732V118.84Z" fill="#A1A1A1"/>
<path d="M168.941 134.851H164.625V140.188H168.941V134.851Z" fill="#0F172A"/>
<path d="M164.145 133.782H159.828V140.184H164.145V133.782Z" fill="#A1A1A1"/>
<path d="M159.35 122.399H155.033V140.188H159.35V122.399Z" fill="#0F172A"/>
<path d="M154.553 129.514H150.236V140.188H154.553V129.514Z" fill="#A1A1A1"/>
<path d="M149.758 131.292H145.441V140.184H149.758V131.292Z" fill="#0F172A"/>
<path d="M144.961 133.069H140.645V140.184H144.961V133.069Z" fill="#A1A1A1"/>
<path d="M140.166 115.284H135.85V140.188H140.166V115.284Z" fill="#0F172A"/>
<path d="M135.373 136.629H131.057V140.188H135.373V136.629Z" fill="#A1A1A1"/>
<path d="M130.578 129.514H126.262V140.188H130.578V129.514Z" fill="#0F172A"/>
<path d="M125.781 122.399H121.465V140.188H125.781V122.399Z" fill="#A1A1A1"/>
<path d="M120.986 125.954H116.67V140.184H120.986V125.954Z" fill="#0F172A"/>
<path d="M116.189 133.069H111.873V140.184H116.189V133.069Z" fill="#A1A1A1"/>
<path d="M76.7695 98.0672H179.351" stroke="#8C8C8C" stroke-width="0.51243" stroke-miterlimit="10"/>
<path d="M76.7695 98.0672V97.0596" stroke="#8C8C8C" stroke-width="0.51243" stroke-miterlimit="10"/>
<path d="M82.1699 98.0672V97.0596" stroke="#8C8C8C" stroke-width="0.51243" stroke-miterlimit="10"/>
<path d="M87.5684 98.0672V97.0596" stroke="#8C8C8C" stroke-width="0.51243" stroke-miterlimit="10"/>
<path d="M92.9668 98.0672V97.0596" stroke="#8C8C8C" stroke-width="0.51243" stroke-miterlimit="10"/>
<path d="M98.3652 98.0672V97.0596" stroke="#8C8C8C" stroke-width="0.51243" stroke-miterlimit="10"/>
<path d="M103.764 98.0672V97.0596" stroke="#8C8C8C" stroke-width="0.51243" stroke-miterlimit="10"/>
<path d="M109.164 98.0672V97.0596" stroke="#8C8C8C" stroke-width="0.51243" stroke-miterlimit="10"/>
<path d="M114.562 98.0672V97.0596" stroke="#8C8C8C" stroke-width="0.51243" stroke-miterlimit="10"/>
<path d="M119.961 98.0672V97.0596" stroke="#8C8C8C" stroke-width="0.51243" stroke-miterlimit="10"/>
<path d="M125.363 98.0672V97.0596" stroke="#8C8C8C" stroke-width="0.51243" stroke-miterlimit="10"/>
<path d="M130.762 98.0672V97.0596" stroke="#8C8C8C" stroke-width="0.51243" stroke-miterlimit="10"/>
<path d="M136.162 98.0672V97.0596" stroke="#8C8C8C" stroke-width="0.51243" stroke-miterlimit="10"/>
<path d="M141.561 98.0672V97.0596" stroke="#8C8C8C" stroke-width="0.51243" stroke-miterlimit="10"/>
<path d="M146.959 98.0672V97.0596" stroke="#8C8C8C" stroke-width="0.51243" stroke-miterlimit="10"/>
<path d="M152.357 98.0672V97.0596" stroke="#8C8C8C" stroke-width="0.51243" stroke-miterlimit="10"/>
<path d="M157.756 98.0672V97.0596" stroke="#8C8C8C" stroke-width="0.51243" stroke-miterlimit="10"/>
<path d="M163.156 98.0672V97.0596" stroke="#8C8C8C" stroke-width="0.51243" stroke-miterlimit="10"/>
<path d="M168.555 98.0672V97.0596" stroke="#8C8C8C" stroke-width="0.51243" stroke-miterlimit="10"/>
<path d="M173.953 98.0672V97.0596" stroke="#8C8C8C" stroke-width="0.51243" stroke-miterlimit="10"/>
<path d="M179.352 98.0672V97.0596" stroke="#8C8C8C" stroke-width="0.51243" stroke-miterlimit="10"/>
<path d="M76.7695 98.0672V57.8292" stroke="#8C8C8C" stroke-width="0.51243" stroke-miterlimit="10"/>
<path d="M76.7695 98.0672H79.3347" stroke="#8C8C8C" stroke-width="0.51243" stroke-miterlimit="10"/>
<path d="M76.7695 90.0196H79.3347" stroke="#8C8C8C" stroke-width="0.51243" stroke-miterlimit="10"/>
<path d="M76.7695 81.972H79.3347" stroke="#8C8C8C" stroke-width="0.51243" stroke-miterlimit="10"/>
<path d="M76.7695 73.9244H79.3347" stroke="#8C8C8C" stroke-width="0.51243" stroke-miterlimit="10"/>
<path d="M76.7695 65.8768H79.3347" stroke="#8C8C8C" stroke-width="0.51243" stroke-miterlimit="10"/>
<path d="M76.7695 57.8292H79.3347" stroke="#8C8C8C" stroke-width="0.51243" stroke-miterlimit="10"/>
<path d="M84.8715 65.8768L79.4727 90.0196" stroke="#0F172A" stroke-width="2.04972" stroke-miterlimit="10" stroke-linecap="round"/>
<path d="M90.2699 79.5564L84.8711 65.8768" stroke="#0F172A" stroke-width="2.04972" stroke-miterlimit="10" stroke-linecap="round"/>
<path d="M95.6683 73.9244L90.2695 79.5564" stroke="#0F172A" stroke-width="2.04972" stroke-miterlimit="10" stroke-linecap="round"/>
<path d="M101.067 88.4092L95.668 73.9244" stroke="#0F172A" stroke-width="2.04972" stroke-miterlimit="10" stroke-linecap="round"/>
<path d="M106.465 65.8768L101.066 88.4092" stroke="#0F172A" stroke-width="2.04972" stroke-miterlimit="10" stroke-linecap="round"/>
<path d="M111.866 57.8292L106.467 65.8768" stroke="#0F172A" stroke-width="2.04972" stroke-miterlimit="10" stroke-linecap="round"/>
<path d="M117.264 94.0412L111.865 57.8292" stroke="#0F172A" stroke-width="2.04972" stroke-miterlimit="10" stroke-linecap="round"/>
<path d="M122.662 91.6256L117.264 94.0412" stroke="#0F172A" stroke-width="2.04972" stroke-miterlimit="10" stroke-linecap="round"/>
<path d="M128.061 90.8204L122.662 91.6256" stroke="#0F172A" stroke-width="2.04972" stroke-miterlimit="10" stroke-linecap="round"/>
<path d="M133.459 88.4092L128.061 90.8204" stroke="#0F172A" stroke-width="2.04972" stroke-miterlimit="10" stroke-linecap="round"/>
<path d="M138.858 85.1884L133.459 88.4092" stroke="#0F172A" stroke-width="2.04972" stroke-miterlimit="10" stroke-linecap="round"/>
<path d="M144.258 86.7988L138.859 85.1884" stroke="#0F172A" stroke-width="2.04972" stroke-miterlimit="10" stroke-linecap="round"/>
<path d="M149.657 90.0196L144.258 86.7988" stroke="#0F172A" stroke-width="2.04972" stroke-miterlimit="10" stroke-linecap="round"/>
<path d="M155.055 73.1192L149.656 90.0196" stroke="#0F172A" stroke-width="2.04972" stroke-miterlimit="10" stroke-linecap="round"/>
<path d="M160.453 70.7036L155.055 73.1192" stroke="#0F172A" stroke-width="2.04972" stroke-miterlimit="10" stroke-linecap="round"/>
<path d="M165.852 67.4872L160.453 70.7036" stroke="#0F172A" stroke-width="2.04972" stroke-miterlimit="10" stroke-linecap="round"/>
<path d="M171.252 70.7036L165.854 67.4872" stroke="#0F172A" stroke-width="2.04972" stroke-miterlimit="10" stroke-linecap="round"/>
<path d="M176.651 73.9244L171.252 70.7036" stroke="#0F172A" stroke-width="2.04972" stroke-miterlimit="10" stroke-linecap="round"/>
<path d="M79.4724 89.0648C79.7256 89.0648 79.9685 89.1654 80.1475 89.3444C80.3266 89.5235 80.4272 89.7664 80.4272 90.0196C80.426 90.2721 80.3249 90.5138 80.146 90.6919C79.967 90.87 79.7248 90.97 79.4724 90.97C79.2199 90.97 78.9777 90.87 78.7988 90.6919C78.6198 90.5138 78.5187 90.2721 78.5176 90.0196C78.5176 89.7664 78.6182 89.5235 78.7972 89.3444C78.9763 89.1654 79.2191 89.0648 79.4724 89.0648Z" fill="white" stroke="#0F172A" stroke-width="1.02486" stroke-linecap="round" stroke-linejoin="round"/>
<path d="M84.8708 64.922C85.124 64.922 85.3669 65.0226 85.546 65.2016C85.725 65.3807 85.8256 65.6236 85.8256 65.8768C85.8256 66.13 85.725 66.3729 85.546 66.5519C85.3669 66.731 85.124 66.8316 84.8708 66.8316C84.6176 66.8316 84.3747 66.731 84.1957 66.5519C84.0166 66.3729 83.916 66.13 83.916 65.8768C83.916 65.6236 84.0166 65.3807 84.1957 65.2016C84.3747 65.0226 84.6176 64.922 84.8708 64.922Z" fill="white" stroke="#0F172A" stroke-width="1.02486" stroke-linecap="round" stroke-linejoin="round"/>
<path d="M90.2693 78.6016C90.5225 78.6016 90.7653 78.7022 90.9444 78.8812C91.1235 79.0603 91.2241 79.3032 91.2241 79.5564C91.2241 79.8096 91.1235 80.0525 90.9444 80.2315C90.7653 80.4106 90.5225 80.5112 90.2693 80.5112C90.016 80.5112 89.7732 80.4106 89.5941 80.2315C89.415 80.0525 89.3145 79.8096 89.3145 79.5564C89.3145 79.3032 89.415 79.0603 89.5941 78.8812C89.7732 78.7022 90.016 78.6016 90.2693 78.6016Z" fill="white" stroke="#0F172A" stroke-width="1.02486" stroke-linecap="round" stroke-linejoin="round"/>
<path d="M95.6677 72.9696C95.9202 72.9696 96.1624 73.0696 96.3413 73.2477C96.5202 73.4258 96.6213 73.6675 96.6225 73.92C96.6225 74.1732 96.5219 74.4161 96.3428 74.5952C96.1638 74.7742 95.9209 74.8748 95.6677 74.8748C95.4145 74.8748 95.1716 74.7742 94.9926 74.5952C94.8135 74.4161 94.7129 74.1732 94.7129 73.92C94.7141 73.6675 94.8152 73.4258 94.9941 73.2477C95.173 73.0696 95.4152 72.9696 95.6677 72.9696Z" fill="white" stroke="#0F172A" stroke-width="1.02486" stroke-linecap="round" stroke-linejoin="round"/>
<path d="M101.068 87.4544C101.321 87.4544 101.564 87.555 101.743 87.7341C101.922 87.9131 102.023 88.156 102.023 88.4092C102.023 88.6624 101.922 88.9053 101.743 89.0844C101.564 89.2634 101.321 89.364 101.068 89.364C100.815 89.364 100.572 89.2634 100.393 89.0844C100.214 88.9053 100.113 88.6624 100.113 88.4092C100.113 88.156 100.214 87.9131 100.393 87.7341C100.572 87.555 100.815 87.4544 101.068 87.4544Z" fill="white" stroke="#0F172A" stroke-width="1.02486" stroke-linecap="round" stroke-linejoin="round"/>
<path d="M106.478 64.922C106.731 64.922 106.974 65.0226 107.153 65.2016C107.332 65.3807 107.433 65.6236 107.433 65.8768C107.433 66.13 107.332 66.3729 107.153 66.5519C106.974 66.731 106.731 66.8316 106.478 66.8316C106.225 66.8316 105.982 66.731 105.803 66.5519C105.624 66.3729 105.523 66.13 105.523 65.8768C105.523 65.6236 105.624 65.3807 105.803 65.2016C105.982 65.0226 106.225 64.922 106.478 64.922Z" fill="white" stroke="#0F172A" stroke-width="1.02486" stroke-linecap="round" stroke-linejoin="round"/>
<path d="M111.865 56.8744C112.118 56.8744 112.361 56.975 112.54 57.154C112.719 57.3331 112.82 57.576 112.82 57.8292C112.82 58.0824 112.719 58.3253 112.54 58.5043C112.361 58.6834 112.118 58.784 111.865 58.784C111.612 58.784 111.369 58.6834 111.19 58.5043C111.011 58.3253 110.91 58.0824 110.91 57.8292C110.91 57.576 111.011 57.3331 111.19 57.154C111.369 56.975 111.612 56.8744 111.865 56.8744Z" fill="white" stroke="#0F172A" stroke-width="1.02486" stroke-linecap="round" stroke-linejoin="round"/>
<path d="M117.263 93.0864C117.389 93.0864 117.513 93.1111 117.629 93.159C117.745 93.207 117.85 93.2774 117.939 93.366C118.027 93.4547 118.098 93.5599 118.146 93.6758C118.194 93.7916 118.218 93.9158 118.218 94.0412C118.218 94.1666 118.194 94.2907 118.146 94.4066C118.098 94.5224 118.027 94.6276 117.939 94.7163C117.85 94.805 117.745 94.8753 117.629 94.9233C117.513 94.9713 117.389 94.996 117.263 94.996C117.01 94.996 116.767 94.8954 116.588 94.7163C116.409 94.5373 116.309 94.2944 116.309 94.0412C116.309 93.7879 116.409 93.5451 116.588 93.366C116.767 93.187 117.01 93.0864 117.263 93.0864Z" fill="white" stroke="#0F172A" stroke-width="1.02486" stroke-linecap="round" stroke-linejoin="round"/>
<path d="M122.662 90.6752C122.914 90.6752 123.156 90.7752 123.335 90.9533C123.514 91.1314 123.615 91.3731 123.617 91.6256C123.617 91.8788 123.516 92.1217 123.337 92.3007C123.158 92.4798 122.915 92.5804 122.662 92.5804C122.409 92.5804 122.166 92.4798 121.987 92.3007C121.808 92.1217 121.707 91.8788 121.707 91.6256C121.708 91.3731 121.809 91.1314 121.988 90.9533C122.167 90.7752 122.409 90.6752 122.662 90.6752Z" fill="white" stroke="#0F172A" stroke-width="1.02486" stroke-linecap="round" stroke-linejoin="round"/>
<path d="M128.06 89.87C128.313 89.87 128.555 89.97 128.734 90.1481C128.913 90.3262 129.014 90.5679 129.015 90.8204C129.015 90.9458 128.99 91.0699 128.942 91.1858C128.894 91.3016 128.824 91.4069 128.735 91.4955C128.647 91.5842 128.541 91.6545 128.426 91.7025C128.31 91.7505 128.186 91.7752 128.06 91.7752C127.807 91.7752 127.564 91.6746 127.385 91.4955C127.206 91.3165 127.105 91.0736 127.105 90.8204C127.107 90.5679 127.208 90.3262 127.387 90.1481C127.566 89.97 127.808 89.87 128.06 89.87Z" fill="white" stroke="#0F172A" stroke-width="1.02486" stroke-linecap="round" stroke-linejoin="round"/>
<path d="M133.461 87.4544C133.714 87.4544 133.957 87.555 134.136 87.7341C134.315 87.9131 134.415 88.156 134.415 88.4092C134.415 88.6624 134.315 88.9053 134.136 89.0844C133.957 89.2634 133.714 89.364 133.461 89.364C133.207 89.364 132.965 89.2634 132.786 89.0844C132.606 88.9053 132.506 88.6624 132.506 88.4092C132.506 88.156 132.606 87.9131 132.786 87.7341C132.965 87.555 133.207 87.4544 133.461 87.4544Z" fill="white" stroke="#0F172A" stroke-width="1.02486" stroke-linecap="round" stroke-linejoin="round"/>
<path d="M138.859 84.2336C139.112 84.2336 139.355 84.3342 139.534 84.5132C139.713 84.6923 139.814 84.9352 139.814 85.1884C139.814 85.4416 139.713 85.6845 139.534 85.8635C139.355 86.0426 139.112 86.1432 138.859 86.1432C138.606 86.1432 138.363 86.0426 138.184 85.8635C138.005 85.6845 137.904 85.4416 137.904 85.1884C137.904 84.9352 138.005 84.6923 138.184 84.5132C138.363 84.3342 138.606 84.2336 138.859 84.2336Z" fill="white" stroke="#0F172A" stroke-width="1.02486" stroke-linecap="round" stroke-linejoin="round"/>
<path d="M144.258 85.844C144.383 85.844 144.507 85.8687 144.623 85.9167C144.739 85.9647 144.844 86.035 144.933 86.1236C145.021 86.2123 145.092 86.3176 145.14 86.4334C145.188 86.5492 145.212 86.6734 145.212 86.7988C145.212 86.9242 145.188 87.0483 145.14 87.1642C145.092 87.28 145.021 87.3853 144.933 87.4739C144.844 87.5626 144.739 87.6329 144.623 87.6809C144.507 87.7289 144.383 87.7536 144.258 87.7536C144.004 87.7536 143.761 87.653 143.582 87.4739C143.403 87.2949 143.303 87.052 143.303 86.7988C143.303 86.5456 143.403 86.3027 143.582 86.1236C143.761 85.9446 144.004 85.844 144.258 85.844Z" fill="white" stroke="#0F172A" stroke-width="1.02486" stroke-linecap="round" stroke-linejoin="round"/>
<path d="M149.656 89.0648C149.909 89.0648 150.152 89.1654 150.331 89.3444C150.51 89.5235 150.611 89.7664 150.611 90.0196C150.61 90.2721 150.509 90.5138 150.33 90.6919C150.151 90.87 149.908 90.97 149.656 90.97C149.404 90.97 149.161 90.87 148.982 90.6919C148.803 90.5138 148.702 90.2721 148.701 90.0196C148.701 89.7664 148.802 89.5235 148.981 89.3444C149.16 89.1654 149.403 89.0648 149.656 89.0648Z" fill="white" stroke="#0F172A" stroke-width="1.02486" stroke-linecap="round" stroke-linejoin="round"/>
<path d="M155.054 72.16C155.308 72.16 155.55 72.2606 155.73 72.4397C155.909 72.6187 156.009 72.8616 156.009 73.1148C156.009 73.368 155.909 73.6109 155.73 73.7899C155.55 73.969 155.308 74.0696 155.054 74.0696C154.801 74.0696 154.558 73.969 154.379 73.7899C154.2 73.6109 154.1 73.368 154.1 73.1148C154.1 72.8616 154.2 72.6187 154.379 72.4397C154.558 72.2606 154.801 72.16 155.054 72.16Z" fill="white" stroke="#0F172A" stroke-width="1.02486" stroke-linecap="round" stroke-linejoin="round"/>
<path d="M160.455 69.7488C160.58 69.7488 160.704 69.7735 160.82 69.8215C160.936 69.8695 161.041 69.9398 161.13 70.0285C161.219 70.1171 161.289 70.2224 161.337 70.3382C161.385 70.4541 161.41 70.5782 161.41 70.7036C161.41 70.829 161.385 70.9531 161.337 71.069C161.289 71.1848 161.219 71.2901 161.13 71.3788C161.041 71.4674 160.936 71.5377 160.82 71.5857C160.704 71.6337 160.58 71.6584 160.455 71.6584C160.202 71.6584 159.959 71.5578 159.78 71.3788C159.601 71.1997 159.5 70.9568 159.5 70.7036C159.5 70.4504 159.601 70.2075 159.78 70.0285C159.959 69.8494 160.202 69.7488 160.455 69.7488Z" fill="white" stroke="#0F172A" stroke-width="1.02486" stroke-linecap="round" stroke-linejoin="round"/>
<path d="M165.853 66.5324C166.106 66.5324 166.349 66.633 166.528 66.8121C166.707 66.9911 166.808 67.234 166.808 67.4872C166.807 67.7397 166.706 67.9814 166.527 68.1595C166.348 68.3376 166.106 68.4376 165.853 68.4376C165.601 68.4376 165.359 68.3376 165.18 68.1595C165.001 67.9814 164.9 67.7397 164.898 67.4872C164.898 67.234 164.999 66.9911 165.178 66.8121C165.357 66.633 165.6 66.5324 165.853 66.5324Z" fill="white" stroke="#0F172A" stroke-width="1.02486" stroke-linecap="round" stroke-linejoin="round"/>
<path d="M171.252 69.7488C171.505 69.7488 171.748 69.8494 171.927 70.0285C172.106 70.2075 172.206 70.4504 172.206 70.7036C172.206 70.9568 172.106 71.1997 171.927 71.3788C171.748 71.5578 171.505 71.6584 171.252 71.6584C170.998 71.6584 170.756 71.5578 170.577 71.3788C170.397 71.1997 170.297 70.9568 170.297 70.7036C170.297 70.4504 170.397 70.2075 170.577 70.0285C170.756 69.8494 170.998 69.7488 171.252 69.7488Z" fill="white" stroke="#0F172A" stroke-width="1.02486" stroke-linecap="round" stroke-linejoin="round"/>
<path d="M176.65 72.9696C176.776 72.9696 176.9 72.9943 177.016 73.0423C177.131 73.0903 177.237 73.1606 177.325 73.2493C177.414 73.3379 177.484 73.4432 177.532 73.559C177.58 73.6749 177.605 73.799 177.605 73.9244C177.605 74.0498 177.58 74.174 177.532 74.2898C177.484 74.4056 177.414 74.5109 177.325 74.5996C177.237 74.6882 177.131 74.7585 177.016 74.8065C176.9 74.8545 176.776 74.8792 176.65 74.8792C176.397 74.878 176.155 74.7771 175.976 74.5983C175.797 74.4195 175.696 74.1773 175.695 73.9244C175.695 73.6712 175.796 73.4283 175.975 73.2493C176.154 73.0702 176.397 72.9696 176.65 72.9696Z" fill="white" stroke="#0F172A" stroke-width="1.02486" stroke-linecap="round" stroke-linejoin="round"/>
<path d="M185.957 36.96H182.428V150.097H185.957V36.96Z" fill="#DBDBDB"/>
<path d="M185.957 102.15H182.428V130.97H185.957V102.15Z" fill="#878787"/>
<path d="M185.956 36.96H49.4199V43.8856H185.956V36.96Z" fill="#263238"/>
<path d="M146.185 38.1392H58.4004V42.0464H146.185V38.1392Z" fill="#EDEDED"/>
<path d="M56.2793 58.102H68.8237" stroke="black" stroke-width="1.02486" stroke-linecap="round" stroke-linejoin="round"/>
<path d="M53.9292 59.1932C54.5805 59.1932 55.1084 58.6652 55.1084 58.014C55.1084 57.3627 54.5805 56.8348 53.9292 56.8348C53.2779 56.8348 52.75 57.3627 52.75 58.014C52.75 58.6652 53.2779 59.1932 53.9292 59.1932Z" stroke="black" stroke-width="1.02486" stroke-linecap="round" stroke-linejoin="round"/>
<path d="M56.2793 65.6568H68.8237" stroke="black" stroke-width="1.02486" stroke-linecap="round" stroke-linejoin="round"/>
<path d="M53.9292 66.7524C54.5805 66.7524 55.1084 66.2244 55.1084 65.5732C55.1084 64.9219 54.5805 64.394 53.9292 64.394C53.2779 64.394 52.75 64.9219 52.75 65.5732C52.75 66.2244 53.2779 66.7524 53.9292 66.7524Z" stroke="black" stroke-width="1.02486" stroke-linecap="round" stroke-linejoin="round"/>
<path d="M56.2793 73.216H68.8237" stroke="black" stroke-width="1.02486" stroke-linecap="round" stroke-linejoin="round"/>
<path d="M53.9292 74.3116C54.5805 74.3116 55.1084 73.7836 55.1084 73.1324C55.1084 72.4811 54.5805 71.9532 53.9292 71.9532C53.2779 71.9532 52.75 72.4811 52.75 73.1324C52.75 73.7836 53.2779 74.3116 53.9292 74.3116Z" stroke="black" stroke-width="1.02486" stroke-linecap="round" stroke-linejoin="round"/>
<path d="M56.2793 80.7752H68.8237" stroke="black" stroke-width="1.02486" stroke-linecap="round" stroke-linejoin="round"/>
<path d="M55.1133 80.6872C55.1133 80.4531 55.0439 80.2243 54.9138 80.0296C54.7838 79.835 54.5989 79.6833 54.3826 79.5937C54.1664 79.5041 53.9284 79.4807 53.6988 79.5263C53.4692 79.572 53.2583 79.6847 53.0928 79.8503C52.9272 80.0158 52.8145 80.2267 52.7688 80.4563C52.7232 80.6859 52.7466 80.9239 52.8362 81.1401C52.9258 81.3564 53.0775 81.5413 53.2721 81.6713C53.4668 81.8014 53.6956 81.8708 53.9297 81.8708C54.2436 81.8708 54.5447 81.7461 54.7666 81.5241C54.9886 81.3022 55.1133 81.0011 55.1133 80.6872Z" stroke="black" stroke-width="1.02486" stroke-linecap="round" stroke-linejoin="round"/>
<path d="M56.2793 88.3344H68.8237" stroke="black" stroke-width="1.02486" stroke-linecap="round" stroke-linejoin="round"/>
<path d="M53.9292 89.4256C54.5805 89.4256 55.1084 88.8977 55.1084 88.2464C55.1084 87.5951 54.5805 87.0672 53.9292 87.0672C53.2779 87.0672 52.75 87.5951 52.75 88.2464C52.75 88.8977 53.2779 89.4256 53.9292 89.4256Z" stroke="black" stroke-width="1.02486" stroke-linecap="round" stroke-linejoin="round"/>
<path d="M89.1832 129.571L80.9596 137.249C79.9509 136.168 79.1651 134.898 78.6471 133.513C78.1291 132.128 77.8889 130.655 77.9404 129.177C77.9919 127.699 78.334 126.246 78.9471 124.9C79.5603 123.555 80.4325 122.343 81.514 121.334C83.5748 119.354 86.3342 118.268 89.192 118.312L89.1832 129.571Z" fill="#A1A1A1"/>
<path d="M89.1826 129.571L99.3026 124.634C100.477 127.057 100.744 129.821 100.056 132.424C99.3673 135.027 97.7689 137.297 95.5504 138.823C93.3319 140.348 90.6401 141.028 87.9631 140.74C85.2862 140.451 82.8013 139.213 80.959 137.249L89.1826 129.571Z" fill="#0F172A"/>
<path d="M89.1836 129.571V118.312C91.3029 118.266 93.3894 118.84 95.1872 119.963C96.9849 121.086 98.4156 122.71 99.3036 124.634L89.1836 129.571Z" fill="#263238"/>
<path d="M78.7281 51.4272V51.8056C78.7281 52.096 78.8601 52.2016 79.0625 52.2016C79.2649 52.2016 79.3925 52.096 79.3925 51.8056V50.9256C79.3925 50.6308 79.2649 50.5208 79.0625 50.5208C78.8601 50.5208 78.7281 50.6308 78.7281 50.9256V51.04H78.1253L78.2397 48.6816H79.9293V49.2624H78.8161L78.7633 50.2348C78.8202 50.1386 78.9024 50.0599 79.0009 50.0072C79.0995 49.9544 79.2105 49.9297 79.3221 49.9356C79.7929 49.9356 80.0305 50.27 80.0305 50.8684V51.7748C80.0305 52.426 79.7093 52.7956 79.0801 52.7956C78.9456 52.8089 78.8098 52.7911 78.6833 52.7435C78.5568 52.6959 78.4429 52.6198 78.3506 52.521C78.2583 52.4223 78.1899 52.3036 78.1508 52.1742C78.1118 52.0448 78.103 51.9081 78.1253 51.7748V51.436L78.7281 51.4272Z" fill="#263238"/>
<path d="M80.8535 49.1832C81.0137 49.2029 81.1753 49.1612 81.3059 49.0665C81.4366 48.9718 81.5265 48.8311 81.5575 48.6728H81.9975V52.7428H81.3551V49.6364H80.8623L80.8535 49.1832Z" fill="#263238"/>
<path d="M83.5997 51.1192L83.4017 51.4932V52.7428H82.7637V48.6728H83.4017V50.4328L84.2377 48.6728H84.8801L84.0001 50.4856L84.8801 52.7428H84.2201L83.5997 51.1192Z" fill="#263238"/>
<path d="M78.5078 46.4816H84.2058" stroke="black" stroke-width="1.02486" stroke-linecap="round" stroke-linejoin="round"/>
<path d="M104.825 48.7124V48.4H105.348V48.7036C105.788 48.796 106.035 49.1436 106.035 49.698V49.8256H105.432V49.6584C105.432 49.368 105.313 49.258 105.111 49.258C104.908 49.258 104.789 49.368 104.789 49.6584C104.789 50.4944 106.039 50.5384 106.039 51.7C106.074 51.9233 106.022 52.1517 105.893 52.3377C105.765 52.5236 105.57 52.6529 105.348 52.6988V52.9936H104.825V52.6988C104.603 52.6529 104.408 52.5236 104.279 52.3377C104.151 52.1517 104.099 51.9233 104.134 51.7V51.4184H104.719V51.7396C104.719 52.03 104.847 52.1356 105.053 52.1356C105.26 52.1356 105.383 52.03 105.383 51.7396C105.383 50.9036 104.134 50.8596 104.134 49.698C104.151 49.1612 104.376 48.8092 104.825 48.7124Z" fill="#263238"/>
<path d="M107.047 51.4272V51.8056C107.047 52.096 107.174 52.2016 107.377 52.2016C107.579 52.2016 107.711 52.096 107.711 51.8056V50.9256C107.711 50.6308 107.583 50.5208 107.377 50.5208C107.17 50.5208 107.047 50.6308 107.047 50.9256V51.04H106.444L106.558 48.6816H108.239V49.2624H107.13L107.077 50.2348C107.134 50.1383 107.216 50.0593 107.315 50.0065C107.413 49.9537 107.525 49.9292 107.636 49.9356C108.107 49.9356 108.345 50.27 108.345 50.8684V51.7748C108.367 51.9081 108.358 52.0448 108.319 52.1742C108.28 52.3036 108.212 52.4223 108.119 52.521C108.027 52.6198 107.913 52.6959 107.787 52.7435C107.66 52.7911 107.524 52.8089 107.39 52.7956C106.765 52.7956 106.439 52.426 106.439 51.7748V51.436L107.047 51.4272Z" fill="#263238"/>
<path d="M109.172 49.1832C109.332 49.2029 109.494 49.1612 109.624 49.0665C109.755 48.9718 109.845 48.8311 109.876 48.6728H110.316V52.7428H109.678V49.6364H109.185L109.172 49.1832Z" fill="#263238"/>
<path d="M111.917 51.1192L111.719 51.4932V52.7428H111.076V48.6728H111.719V50.4328L112.555 48.6728H113.193L112.313 50.4856L113.193 52.7428H112.537L111.917 51.1192Z" fill="#263238"/>
<path d="M105.836 46.4816H111.534" stroke="black" stroke-width="1.02486" stroke-linecap="round" stroke-linejoin="round"/>
<path d="M130.504 49.6496C130.504 49.3917 130.606 49.1444 130.789 48.962C130.971 48.7796 131.218 48.6772 131.476 48.6772C131.734 48.6772 131.982 48.7796 132.164 48.962C132.346 49.1444 132.449 49.3917 132.449 49.6496V51.766C132.449 52.0239 132.346 52.2712 132.164 52.4536C131.982 52.6359 131.734 52.7384 131.476 52.7384C131.218 52.7384 130.971 52.6359 130.789 52.4536C130.606 52.2712 130.504 52.0239 130.504 51.766V49.6496ZM131.146 51.8056C131.146 52.096 131.274 52.206 131.476 52.206C131.679 52.206 131.806 52.096 131.806 51.8056V49.6056C131.806 49.3108 131.679 49.2008 131.476 49.2008C131.274 49.2008 131.146 49.3108 131.146 49.6056V51.8056Z" fill="#263238"/>
<path d="M133.477 52.1268V52.7428H132.879V52.1268H133.477Z" fill="#263238"/>
<path d="M135.176 49.6716C135.176 49.3064 135.048 49.2052 134.846 49.2052C134.643 49.2052 134.511 49.3152 134.511 49.61V49.8696H133.909V49.6496C133.909 48.9984 134.234 48.6244 134.863 48.6244C135.493 48.6244 135.814 48.9984 135.814 49.6496V49.7552C135.839 49.9233 135.81 50.0951 135.731 50.2455C135.652 50.3959 135.527 50.517 135.374 50.5912C135.526 50.6705 135.651 50.7952 135.729 50.9481C135.808 51.1009 135.838 51.2745 135.814 51.4448V51.766C135.814 52.4172 135.488 52.7868 134.863 52.7868C134.729 52.8001 134.593 52.7823 134.467 52.7347C134.34 52.6871 134.226 52.6109 134.134 52.5122C134.041 52.4135 133.973 52.2948 133.934 52.1654C133.895 52.036 133.886 51.8993 133.909 51.766V51.4272H134.511V51.8056C134.511 52.096 134.639 52.206 134.846 52.206C135.053 52.206 135.176 52.1092 135.176 51.766V51.4448C135.176 51.0664 135.048 50.93 134.736 50.93H134.52V50.3448H134.771C135.009 50.3448 135.154 50.2436 135.154 49.9048L135.176 49.6716Z" fill="#263238"/>
<path d="M136.209 49.28C136.209 49.1166 136.274 48.96 136.389 48.8444C136.505 48.7289 136.662 48.664 136.825 48.664C136.988 48.664 137.145 48.7289 137.261 48.8444C137.376 48.96 137.441 49.1166 137.441 49.28V50.6C137.441 50.7634 137.376 50.9201 137.261 51.0356C137.145 51.1511 136.988 51.216 136.825 51.216C136.662 51.216 136.505 51.1511 136.389 51.0356C136.274 50.9201 136.209 50.7634 136.209 50.6V49.28ZM136.618 50.6484C136.618 50.8288 136.693 50.9036 136.825 50.9036C136.957 50.9036 137.036 50.8288 137.036 50.6484V49.28C137.036 49.0996 136.953 49.0204 136.825 49.0204C136.697 49.0204 136.618 49.0996 136.618 49.28V50.6484ZM138.431 48.6596H138.809L137.203 52.7296H136.838L138.431 48.6596ZM138.229 50.7672C138.229 50.6038 138.293 50.4472 138.409 50.3316C138.525 50.2161 138.681 50.1512 138.845 50.1512C139.008 50.1512 139.165 50.2161 139.28 50.3316C139.396 50.4472 139.461 50.6038 139.461 50.7672V52.0872C139.461 52.2506 139.396 52.4073 139.28 52.5228C139.165 52.6383 139.008 52.7032 138.845 52.7032C138.681 52.7032 138.525 52.6383 138.409 52.5228C138.293 52.4073 138.229 52.2506 138.229 52.0872V50.7672ZM138.633 52.1356C138.633 52.316 138.713 52.3908 138.845 52.3908C138.977 52.3908 139.051 52.316 139.051 52.1356V50.7408C139.051 50.5604 138.972 50.4856 138.845 50.4856C138.717 50.4856 138.633 50.5604 138.633 50.7408V52.1356Z" fill="#263238"/>
<path d="M132.135 46.4816H137.833" stroke="black" stroke-width="1.02486" stroke-linecap="round" stroke-linejoin="round"/>
<path d="M78.7278 107.36V107.738C78.7278 108.029 78.8598 108.134 79.0622 108.134C79.2646 108.134 79.3922 108.029 79.3922 107.738V106.858C79.3922 106.568 79.2646 106.458 79.0622 106.458C78.8598 106.458 78.7278 106.568 78.7278 106.858V106.982H78.125L78.2394 104.619H79.929V105.16H78.8158L78.763 106.128C78.8212 106.033 78.9038 105.956 79.0021 105.904C79.1004 105.852 79.2108 105.828 79.3218 105.833C79.7926 105.833 80.0302 106.163 80.0302 106.762V107.668C80.0302 108.319 79.709 108.693 79.0798 108.693C78.4506 108.693 78.125 108.319 78.125 107.668V107.36H78.7278Z" fill="#263238"/>
<path d="M80.8535 105.098C81.0145 105.119 81.1772 105.077 81.3082 104.981C81.4392 104.886 81.5284 104.743 81.5575 104.584H81.9975V108.654H81.3551V105.552H80.8623L80.8535 105.098Z" fill="#263238"/>
<path d="M83.5997 107.034L83.4017 107.404V108.654H82.7637V104.584H83.4017V106.344L84.2377 104.584H84.8801L84.0001 106.401L84.8801 108.654H84.2201L83.5997 107.034Z" fill="#263238"/>
<path d="M78.5078 102.392H84.2058" stroke="black" stroke-width="1.02486" stroke-linecap="round" stroke-linejoin="round"/>
<path d="M77.8535 111.232H84.9463" stroke="black" stroke-width="1.02486" stroke-linecap="round" stroke-linejoin="round"/>
<path d="M77.8535 113.142H84.9463" stroke="black" stroke-width="1.02486" stroke-linecap="round" stroke-linejoin="round"/>
<path d="M132.238 201.089C152.162 201.089 168.313 197.657 168.313 193.424C168.313 189.191 152.162 185.759 132.238 185.759C112.314 185.759 96.1621 189.191 96.1621 193.424C96.1621 197.657 112.314 201.089 132.238 201.089Z" fill="#0F172A"/>
<path opacity="0.5" d="M132.238 201.089C152.162 201.089 168.313 197.657 168.313 193.424C168.313 189.191 152.162 185.759 132.238 185.759C112.314 185.759 96.1621 189.191 96.1621 193.424C96.1621 197.657 112.314 201.089 132.238 201.089Z" fill="white"/>
<path d="M133.585 93.06L134.43 96.1532L130.303 116.503L132.74 121.004L136.868 116.785L135.838 96.1532L137.805 93.6232L135.649 90.4332L133.585 93.06Z" fill="white" stroke="#263238" stroke-width="1.02486" stroke-linecap="round" stroke-linejoin="round"/>
<path d="M126.619 186.067C126.619 186.067 118.893 190.96 118.893 192.117C118.893 193.274 121.748 192.117 125.933 190.102C130.117 188.087 131.411 188.126 129.426 185.755C127.442 183.383 126.619 186.067 126.619 186.067Z" fill="white" stroke="#263238" stroke-width="1.02486" stroke-linecap="round" stroke-linejoin="round"/>
<path d="M142.582 186.908C142.582 186.908 143.255 194.132 144.936 195.98C146.617 197.828 147.792 194.806 147.457 192.958C147.123 191.11 145.257 187.238 145.257 187.238C145.257 187.238 143.761 185.24 142.582 186.908Z" fill="white" stroke="#263238" stroke-width="1.02486" stroke-linecap="round" stroke-linejoin="round"/>
<path d="M123.094 118.69C122.453 124.093 122.115 129.529 122.082 134.97C122.082 143.37 121.075 150.594 121.413 154.462C121.708 157.859 124.991 180.488 125.778 185.9C125.829 186.247 125.978 186.571 126.207 186.836C126.437 187.101 126.736 187.295 127.072 187.396C127.338 187.476 127.62 187.495 127.895 187.451C128.17 187.407 128.431 187.301 128.66 187.141C128.888 186.982 129.077 186.772 129.213 186.529C129.348 186.286 129.427 186.015 129.443 185.737L131.327 153.12L133.848 133.795C133.848 133.795 135.863 158.664 136.536 162.866C137.108 166.443 141.09 182.697 142.256 187.44C142.372 187.939 142.62 188.397 142.975 188.765C143.33 189.134 143.778 189.4 144.271 189.534C144.377 189.564 144.487 189.58 144.597 189.583C145.037 189.583 145.503 188.584 145.75 187.937C145.875 187.61 145.941 187.263 145.943 186.912L146.106 155.135L146.445 130.772C146.445 130.772 147.417 124.124 146.929 121.145C146.441 118.166 123.094 118.69 123.094 118.69Z" fill="#263238" stroke="#263238" stroke-width="1.02486" stroke-linecap="round" stroke-linejoin="round"/>
<path d="M133.342 133.14L128.133 130.786" stroke="white" stroke-width="1.02486" stroke-linecap="round" stroke-linejoin="round"/>
<path d="M104.72 101.257L103.251 100.632C100.945 100.192 100.171 97.284 100.171 97.284C100.171 97.284 98.6529 98.648 97.9709 98.208C97.2889 97.768 99.6737 96.0476 99.6737 96.0476C99.6737 96.0476 95.9117 97.966 95.3265 97.5348C94.7413 97.1036 98.2349 95.1544 98.2349 95.1544C98.2349 95.1544 93.8129 96.5448 93.5269 95.876C93.2409 95.2072 101.385 92.2548 102.639 92.4C103.893 92.5452 104.663 95.2644 105.099 96.2236C105.534 97.1828 106.133 98.2476 106.133 98.2476L106.96 99.2948L116.407 106.234C116.407 106.234 124.688 88.3652 125.449 87.494C126.21 86.6228 134.931 85.8616 134.931 85.8616L135.582 85.7516C135.582 85.7516 137.87 85.8616 140.594 86.2972C143.317 86.7328 151.272 90.8732 151.272 90.8732L146.912 118.765V121.158C146.878 121.456 146.77 121.741 146.6 121.988C146.43 122.235 146.202 122.437 145.935 122.575C145.39 122.901 123.816 120.613 123.816 120.613C123.816 120.613 122.496 120.507 122.4 119.852C122.303 119.196 123.381 110.172 123.381 110.172C123.381 110.172 120.112 113.766 119.13 113.876C118.286 113.973 108.676 105.076 105.2 101.82L104.72 101.257Z" fill="white" stroke="#263238" stroke-width="1.02486" stroke-linecap="round" stroke-linejoin="round"/>
<path d="M145.957 122.575C146.223 122.437 146.452 122.235 146.622 121.988C146.792 121.741 146.899 121.456 146.934 121.158V118.765L151.294 90.8732C151.294 90.8732 143.339 86.7328 140.615 86.2972C137.892 85.8616 135.604 85.7516 135.604 85.7516L134.953 85.8616C134.953 85.8616 126.236 86.6228 125.471 87.494C124.819 88.2376 118.686 101.38 116.908 105.2L120.723 112.82C121.973 111.725 123.403 110.154 123.403 110.154C123.403 110.154 122.311 119.2 122.421 119.834C122.531 120.468 123.838 120.595 123.838 120.595C123.838 120.595 145.411 122.901 145.957 122.575Z" fill="white" stroke="#263238" stroke-width="1.02486" stroke-linecap="round" stroke-linejoin="round"/>
<path d="M123.402 110.154L125.99 93.9004" stroke="#263238" stroke-width="1.02486" stroke-linecap="round" stroke-linejoin="round"/>
<path d="M116.429 106.234C116.429 106.234 119.61 112.856 119.61 113.458C119.61 114.061 120.965 113.898 120.965 113.898C120.965 113.898 123.068 112.394 122.919 110.744C122.769 109.094 118.409 102.172 118.409 102.172C118.409 102.172 115.804 103.369 116.429 106.234Z" fill="white" stroke="#263238" stroke-width="1.02486" stroke-linecap="round" stroke-linejoin="round"/>
<path d="M91.4191 91.6696L107.083 93.1304C107.739 93.192 108.249 93.5704 108.201 93.9796C108.152 94.3844 107.563 94.644 106.903 94.5472L91.3443 92.2636C91.0891 92.2284 90.9043 92.0744 90.9043 91.916C90.9395 91.7532 91.1595 91.6476 91.4191 91.6696Z" fill="#263238" stroke="#263238" stroke-width="1.02486" stroke-linecap="round" stroke-linejoin="round"/>
<path d="M103.919 97.174C103.919 97.174 102.537 93.4736 102.088 93.4208C101.639 93.368 96.3022 92.4748 96.0822 92.8136C95.8622 93.1524 95.541 93.566 96.047 93.896C96.553 94.226 99.9498 95.4404 99.9498 95.4404C99.9498 95.4404 99.9498 98.4368 102.229 99.242" fill="white"/>
<path d="M103.919 97.174C103.919 97.174 102.537 93.4736 102.088 93.4208C101.639 93.368 96.3022 92.4748 96.0822 92.8136C95.8622 93.1524 95.541 93.566 96.047 93.896C96.553 94.226 99.9498 95.4404 99.9498 95.4404C99.9498 95.4404 99.9498 98.4368 102.229 99.242" stroke="#263238" stroke-width="1.02486" stroke-linecap="round" stroke-linejoin="round"/>
<path d="M102.614 92.4484C102.614 92.4484 101.514 91.058 100.282 91.1284C99.0496 91.1988 95.71 91.4628 96.92 91.9556C98.13 92.4484 102.614 92.4484 102.614 92.4484Z" fill="white" stroke="#263238" stroke-width="1.02486" stroke-linecap="round" stroke-linejoin="round"/>
<path d="M136.039 84.0092C136.039 84.0092 134.517 84.6604 134.279 85.6416C134.041 86.6228 133.623 90.7632 132.647 92.07C132.137 92.6898 131.731 93.3882 131.445 94.138L135.37 92.818L139.726 97.8296C140.213 95.7901 140.951 93.8186 141.922 91.96C143.339 89.4564 144.32 88.8008 144.32 86.7328C144.32 84.6648 141.706 83.6792 140.941 83.5736C140.175 83.468 136.039 84.0092 136.039 84.0092Z" fill="white" stroke="#263238" stroke-width="1.02486" stroke-linecap="round" stroke-linejoin="round"/>
<path d="M130.592 67.8832C130.592 67.8832 129.941 70.3868 130.376 70.9324C130.812 71.478 131.137 72.6924 130.702 73.3304C130.266 73.9684 129.175 75.1828 129.285 75.5304C129.395 75.878 131.137 76.7316 131.137 76.7316C131.137 76.7316 131.247 81.7432 132.119 82.0688C132.99 82.3944 135.278 82.2844 135.278 82.2844L135.388 92.8444L142.467 85.7648L142.252 78.6808C142.252 78.6808 144.43 77.594 144.975 76.6128C145.521 75.6316 144.645 73.4536 144.645 73.4536C144.645 73.4536 144.43 68.442 144.43 67.8964C144.372 66.9528 143.956 66.0668 143.268 65.4186C142.58 64.7704 141.67 64.4088 140.725 64.4072C137.566 64.2884 130.592 67.8832 130.592 67.8832Z" fill="white" stroke="#263238" stroke-width="1.02486" stroke-linecap="round" stroke-linejoin="round"/>
<path d="M133.427 72.622C133.427 73.0136 133.233 73.3304 132.987 73.3304C132.74 73.3304 132.547 73.0136 132.547 72.622C132.547 72.2304 132.74 71.9136 132.987 71.9136C133.233 71.9136 133.427 72.2304 133.427 72.622Z" fill="#263238"/>
<path d="M132 71.478C132 71.478 133.091 70.4968 134.288 71.8036" stroke="#263238" stroke-width="1.02486" stroke-linecap="round" stroke-linejoin="round"/>
<path d="M135.277 82.28C135.277 82.28 138.872 81.5188 140.179 79.6664" stroke="#263238" stroke-width="1.02486" stroke-linecap="round" stroke-linejoin="round"/>
<path d="M140.18 66.792C140.18 66.792 131.248 68.8644 129.396 68.6444C127.543 68.4244 126.126 64.724 127.636 62.8716C129.145 61.0192 136.242 60.038 139.617 61.0192C142.992 62.0004 147.572 64.394 147.246 65.9208C146.921 67.4476 144.628 73.4404 144.628 73.4404C144.628 73.4404 142.776 72.4592 142.235 73.546C141.953 74.0642 141.733 74.6135 141.579 75.1828C141.579 75.1828 141.254 75.944 140.818 75.1828C140.382 74.4216 140.378 73.656 139.498 72.3492C138.618 71.0424 137.1 69.6256 137.738 68.97C138.376 68.3144 140.18 66.792 140.18 66.792Z" fill="#263238" stroke="#263238" stroke-width="1.02486" stroke-linecap="round" stroke-linejoin="round"/>
<path d="M116.908 105.2L123.97 117.814L135.846 118.716L129.382 105.49L116.908 105.2Z" fill="#0F172A" stroke="#263238" stroke-width="1.02486" stroke-linecap="round" stroke-linejoin="round"/>
<path d="M145.314 98.274L148.02 113.458L156.737 115.28C156.737 115.28 154.484 93.6364 153.881 92.2856C153.278 90.9348 149.371 89.8788 148.922 89.8788" fill="white"/>
<path d="M145.314 98.274L148.02 113.458L156.737 115.28C156.737 115.28 154.484 93.6364 153.881 92.2856C153.278 90.9348 149.371 89.8788 148.922 89.8788" stroke="#263238" stroke-width="1.02486" stroke-linecap="round" stroke-linejoin="round"/>
<path d="M145.918 113.155C145.918 113.155 146.666 109.397 148.47 109.098C150.274 108.799 155.536 108.495 156.738 111.351C157.939 114.206 158.093 115.861 157.178 116.912C156.262 117.964 154.018 117.216 150.578 116.16C147.137 115.104 145.918 113.155 145.918 113.155Z" fill="white" stroke="#263238" stroke-width="1.02486" stroke-linecap="round" stroke-linejoin="round"/>
<path d="M138.001 111.901L132.118 110.264L126.236 113.208C126.236 113.208 125.47 113.648 125.906 114.088C126.341 114.528 127.107 114.198 127.107 114.198C127.107 114.198 126.667 114.849 127.107 115.174C127.547 115.5 130.046 114.734 130.046 114.734C130.046 114.734 127.652 116.371 128.414 116.697C129.175 117.022 132.664 115.28 132.664 115.28L130.706 116.956C130.664 116.991 130.631 117.036 130.612 117.087C130.593 117.138 130.587 117.193 130.595 117.247C130.604 117.3 130.626 117.351 130.66 117.394C130.694 117.436 130.739 117.469 130.79 117.489C130.972 117.578 131.181 117.602 131.379 117.555C132.14 117.449 134.855 115.408 134.855 115.408H138.982C138.982 115.408 153.472 118.457 155.434 118.347C157.396 118.237 157.722 114.646 156.415 113.01C155.108 111.373 152.055 111.593 151.294 111.593C150.532 111.593 138.001 111.901 138.001 111.901Z" fill="white" stroke="#263238" stroke-width="1.02486" stroke-linecap="round" stroke-linejoin="round"/>
<path d="M127.107 114.189L130.047 113.098" stroke="#263238" stroke-width="1.02486" stroke-linecap="round" stroke-linejoin="round"/>
<path d="M130.047 114.73L131.464 114.189" stroke="#263238" stroke-width="1.02486" stroke-linecap="round" stroke-linejoin="round"/>
<path d="M120.455 105.437L121.581 107.127L126.175 107.312L125.053 105.53L120.455 105.437Z" fill="white" stroke="#263238" stroke-width="1.02486" stroke-linecap="round" stroke-linejoin="round"/>
</svg>
