<svg width="220" height="220" viewBox="0 0 220 220" fill="none" xmlns="http://www.w3.org/2000/svg">
<path d="M168.854 33.44C168.854 33.44 147.4 17.0236 120.463 25.4408C93.5263 33.858 82.8563 57.64 67.7599 74.228C59.8399 82.918 47.8939 86.4028 38.3943 93.1964C8.03434 114.919 14.0711 161.436 38.5439 178.297C59.7299 192.887 85.6547 193.675 118.976 181.377C152.297 169.079 176.176 161.577 196.064 128.735C215.952 95.8936 195.334 55.8096 168.854 33.44Z" fill="#0F172A"/>
<path opacity="0.8" d="M168.854 33.44C168.854 33.44 147.4 17.0236 120.463 25.4408C93.5263 33.858 82.8563 57.64 67.7599 74.228C59.8399 82.918 47.8939 86.4028 38.3943 93.1964C8.03434 114.919 14.0711 161.436 38.5439 178.297C59.7299 192.887 85.6547 193.675 118.976 181.377C152.297 169.079 176.176 161.577 196.064 128.735C215.952 95.8936 195.334 55.8096 168.854 33.44Z" fill="white"/>
<path d="M156.385 183.792H148.368V195.637H156.385V183.792Z" fill="white" stroke="#263238" stroke-width="1.05542" stroke-linecap="round" stroke-linejoin="round"/>
<path d="M156.025 194.04H155.189C155.027 194.021 154.877 193.944 154.769 193.822C154.66 193.7 154.601 193.543 154.601 193.38C154.601 193.217 154.66 193.06 154.769 192.938C154.877 192.816 155.027 192.739 155.189 192.72H156.025C156.357 192.719 156.675 192.586 156.91 192.351C157.145 192.117 157.277 191.798 157.279 191.466V188.597C157.277 188.265 157.145 187.947 156.91 187.712C156.675 187.477 156.357 187.344 156.025 187.343H154.951C154.776 187.343 154.608 187.274 154.484 187.15C154.361 187.026 154.291 186.858 154.291 186.683C154.291 186.508 154.361 186.34 154.484 186.216C154.608 186.093 154.776 186.023 154.951 186.023H156.025C156.363 186.023 156.697 186.09 157.01 186.219C157.322 186.348 157.606 186.538 157.845 186.777C158.084 187.016 158.273 187.3 158.403 187.612C158.532 187.924 158.599 188.259 158.599 188.597V191.466C158.597 192.148 158.326 192.802 157.843 193.285C157.361 193.767 156.707 194.039 156.025 194.04Z" fill="white" stroke="#263238" stroke-width="1.05542" stroke-linecap="round" stroke-linejoin="round"/>
<path d="M149.622 172.634C149.233 172.139 148.935 171.579 148.742 170.98" stroke="#263238" stroke-width="1.05542" stroke-linejoin="round"/>
<path d="M149.415 182.904C149.415 182.904 149.081 182.569 151.937 181.056C154.792 179.542 154.959 177.025 152.104 175.01C151.616 174.667 151.155 174.289 150.722 173.879" stroke="#263238" stroke-width="1.05542" stroke-linejoin="round"/>
<path d="M153.12 182.736C153.12 182.736 155.809 181.562 156.143 179.379C156.274 178.567 156.187 177.735 155.892 176.968C155.596 176.201 155.103 175.525 154.462 175.01" stroke="#263238" stroke-width="1.05542" stroke-linejoin="round"/>
<path d="M171.27 191.95C169.457 191.95 167.992 192.689 167.992 193.6C167.992 194.511 169.457 195.25 171.27 195.25C173.083 195.25 174.544 194.511 174.544 193.6C174.544 192.689 173.079 191.95 171.27 191.95ZM171.27 194.185C170.628 194.185 170.113 193.921 170.113 193.6C170.113 193.279 170.628 193.019 171.27 193.019C171.913 193.019 172.423 193.279 172.423 193.6C172.423 193.921 171.908 194.185 171.27 194.185Z" fill="#0F172A" stroke="#263238" stroke-width="1.05542" stroke-linejoin="round"/>
<path d="M167.033 189.455C164.467 189.455 162.391 190.806 162.391 192.474C162.391 194.141 164.467 195.492 167.033 195.492C169.598 195.492 171.675 194.141 171.675 192.474C171.675 190.806 169.598 189.455 167.033 189.455ZM167.033 193.116C166.487 193.116 166.043 192.826 166.043 192.474C166.043 192.122 166.483 191.831 167.033 191.831C167.583 191.831 168.023 192.117 168.023 192.474C168.023 192.83 167.578 193.116 167.033 193.116Z" fill="#0F172A" stroke="#263238" stroke-width="1.05542" stroke-linejoin="round"/>
<path d="M177.58 193.596H160.596L162.558 195.637H175.617L177.58 193.596Z" fill="white" stroke="#263238" stroke-width="1.05542" stroke-linejoin="round"/>
<path d="M195.919 120.19C195.919 120.19 196.095 118.039 193.328 114.774C190.56 111.509 188.76 109.63 188.76 109.63C188.76 109.63 186.846 114.47 189.398 117.704C191.284 120 193.359 122.133 195.602 124.08L195.919 120.19Z" fill="#0F172A"/>
<path d="M190.437 133.28C190.437 133.28 190.613 131.129 187.85 127.864C185.087 124.599 183.283 122.72 183.283 122.72C183.283 122.72 181.369 127.56 183.921 130.794C185.805 133.085 187.879 135.214 190.12 137.157L190.437 133.28Z" fill="#0F172A"/>
<path d="M195.426 123.847C195.426 123.847 195.831 121.722 199.386 119.315C202.941 116.908 205.159 115.575 205.159 115.575C205.159 115.575 205.713 120.74 202.391 123.187C199.963 124.891 197.396 126.389 194.718 127.666L195.426 123.847Z" fill="#0F172A"/>
<path d="M188.835 139.295C188.835 139.295 189.46 137.227 193.235 135.203C197.011 133.179 199.369 132.088 199.369 132.088C199.369 132.088 199.369 137.284 195.814 139.37C193.221 140.808 190.513 142.028 187.718 143.018L188.835 139.295Z" fill="#0F172A"/>
<path d="M188.404 156.693C188.404 156.693 188.58 154.541 191.845 151.774C195.109 149.006 197.186 147.444 197.186 147.444C197.186 147.444 198.286 152.522 195.241 155.307C193.008 157.264 190.615 159.03 188.087 160.587L188.404 156.693Z" fill="#0F172A"/>
<path d="M188.008 160.917C188.008 160.917 188.488 158.809 186.213 155.197C183.938 151.584 182.429 149.455 182.429 149.455C182.429 149.455 179.846 153.965 181.91 157.538C183.449 160.074 185.199 162.476 187.141 164.718L188.008 160.917Z" fill="#0F172A"/>
<path d="M184.004 173.202C184.004 173.202 184.18 171.046 187.445 168.278C190.709 165.51 192.786 163.948 192.786 163.948C192.786 163.948 193.886 169.026 190.837 171.811C188.604 173.769 186.211 175.535 183.683 177.091L184.004 173.202Z" fill="#0F172A"/>
<path d="M185.082 184.725C185.082 184.725 184.708 182.596 187.163 179.093C189.618 175.591 191.238 173.549 191.238 173.549C191.238 173.549 193.587 178.182 191.343 181.65C189.677 184.103 187.808 186.412 185.755 188.553L185.082 184.725Z" fill="#0F172A"/>
<path d="M196.24 119.68C195.902 121.903 195.444 124.106 194.867 126.28C193.169 132.343 189.86 136.07 188.21 141.535C186.56 147 189.394 154.444 187.889 161.511C186.384 168.577 183.278 172.326 183.683 177.157C184.087 181.988 187.203 195.246 187.203 195.246" stroke="#263238" stroke-width="0.527711" stroke-linecap="round" stroke-linejoin="round"/>
<path d="M195.281 125.272L198.735 123.046" stroke="#263238" stroke-width="0.527711" stroke-linecap="round" stroke-linejoin="round"/>
<path d="M195.668 122.417L194.507 119.887" stroke="#263238" stroke-width="0.527711" stroke-linecap="round" stroke-linejoin="round"/>
<path d="M188.408 141.293C188.408 141.293 191.299 139.476 194.26 137.667" stroke="#263238" stroke-width="0.527711" stroke-linecap="round" stroke-linejoin="round"/>
<path d="M190.12 137.157C190.12 137.157 188.219 132.528 185.892 129.369" stroke="#263238" stroke-width="0.527711" stroke-linecap="round" stroke-linejoin="round"/>
<path d="M188.259 159.768C190.048 157.035 192.223 154.574 194.718 152.464" stroke="#263238" stroke-width="0.527711" stroke-linecap="round" stroke-linejoin="round"/>
<path d="M187.48 162.747C186.815 160.737 185.983 158.785 184.994 156.913C183.599 154.44 183.396 154.119 183.396 154.119" stroke="#263238" stroke-width="0.527711" stroke-linecap="round" stroke-linejoin="round"/>
<path d="M183.679 177.157C184.508 175.503 185.463 173.914 186.534 172.405C187.598 171.012 188.775 169.709 190.054 168.511" stroke="#263238" stroke-width="0.527711" stroke-linecap="round" stroke-linejoin="round"/>
<path d="M185.755 188.553C185.732 186.908 186.148 185.285 186.96 183.854C188.28 181.755 189.798 178.988 190.419 177.896" stroke="#263238" stroke-width="0.527711" stroke-linecap="round" stroke-linejoin="round"/>
<path d="M173.801 147.338C173.801 147.338 173.678 145.97 175.424 143.88C177.171 141.79 178.302 140.584 178.302 140.584C178.302 140.584 179.547 143.664 177.937 145.728C176.747 147.194 175.437 148.558 174.021 149.807L173.801 147.338Z" fill="#0F172A"/>
<path d="M177.36 155.646C177.36 155.646 177.237 154.273 178.984 152.187C180.731 150.102 181.861 148.892 181.861 148.892C181.861 148.892 183.102 151.972 181.496 154.031C180.307 155.497 178.997 156.861 177.58 158.11L177.36 155.646Z" fill="#0F172A"/>
<path d="M174.14 149.662C174.14 149.662 173.871 148.311 171.61 146.797C169.348 145.284 167.922 144.443 167.922 144.443C167.922 144.443 167.588 147.734 169.718 149.283C171.27 150.356 172.91 151.298 174.619 152.099L174.14 149.662Z" fill="#0F172A"/>
<path d="M178.407 159.465C178.407 159.465 177.998 158.145 175.591 156.882C173.184 155.619 171.675 154.924 171.675 154.924C171.675 154.924 171.675 158.233 173.967 159.544C175.625 160.447 177.354 161.21 179.137 161.828L178.407 159.465Z" fill="#0F172A"/>
<path d="M178.759 170.535C178.759 170.535 178.636 169.162 176.559 167.42C174.483 165.678 173.136 164.688 173.136 164.688C173.136 164.688 172.459 167.922 174.412 169.682C175.843 170.914 177.375 172.024 178.993 172.999L178.759 170.535Z" fill="#0F172A"/>
<path d="M179.032 173.219C179.032 173.219 178.715 171.899 180.149 169.567C181.584 167.235 182.53 165.893 182.53 165.893C182.53 165.893 184.193 168.749 182.899 171.037C181.93 172.657 180.828 174.193 179.604 175.63L179.032 173.219Z" fill="#0F172A"/>
<path d="M181.922 184.426C181.922 184.426 182.191 183.075 184.452 181.562C186.714 180.048 188.144 179.212 188.144 179.212C188.144 179.212 188.474 182.503 186.344 184.052C184.791 185.124 183.15 186.063 181.438 186.859L181.922 184.426Z" fill="#0F172A"/>
<path d="M181.636 181.02C181.636 181.02 181.513 179.648 179.436 177.901C177.359 176.154 176.013 175.173 176.013 175.173C176.013 175.173 175.335 178.407 177.289 180.167C178.72 181.397 180.251 182.507 181.865 183.484L181.636 181.02Z" fill="#0F172A"/>
<path d="M181.003 188.355C181.003 188.355 181.232 187 179.652 184.782C178.072 182.565 177.038 181.262 177.038 181.262C177.038 181.262 175.56 184.219 177.008 186.415C178.079 187.969 179.279 189.43 180.594 190.784L181.003 188.355Z" fill="#0F172A"/>
<path d="M173.603 147.004C173.829 148.421 174.132 149.825 174.509 151.21C175.618 155.06 177.739 157.414 178.817 160.89C179.895 164.366 178.121 169.11 179.111 173.602C180.101 178.094 182.099 180.462 181.861 183.542C181.624 186.622 179.714 195.065 179.714 195.065" stroke="#263238" stroke-width="0.527711" stroke-linecap="round" stroke-linejoin="round"/>
<path d="M174.24 150.572L172.031 149.169" stroke="#263238" stroke-width="0.527711" stroke-linecap="round" stroke-linejoin="round"/>
<path d="M173.98 148.751L174.706 147.136" stroke="#263238" stroke-width="0.527711" stroke-linecap="round" stroke-linejoin="round"/>
<path d="M178.684 160.732C178.684 160.732 176.841 159.592 174.944 158.453" stroke="#263238" stroke-width="0.527711" stroke-linecap="round" stroke-linejoin="round"/>
<path d="M177.58 158.11C178.288 156.365 179.173 154.698 180.22 153.133" stroke="#263238" stroke-width="0.527711" stroke-linecap="round" stroke-linejoin="round"/>
<path d="M178.869 172.48C177.717 170.749 176.321 169.192 174.725 167.86" stroke="#263238" stroke-width="0.527711" stroke-linecap="round" stroke-linejoin="round"/>
<path d="M179.375 174.381C179.791 173.099 180.312 171.854 180.933 170.658C181.813 169.074 181.936 168.872 181.936 168.872" stroke="#263238" stroke-width="0.527711" stroke-linecap="round" stroke-linejoin="round"/>
<path d="M181.566 185.86C182.392 184.992 183.293 184.198 184.259 183.489C184.869 183.112 185.447 182.687 185.988 182.217" stroke="#263238" stroke-width="0.527711" stroke-linecap="round" stroke-linejoin="round"/>
<path d="M181.862 183.537C181.327 182.487 180.712 181.479 180.022 180.523C179.34 179.643 178.587 178.82 177.77 178.064" stroke="#263238" stroke-width="0.527711" stroke-linecap="round" stroke-linejoin="round"/>
<path d="M180.594 190.797C180.601 189.748 180.328 188.717 179.802 187.81C178.957 186.49 177.976 184.73 177.575 184.039" stroke="#263238" stroke-width="0.527711" stroke-linecap="round" stroke-linejoin="round"/>
<path d="M45.3688 120.19C45.3688 120.19 45.5448 118.039 42.7772 114.774C40.0096 111.509 38.2144 109.63 38.2144 109.63C38.2144 109.63 36.3004 114.47 38.848 117.704C40.7319 120 42.8058 122.133 45.0476 124.08L45.3688 120.19Z" fill="#0F172A"/>
<path d="M39.8864 133.28C39.8864 133.28 40.0624 131.129 37.2948 127.864C34.5272 124.599 32.732 122.72 32.732 122.72C32.732 122.72 30.818 127.56 33.37 130.794C35.2522 133.086 37.3247 135.214 39.5652 137.157L39.8864 133.28Z" fill="#0F172A"/>
<path d="M44.8803 123.847C44.8803 123.847 45.2851 121.722 48.8403 119.315C52.3955 116.908 54.6087 115.575 54.6087 115.575C54.6087 115.575 55.1675 120.74 51.8411 123.187C49.4137 124.891 46.8484 126.389 44.1719 127.666L44.8803 123.847Z" fill="#0F172A"/>
<path d="M38.2802 139.295C38.2802 139.295 38.9006 137.227 42.6802 135.203C46.4598 133.179 48.8138 132.088 48.8138 132.088C48.8138 132.088 48.8138 137.284 45.263 139.37C42.6669 140.803 39.9559 142.017 37.1582 143L38.2802 139.295Z" fill="#0F172A"/>
<path d="M37.8407 156.693C37.8407 156.693 38.0167 154.541 41.2771 151.774C44.5375 149.006 46.6407 147.444 46.6407 147.444C46.6407 147.444 47.7407 152.522 44.6915 155.307C42.4596 157.265 40.0663 159.031 37.5371 160.587L37.8407 156.693Z" fill="#0F172A"/>
<path d="M37.4536 160.917C37.4536 160.917 37.9376 158.809 35.6584 155.197C33.3792 151.584 31.8744 149.455 31.8744 149.455C31.8744 149.455 29.2916 153.956 31.3552 157.52C32.8962 160.055 34.6462 162.457 36.5868 164.701L37.4536 160.917Z" fill="#0F172A"/>
<path d="M33.4408 173.202C33.4408 173.202 33.6212 171.046 36.8816 168.278C40.142 165.51 42.2408 163.948 42.2408 163.948C42.2408 163.948 43.3408 169.026 40.296 171.811C38.0625 173.767 35.6694 175.534 33.1416 177.091L33.4408 173.202Z" fill="#0F172A"/>
<path d="M34.5317 184.725C34.5317 184.725 34.1533 182.6 36.6129 179.08C39.0725 175.56 40.6829 173.536 40.6829 173.536C40.6829 173.536 43.0325 178.169 40.7885 181.636C39.1237 184.095 37.2544 186.409 35.2005 188.553L34.5317 184.725Z" fill="#0F172A"/>
<path d="M45.6852 119.68C45.3482 121.904 44.8884 124.107 44.308 126.28C42.6096 132.343 39.3052 136.07 37.6552 141.535C36.0052 147 38.8388 154.444 37.334 161.511C35.8292 168.577 32.7228 172.326 33.1232 177.157C33.5236 181.988 36.6432 195.246 36.6432 195.246" stroke="#263238" stroke-width="0.527711" stroke-linecap="round" stroke-linejoin="round"/>
<path d="M44.7266 125.272L48.1806 123.046" stroke="#263238" stroke-width="0.527711" stroke-linecap="round" stroke-linejoin="round"/>
<path d="M45.1137 122.417L43.9521 119.887" stroke="#263238" stroke-width="0.527711" stroke-linecap="round" stroke-linejoin="round"/>
<path d="M37.8408 141.293C37.8408 141.293 40.7272 139.476 43.6928 137.667" stroke="#263238" stroke-width="0.527711" stroke-linecap="round" stroke-linejoin="round"/>
<path d="M39.5653 137.157C39.5653 137.157 37.6645 132.528 35.3369 129.36" stroke="#263238" stroke-width="0.527711" stroke-linecap="round" stroke-linejoin="round"/>
<path d="M37.708 159.768C39.4946 157.034 41.6689 154.574 44.1628 152.464" stroke="#263238" stroke-width="0.527711" stroke-linecap="round" stroke-linejoin="round"/>
<path d="M36.9299 162.747C36.2629 160.737 35.4314 158.786 34.4439 156.913C33.0491 154.44 32.8467 154.119 32.8467 154.119" stroke="#263238" stroke-width="0.527711" stroke-linecap="round" stroke-linejoin="round"/>
<path d="M33.124 177.157C33.9559 175.503 34.912 173.915 35.984 172.405C37.0473 171.012 38.2247 169.709 39.504 168.511" stroke="#263238" stroke-width="0.527711" stroke-linecap="round" stroke-linejoin="round"/>
<path d="M35.2003 188.553C35.175 186.907 35.5913 185.285 36.4059 183.854C37.7259 181.755 39.2395 178.988 39.8643 177.896" stroke="#263238" stroke-width="0.527711" stroke-linecap="round" stroke-linejoin="round"/>
<path d="M23.2546 147.338C23.2546 147.338 23.1358 145.97 24.8782 143.88C26.6206 141.79 27.7602 140.584 27.7602 140.584C27.7602 140.584 29.001 143.664 27.3906 145.728C26.2032 147.195 24.8947 148.559 23.479 149.807L23.2546 147.338Z" fill="#0F172A"/>
<path d="M26.8056 155.646C26.8056 155.646 26.6824 154.273 28.4292 152.187C30.176 150.102 31.3112 148.892 31.3112 148.892C31.3112 148.892 32.552 151.972 30.9416 154.031C29.7519 155.497 28.442 156.861 27.0256 158.11L26.8056 155.646Z" fill="#0F172A"/>
<path d="M23.5844 149.662C23.5844 149.662 23.3204 148.311 21.0588 146.797C18.7972 145.284 17.3672 144.443 17.3672 144.443C17.3672 144.443 17.0372 147.734 19.1624 149.283C20.7157 150.355 22.3552 151.297 24.064 152.099L23.5844 149.662Z" fill="#0F172A"/>
<path d="M27.8521 159.465C27.8521 159.465 27.4473 158.145 25.0361 156.882C22.6249 155.619 21.1201 154.924 21.1201 154.924C21.1201 154.924 21.1201 158.233 23.4125 159.544C25.0754 160.448 26.8106 161.211 28.6001 161.828L27.8521 159.465Z" fill="#0F172A"/>
<path d="M28.209 170.535C28.209 170.535 28.0858 169.162 26.009 167.42C23.9322 165.678 22.5902 164.688 22.5902 164.688C22.5902 164.688 21.9126 167.922 23.8662 169.682C25.2952 170.915 26.826 172.024 28.4422 172.999L28.209 170.535Z" fill="#0F172A"/>
<path d="M28.482 173.219C28.482 173.219 28.1652 171.899 29.5952 169.567C31.0252 167.235 31.98 165.88 31.98 165.88C31.98 165.88 33.6432 168.736 32.3452 171.024C31.374 172.649 30.2687 174.19 29.0408 175.63L28.482 173.219Z" fill="#0F172A"/>
<path d="M31.3678 184.426C31.3678 184.426 31.6362 183.075 33.9022 181.562C36.1682 180.048 37.5938 179.212 37.5938 179.212C37.5938 179.212 37.9194 182.503 35.7898 184.052C34.2361 185.124 32.595 186.063 30.8838 186.859L31.3678 184.426Z" fill="#0F172A"/>
<path d="M31.086 181.02C31.086 181.02 30.9628 179.648 28.886 177.901C26.8092 176.154 25.4672 175.173 25.4672 175.173C25.4672 175.173 24.7896 178.407 26.7432 180.167C28.1694 181.396 29.6956 182.504 31.306 183.48L31.086 181.02Z" fill="#0F172A"/>
<path d="M30.453 188.355C30.453 188.355 30.6818 187 29.1022 184.782C27.5226 182.565 26.4622 181.262 26.4622 181.262C26.4622 181.262 24.9882 184.219 26.4314 186.415C27.5028 187.969 28.7023 189.43 30.0174 190.784L30.453 188.355Z" fill="#0F172A"/>
<path d="M23.0518 147.004C23.2764 148.422 23.579 149.826 23.9582 151.21C25.067 155.06 27.1878 157.414 28.2614 160.89C29.335 164.366 27.5706 169.11 28.5606 173.602C29.5506 178.094 31.5438 180.462 31.3106 183.542C31.0774 186.622 29.159 195.065 29.159 195.065" stroke="#263238" stroke-width="0.527711" stroke-linecap="round" stroke-linejoin="round"/>
<path d="M23.6854 150.572L21.4766 149.169" stroke="#263238" stroke-width="0.527711" stroke-linecap="round" stroke-linejoin="round"/>
<path d="M23.4258 148.751L24.1518 147.136" stroke="#263238" stroke-width="0.527711" stroke-linecap="round" stroke-linejoin="round"/>
<path d="M28.1336 160.732C28.1336 160.732 26.2856 159.592 24.3936 158.453" stroke="#263238" stroke-width="0.527711" stroke-linecap="round" stroke-linejoin="round"/>
<path d="M27.0254 158.11C27.7328 156.365 28.6174 154.697 29.6654 153.133" stroke="#263238" stroke-width="0.527711" stroke-linecap="round" stroke-linejoin="round"/>
<path d="M28.3147 172.48C27.1627 170.749 25.7667 169.192 24.1699 167.86" stroke="#263238" stroke-width="0.527711" stroke-linecap="round" stroke-linejoin="round"/>
<path d="M28.8252 174.381C29.2326 173.099 29.7463 171.854 30.3608 170.658C31.2408 169.074 31.364 168.872 31.364 168.872" stroke="#263238" stroke-width="0.527711" stroke-linecap="round" stroke-linejoin="round"/>
<path d="M31.0156 185.86C31.8396 184.987 32.7408 184.191 33.7084 183.48C34.3164 183.103 34.8932 182.678 35.4332 182.208" stroke="#263238" stroke-width="0.527711" stroke-linecap="round" stroke-linejoin="round"/>
<path d="M31.3112 183.537C30.7795 182.487 30.1676 181.479 29.4808 180.523C28.798 179.642 28.043 178.819 27.2236 178.064" stroke="#263238" stroke-width="0.527711" stroke-linecap="round" stroke-linejoin="round"/>
<path d="M30.0394 190.797C30.0475 189.749 29.7756 188.718 29.2518 187.81C28.407 186.49 27.4258 184.73 27.0254 184.039" stroke="#263238" stroke-width="0.527711" stroke-linecap="round" stroke-linejoin="round"/>
<path d="M178.002 46.1604H38.7682C37.6406 46.1604 36.7266 47.0745 36.7266 48.202V154.783C36.7266 155.911 37.6406 156.825 38.7682 156.825H178.002C179.129 156.825 180.043 155.911 180.043 154.783V48.202C180.043 47.0745 179.129 46.1604 178.002 46.1604Z" fill="#CCCCCC"/>
<path d="M176.571 54.538H40.1934V142.375H176.571V54.538Z" fill="white"/>
<path d="M75.4462 54.538H40.1934V142.375H75.4462V54.538Z" fill="#263238"/>
<g opacity="0.2">
<path d="M49.7685 116.701V77.6556L75.4425 85.7604V69.6344H53.4821C52.6886 69.6344 51.9029 69.7908 51.1699 70.0948C50.4369 70.3987 49.771 70.8442 49.2103 71.4057C48.6497 71.9672 48.2052 72.6337 47.9023 73.3671C47.5995 74.1005 47.4442 74.8865 47.4453 75.68V120.252L75.4425 131.12V126.953L49.7685 116.701Z" fill="white"/>
<path d="M75.4422 124.969V87.7096L51.625 80.19V115.443L75.4422 124.969Z" fill="white"/>
<path d="M75.4424 136.11L49.742 125.677C49.4566 125.561 49.1366 125.562 48.8524 125.681C48.5681 125.8 48.3428 126.028 48.2262 126.313C48.1095 126.598 48.1109 126.918 48.2301 127.203C48.3494 127.487 48.5766 127.712 48.862 127.829L75.4424 138.6V136.11Z" fill="white"/>
</g>
<path d="M143.308 145.556H124.696C124.091 145.556 123.601 146.047 123.601 146.652V151.395C123.601 152 124.091 152.491 124.696 152.491H143.308C143.913 152.491 144.404 152 144.404 151.395V146.652C144.404 146.047 143.913 145.556 143.308 145.556Z" fill="#A3A3A3" stroke="#0F172A" stroke-width="1.05542" stroke-miterlimit="10"/>
<path d="M129.799 150.775C129.781 150.758 129.767 150.737 129.758 150.715C129.749 150.692 129.745 150.667 129.747 150.643V148.148C129.743 148.077 129.766 148.008 129.813 147.954C129.834 147.931 129.859 147.913 129.888 147.901C129.917 147.889 129.948 147.883 129.98 147.884C130.032 147.885 130.083 147.899 130.129 147.924C130.183 147.952 130.229 147.995 130.261 148.047L131.762 150.247V148.082C131.76 148.057 131.764 148.033 131.773 148.01C131.783 147.987 131.797 147.967 131.815 147.95C131.853 147.919 131.901 147.901 131.951 147.901C132.001 147.901 132.049 147.919 132.087 147.95C132.106 147.966 132.121 147.987 132.131 148.01C132.141 148.032 132.145 148.057 132.145 148.082V150.577C132.146 150.612 132.14 150.648 132.127 150.681C132.114 150.715 132.095 150.745 132.07 150.77C132.046 150.794 132.018 150.812 131.987 150.824C131.956 150.836 131.923 150.842 131.889 150.841C131.841 150.841 131.793 150.83 131.749 150.81C131.704 150.785 131.665 150.75 131.634 150.709L130.129 148.509V150.643C130.131 150.668 130.127 150.693 130.117 150.716C130.107 150.739 130.092 150.759 130.072 150.775C130.034 150.806 129.985 150.823 129.936 150.823C129.886 150.823 129.838 150.806 129.799 150.775Z" fill="#263238"/>
<path d="M133.166 150.735C133.011 150.649 132.884 150.521 132.8 150.366C132.709 150.189 132.663 149.992 132.668 149.794C132.666 149.614 132.703 149.437 132.778 149.274C132.857 149.118 132.975 148.984 133.122 148.887C133.281 148.787 133.466 148.735 133.654 148.738C133.805 148.733 133.955 148.762 134.094 148.821C134.208 148.868 134.308 148.944 134.384 149.041C134.456 149.136 134.51 149.244 134.543 149.358C134.58 149.481 134.601 149.608 134.604 149.736C134.605 149.773 134.592 149.809 134.569 149.838C134.557 149.851 134.542 149.862 134.525 149.869C134.509 149.875 134.49 149.878 134.472 149.877H133.06C133.05 150.074 133.118 150.267 133.249 150.414C133.378 150.535 133.548 150.601 133.724 150.599C133.838 150.601 133.95 150.578 134.054 150.533C134.159 150.483 134.257 150.423 134.349 150.352C134.372 150.335 134.4 150.325 134.428 150.326C134.46 150.327 134.489 150.34 134.512 150.361C134.533 150.387 134.544 150.42 134.543 150.454C134.543 150.476 134.538 150.498 134.528 150.518C134.518 150.538 134.503 150.555 134.486 150.568C134.271 150.765 133.989 150.87 133.698 150.863C133.512 150.867 133.329 150.823 133.166 150.735ZM134.261 149.648C134.257 149.478 134.2 149.314 134.098 149.178C134.046 149.113 133.978 149.062 133.901 149.03C133.825 148.998 133.741 148.985 133.658 148.993C133.568 148.99 133.479 149.01 133.399 149.05C133.322 149.082 133.255 149.134 133.205 149.2C133.154 149.261 133.114 149.331 133.086 149.406C133.055 149.484 133.036 149.565 133.029 149.648H134.261Z" fill="#263238"/>
<path d="M136.373 150.748L135.788 150.04L135.203 150.775C135.189 150.795 135.17 150.811 135.149 150.823C135.127 150.834 135.104 150.84 135.079 150.841C135.057 150.842 135.034 150.838 135.013 150.83C134.991 150.821 134.972 150.809 134.956 150.792C134.94 150.778 134.926 150.761 134.917 150.741C134.908 150.721 134.903 150.7 134.903 150.678C134.905 150.646 134.915 150.616 134.934 150.59L135.585 149.794L135.005 149.072C134.992 149.059 134.982 149.044 134.975 149.028C134.968 149.011 134.965 148.993 134.965 148.975C134.965 148.951 134.97 148.927 134.98 148.905C134.99 148.883 135.004 148.864 135.022 148.848C135.041 148.829 135.063 148.814 135.088 148.805C135.112 148.796 135.139 148.793 135.165 148.796C135.191 148.798 135.216 148.806 135.239 148.82C135.261 148.834 135.28 148.852 135.295 148.874L135.827 149.534L136.36 148.865C136.375 148.844 136.394 148.827 136.417 148.814C136.44 148.802 136.466 148.795 136.492 148.795C136.513 148.795 136.534 148.799 136.554 148.807C136.574 148.816 136.591 148.828 136.606 148.843C136.622 148.857 136.636 148.873 136.645 148.892C136.654 148.911 136.659 148.932 136.659 148.953C136.657 148.987 136.645 149.019 136.624 149.046L136.03 149.785L136.663 150.568C136.688 150.596 136.702 150.632 136.703 150.669C136.702 150.692 136.697 150.714 136.687 150.735C136.677 150.755 136.663 150.773 136.646 150.788C136.629 150.805 136.609 150.818 136.587 150.827C136.565 150.837 136.542 150.841 136.518 150.841C136.488 150.841 136.458 150.832 136.432 150.815C136.407 150.799 136.386 150.776 136.373 150.748Z" fill="#263238"/>
<path d="M137.478 150.7C137.376 150.565 137.327 150.398 137.342 150.229V149.041H137.087C137.05 149.045 137.014 149.033 136.985 149.01C136.963 148.987 136.95 148.955 136.95 148.922C136.95 148.89 136.963 148.858 136.985 148.834C137.013 148.81 137.05 148.797 137.087 148.799H137.342L137.39 148.214C137.391 148.192 137.397 148.17 137.407 148.151C137.417 148.131 137.43 148.114 137.447 148.1C137.48 148.07 137.522 148.055 137.566 148.056C137.585 148.054 137.604 148.056 137.623 148.062C137.641 148.068 137.658 148.078 137.672 148.091C137.686 148.105 137.696 148.123 137.703 148.142C137.71 148.161 137.713 148.181 137.711 148.201V148.799H138.09C138.108 148.798 138.127 148.8 138.144 148.806C138.162 148.812 138.178 148.822 138.191 148.834C138.204 148.846 138.213 148.86 138.22 148.876C138.226 148.892 138.228 148.91 138.226 148.927C138.226 149.002 138.182 149.041 138.09 149.041H137.72V150.163C137.713 150.27 137.734 150.376 137.782 150.471C137.802 150.502 137.83 150.527 137.864 150.543C137.897 150.56 137.934 150.567 137.971 150.564H138.147C138.166 150.563 138.186 150.566 138.204 150.572C138.222 150.579 138.239 150.59 138.253 150.603C138.272 150.63 138.282 150.662 138.282 150.696C138.282 150.729 138.272 150.761 138.253 150.788C138.235 150.811 138.21 150.828 138.182 150.836H138.09H137.848C137.78 150.84 137.712 150.83 137.649 150.806C137.585 150.783 137.527 150.747 137.478 150.7Z" fill="#263238"/>
<path d="M170.852 145.556H152.24C151.635 145.556 151.145 146.047 151.145 146.652V151.395C151.145 152 151.635 152.491 152.24 152.491H170.852C171.457 152.491 171.948 152 171.948 151.395V146.652C171.948 146.047 171.457 145.556 170.852 145.556Z" fill="#A3A3A3"/>
<path d="M156.358 150.713C156.155 150.58 155.992 150.392 155.888 150.172C155.782 149.931 155.73 149.67 155.734 149.406C155.732 149.204 155.764 149.003 155.83 148.812C155.889 148.636 155.98 148.471 156.099 148.328C156.22 148.189 156.37 148.078 156.539 148.003C156.725 147.922 156.926 147.882 157.128 147.884C157.388 147.881 157.645 147.947 157.872 148.073C157.9 148.086 157.923 148.106 157.94 148.132C157.956 148.158 157.965 148.188 157.964 148.218C157.964 148.261 157.946 148.302 157.916 148.333C157.903 148.348 157.887 148.36 157.868 148.368C157.85 148.377 157.83 148.381 157.81 148.381C157.787 148.387 157.763 148.387 157.74 148.381L157.692 148.355L157.621 148.324L157.52 148.28L157.414 148.249L157.287 148.227H157.124C157.001 148.224 156.878 148.245 156.763 148.289C156.662 148.325 156.569 148.382 156.49 148.456C156.415 148.533 156.352 148.62 156.301 148.716C156.251 148.819 156.214 148.928 156.191 149.041C156.144 149.285 156.144 149.536 156.191 149.78C156.214 149.892 156.251 150 156.301 150.102C156.349 150.197 156.413 150.283 156.49 150.357C156.57 150.432 156.664 150.491 156.768 150.528C156.886 150.57 157.011 150.591 157.137 150.59C157.246 150.591 157.355 150.575 157.458 150.542C157.562 150.503 157.662 150.456 157.758 150.401C157.782 150.387 157.809 150.38 157.837 150.379C157.857 150.379 157.878 150.383 157.897 150.391C157.916 150.4 157.933 150.412 157.947 150.427C157.961 150.441 157.973 150.459 157.981 150.478C157.988 150.496 157.992 150.517 157.991 150.537C157.989 150.571 157.979 150.603 157.961 150.632C157.944 150.66 157.919 150.684 157.89 150.7C157.647 150.851 157.366 150.928 157.08 150.92C156.825 150.921 156.575 150.849 156.358 150.713Z" fill="#263238"/>
<path d="M158.611 150.753C158.545 150.701 158.491 150.634 158.456 150.558C158.421 150.481 158.405 150.397 158.409 150.313C158.409 150.243 158.416 150.174 158.431 150.106C158.446 150.051 158.47 149.999 158.501 149.952C158.535 149.905 158.579 149.866 158.629 149.838C158.687 149.805 158.749 149.78 158.814 149.763C158.895 149.738 158.979 149.722 159.064 149.714C159.166 149.714 159.267 149.714 159.377 149.714H159.768V149.49C159.772 149.431 159.763 149.371 159.742 149.315C159.722 149.259 159.69 149.208 159.65 149.164C159.558 149.09 159.442 149.052 159.324 149.059C159.24 149.059 159.156 149.067 159.073 149.085C159.005 149.096 158.939 149.115 158.875 149.142L158.695 149.213C158.679 149.217 158.662 149.217 158.646 149.213C158.629 149.212 158.612 149.208 158.596 149.2C158.58 149.193 158.566 149.182 158.554 149.169C158.528 149.141 158.514 149.105 158.514 149.068C158.514 149.048 158.519 149.029 158.53 149.013C158.54 148.997 158.554 148.984 158.572 148.975C158.806 148.851 159.068 148.789 159.333 148.795C159.544 148.781 159.753 148.843 159.922 148.971C159.997 149.039 160.055 149.123 160.091 149.217C160.128 149.311 160.142 149.412 160.134 149.512V150.709C160.135 150.733 160.131 150.757 160.122 150.779C160.113 150.801 160.099 150.82 160.081 150.836C160.044 150.866 159.998 150.882 159.951 150.882C159.904 150.882 159.858 150.866 159.821 150.836C159.803 150.82 159.789 150.801 159.78 150.779C159.771 150.757 159.767 150.733 159.768 150.709V150.511C159.717 150.635 159.629 150.741 159.515 150.813C159.402 150.885 159.269 150.921 159.135 150.916C158.947 150.921 158.763 150.864 158.611 150.753ZM159.588 150.462C159.71 150.326 159.774 150.148 159.768 149.965V149.904C159.597 149.904 159.456 149.904 159.35 149.904C159.256 149.908 159.162 149.918 159.069 149.934C159.002 149.945 158.937 149.969 158.88 150.005C158.841 150.034 158.81 150.074 158.792 150.119C158.769 150.172 158.758 150.229 158.761 150.286C158.756 150.338 158.764 150.39 158.783 150.438C158.802 150.486 158.832 150.529 158.871 150.564C158.96 150.626 159.066 150.657 159.174 150.652C159.252 150.654 159.328 150.64 159.4 150.611C159.471 150.581 159.535 150.536 159.588 150.48V150.462Z" fill="#263238"/>
<path d="M160.794 150.823C160.775 150.807 160.76 150.786 160.75 150.764C160.74 150.741 160.736 150.716 160.736 150.691V148.997C160.736 148.973 160.741 148.949 160.751 148.927C160.761 148.905 160.775 148.885 160.794 148.87C160.831 148.84 160.878 148.825 160.926 148.826C160.974 148.824 161.02 148.839 161.058 148.87C161.075 148.885 161.089 148.904 161.099 148.925C161.108 148.946 161.112 148.97 161.11 148.993V149.16C161.159 149.036 161.249 148.934 161.366 148.87C161.494 148.801 161.638 148.766 161.784 148.768C161.882 148.764 161.981 148.779 162.074 148.813C162.167 148.847 162.252 148.899 162.325 148.966C162.397 149.048 162.452 149.142 162.486 149.245C162.521 149.348 162.535 149.457 162.527 149.565V150.678C162.529 150.703 162.525 150.728 162.515 150.751C162.505 150.774 162.49 150.794 162.47 150.81C162.434 150.84 162.389 150.856 162.342 150.854C162.295 150.856 162.247 150.84 162.21 150.81C162.192 150.794 162.177 150.773 162.167 150.75C162.157 150.728 162.152 150.703 162.153 150.678V149.56C162.163 149.417 162.121 149.275 162.034 149.16C161.99 149.113 161.936 149.077 161.876 149.053C161.816 149.03 161.751 149.019 161.687 149.024C161.612 149.023 161.538 149.037 161.469 149.066C161.4 149.094 161.338 149.137 161.286 149.191C161.179 149.313 161.116 149.468 161.11 149.631V150.66C161.112 150.685 161.107 150.709 161.097 150.731C161.087 150.753 161.072 150.773 161.053 150.788C161.036 150.805 161.015 150.818 160.992 150.826C160.97 150.834 160.945 150.838 160.921 150.836C160.878 150.847 160.833 150.842 160.794 150.823Z" fill="#263238"/>
<path d="M163.24 150.608C163.061 150.395 162.967 150.124 162.976 149.846C162.973 149.66 163.015 149.476 163.099 149.31C163.181 149.15 163.304 149.016 163.456 148.922C163.618 148.827 163.804 148.779 163.993 148.782C164.103 148.782 164.213 148.798 164.318 148.83C164.405 148.856 164.486 148.899 164.556 148.958C164.576 148.97 164.594 148.987 164.606 149.008C164.618 149.029 164.625 149.052 164.626 149.076C164.627 149.09 164.624 149.104 164.619 149.117C164.614 149.13 164.606 149.142 164.595 149.151C164.572 149.172 164.543 149.183 164.512 149.182C164.481 149.182 164.45 149.173 164.424 149.156C164.302 149.074 164.157 149.031 164.01 149.032C163.918 149.03 163.827 149.049 163.744 149.088C163.661 149.127 163.588 149.185 163.531 149.257C163.403 149.428 163.339 149.638 163.35 149.851C163.348 149.95 163.36 150.049 163.385 150.146C163.408 150.236 163.445 150.322 163.495 150.401C163.549 150.48 163.621 150.544 163.706 150.588C163.79 150.631 163.884 150.653 163.979 150.652C164.146 150.658 164.311 150.612 164.45 150.52C164.465 150.506 164.482 150.495 164.501 150.488C164.52 150.481 164.54 150.479 164.56 150.48C164.575 150.479 164.589 150.482 164.603 150.487C164.617 150.492 164.629 150.501 164.639 150.511C164.65 150.521 164.658 150.534 164.663 150.547C164.668 150.561 164.671 150.575 164.67 150.59C164.669 150.614 164.663 150.638 164.652 150.659C164.64 150.681 164.624 150.699 164.604 150.713C164.422 150.845 164.199 150.909 163.975 150.894C163.839 150.904 163.702 150.884 163.575 150.835C163.448 150.785 163.333 150.708 163.24 150.608Z" fill="#263238"/>
<path d="M165.475 150.779C165.321 150.693 165.194 150.565 165.11 150.41C165.018 150.233 164.973 150.036 164.978 149.838C164.975 149.657 165.013 149.478 165.088 149.314C165.164 149.157 165.283 149.024 165.431 148.931C165.59 148.829 165.775 148.777 165.963 148.782C166.114 148.776 166.264 148.803 166.403 148.861C166.517 148.91 166.617 148.987 166.694 149.085C166.765 149.179 166.818 149.285 166.852 149.398C166.889 149.522 166.91 149.651 166.914 149.78C166.914 149.817 166.902 149.853 166.879 149.882C166.867 149.895 166.852 149.906 166.835 149.913C166.818 149.919 166.8 149.922 166.782 149.921H165.352C165.345 150.018 165.359 150.115 165.391 150.207C165.424 150.299 165.475 150.382 165.541 150.454C165.604 150.515 165.678 150.563 165.76 150.596C165.841 150.628 165.929 150.644 166.016 150.643C166.13 150.645 166.242 150.622 166.346 150.577C166.451 150.527 166.549 150.467 166.641 150.396C166.662 150.379 166.689 150.37 166.716 150.37C166.732 150.369 166.747 150.371 166.762 150.377C166.777 150.383 166.789 150.393 166.799 150.405C166.822 150.431 166.835 150.464 166.835 150.498C166.835 150.52 166.829 150.542 166.819 150.561C166.809 150.581 166.795 150.599 166.777 150.612C166.563 150.809 166.281 150.914 165.99 150.907C165.81 150.907 165.634 150.863 165.475 150.779ZM166.571 149.692C166.566 149.521 166.509 149.355 166.408 149.217C166.354 149.154 166.287 149.105 166.21 149.073C166.133 149.042 166.05 149.029 165.968 149.037C165.877 149.036 165.787 149.054 165.704 149.09C165.631 149.126 165.567 149.177 165.515 149.239C165.463 149.302 165.422 149.373 165.396 149.45C165.365 149.528 165.346 149.609 165.339 149.692H166.571Z" fill="#263238"/>
<path d="M167.486 150.819C167.468 150.801 167.454 150.78 167.444 150.756C167.435 150.733 167.431 150.708 167.433 150.682V148.113C167.433 148.087 167.437 148.062 167.447 148.039C167.457 148.015 167.472 147.994 167.49 147.976C167.527 147.946 167.574 147.929 167.622 147.928C167.67 147.928 167.717 147.945 167.754 147.976C167.772 147.994 167.786 148.016 167.795 148.039C167.804 148.063 167.808 148.088 167.807 148.113V150.682C167.808 150.708 167.804 150.733 167.794 150.757C167.784 150.781 167.769 150.802 167.75 150.819C167.713 150.85 167.666 150.867 167.618 150.867C167.594 150.868 167.569 150.865 167.547 150.856C167.524 150.848 167.503 150.835 167.486 150.819Z" fill="#263238"/>
<path d="M144.791 46.1604V51.3612C144.791 51.744 144.943 52.111 145.214 52.3817C145.484 52.6523 145.851 52.8044 146.234 52.8044H175.419C175.802 52.8044 176.169 52.6523 176.44 52.3817C176.711 52.111 176.863 51.744 176.863 51.3612V46.1604H144.791Z" fill="#A3A3A3"/>
<path d="M150.999 46.1604H142.907V51.3612C142.907 51.744 143.059 52.111 143.33 52.3817C143.601 52.6523 143.968 52.8044 144.35 52.8044H150.999V46.1604Z" fill="#A3A3A3"/>
<path d="M160.679 46.1604V52.8H175.419C175.801 52.8 176.169 52.6479 176.439 52.3773C176.71 52.1066 176.862 51.7396 176.862 51.3568V46.1604H160.679Z" fill="#263238"/>
<path d="M160.683 46.1604H150.999V52.8044H160.683V46.1604Z" fill="#787878"/>
<path d="M170.068 50.8024H168.783L166.641 47.5332H167.921L170.068 50.8024Z" fill="white"/>
<path d="M166.641 50.8024H167.921L170.068 47.5332H168.783L166.641 50.8024Z" fill="white"/>
<path d="M149.3 49.5088H144.658V50.7452H149.3V49.5088Z" fill="white"/>
<path d="M153.656 47.7752V50.7496H157.907V47.7752H153.656ZM157.106 49.9048H154.466V48.6156H157.106V49.9048Z" fill="white"/>
<path d="M70.3561 60.346H59.2109V71.1832H70.3561V60.346Z" fill="#0F172A" stroke="white" stroke-width="2.11084" stroke-miterlimit="10"/>
<path d="M130.416 60.654H80.8809V62.8232H130.416V60.654Z" fill="#263238"/>
<path d="M112.152 65.3004H80.8809V67.4696H112.152V65.3004Z" fill="#263238"/>
<path d="M81.8086 76.7536H157.04" stroke="#263238" stroke-width="1.05542" stroke-miterlimit="10"/>
<path d="M81.8086 90.684H157.04" stroke="#263238" stroke-width="1.05542" stroke-miterlimit="10"/>
<path d="M81.8086 94.0896H157.04" stroke="#263238" stroke-width="1.05542" stroke-miterlimit="10"/>
<path d="M81.8086 97.4952H157.04" stroke="#263238" stroke-width="1.05542" stroke-miterlimit="10"/>
<path d="M81.8086 100.901H94.5026" stroke="#263238" stroke-width="1.05542" stroke-miterlimit="10"/>
<path d="M81.8086 79.5388H110.294" stroke="#263238" stroke-width="1.05542" stroke-miterlimit="10"/>
<path d="M81.8086 108.64H110.294" stroke="#263238" stroke-width="1.05542" stroke-miterlimit="10"/>
<path d="M42.3413 51.48C42.3418 51.4168 42.3287 51.3542 42.3029 51.2965C42.2771 51.2388 42.2392 51.1873 42.1917 51.1456C42.0288 51.0313 41.8448 50.9505 41.6505 50.908C41.3428 50.8401 41.0522 50.7098 40.7969 50.5252C40.7014 50.4519 40.6245 50.3571 40.5726 50.2486C40.5206 50.14 40.4949 50.0207 40.4977 49.9004C40.4957 49.772 40.5247 49.645 40.5821 49.5301C40.6395 49.4153 40.7238 49.3159 40.8277 49.2404C41.0746 49.0597 41.3755 48.9682 41.6813 48.9808C42.0011 48.966 42.3149 49.0711 42.5613 49.2756C42.6641 49.3612 42.7461 49.469 42.801 49.591C42.8559 49.713 42.8822 49.8459 42.8781 49.9796H42.3501C42.3526 49.9031 42.3385 49.8269 42.3089 49.7563C42.2793 49.6857 42.2348 49.6223 42.1785 49.5704C42.0403 49.4569 41.8641 49.4003 41.6857 49.412C41.5197 49.4013 41.355 49.4479 41.2193 49.544C41.1696 49.5854 41.1296 49.6372 41.1023 49.6957C41.0749 49.7543 41.0608 49.8182 41.0609 49.8828C41.0613 49.9455 41.0776 50.0071 41.1084 50.0618C41.1392 50.1164 41.1834 50.1624 41.2369 50.1952C41.4153 50.3064 41.6119 50.3853 41.8177 50.4284C42.1143 50.4967 42.3913 50.6322 42.6273 50.8244C42.7174 50.9049 42.7888 51.0041 42.8367 51.115C42.8846 51.226 42.9077 51.346 42.9045 51.4668C42.908 51.5949 42.8797 51.7218 42.8221 51.8362C42.7645 51.9506 42.6794 52.0489 42.5745 52.1224C42.3154 52.297 42.0064 52.382 41.6945 52.3644C41.371 52.3721 41.0535 52.2765 40.7881 52.0916C40.6671 52.0078 40.5691 51.8951 40.503 51.7636C40.4369 51.6322 40.4048 51.4863 40.4097 51.3392H40.9421C40.9376 51.4239 40.9542 51.5084 40.9902 51.5852C41.0263 51.6619 41.0808 51.7286 41.1489 51.7792C41.3089 51.8851 41.4984 51.9375 41.6901 51.9288C41.859 51.9397 42.0269 51.8966 42.1697 51.8056C42.2222 51.769 42.2652 51.7203 42.2951 51.6637C42.3249 51.607 42.3408 51.544 42.3413 51.48Z" fill="#263238"/>
<path d="M44.4399 52.3864C44.285 52.3939 44.1303 52.3675 43.9867 52.309C43.843 52.2504 43.7139 52.1612 43.6083 52.0476C43.3948 51.8054 43.2829 51.4902 43.2959 51.1676V51.0752C43.2882 50.7542 43.3977 50.4413 43.6039 50.1952C43.6977 50.0828 43.8157 49.9932 43.949 49.933C44.0824 49.8728 44.2277 49.8436 44.3739 49.8476C44.5151 49.838 44.6566 49.8598 44.7882 49.9116C44.9198 49.9633 45.0384 50.0437 45.1351 50.1468C45.3203 50.373 45.4144 50.6601 45.3991 50.952V51.2776H43.8855C43.886 51.4524 43.9466 51.6218 44.0571 51.7572C44.1115 51.8196 44.1794 51.8687 44.2557 51.9007C44.332 51.9328 44.4146 51.9469 44.4971 51.942C44.6267 51.9449 44.756 51.9271 44.8799 51.8892C44.9881 51.8479 45.0914 51.7948 45.1879 51.7308L45.3639 52.0916C45.2549 52.1832 45.1295 52.2534 44.9943 52.2984C44.8168 52.3625 44.6286 52.3923 44.4399 52.3864ZM44.3739 50.2832C44.3093 50.2816 44.2451 50.2956 44.1869 50.3239C44.1288 50.3523 44.0782 50.3941 44.0395 50.446C43.948 50.5661 43.8916 50.7093 43.8767 50.8596H44.8799V50.8024C44.886 50.6662 44.8439 50.5323 44.7611 50.424C44.7148 50.3733 44.6572 50.3342 44.5931 50.3097C44.5289 50.2853 44.4599 50.2762 44.3915 50.2832H44.3739Z" fill="#263238"/>
<path d="M46.547 49.28V49.8784H46.987V50.2876H46.547V51.6428C46.5396 51.7206 46.5633 51.7981 46.613 51.8584C46.6357 51.8805 46.6626 51.8977 46.6921 51.909C46.7216 51.9204 46.7531 51.9256 46.7846 51.9244H46.877L46.9562 51.9024L47.0134 52.3072C46.9607 52.3351 46.9045 52.3559 46.8462 52.3688C46.779 52.3757 46.7111 52.3757 46.6438 52.3688C46.5568 52.374 46.4695 52.3611 46.3877 52.3308C46.3059 52.3005 46.2313 52.2535 46.1686 52.1928C46.0411 52.0359 45.9795 51.8355 45.997 51.634V50.2788H45.623V49.8696H45.997V49.28H46.547Z" fill="#263238"/>
<path d="M49.003 51.9816C48.935 52.107 48.8336 52.2111 48.7102 52.2825C48.5867 52.354 48.446 52.3899 48.3034 52.3864C48.1886 52.3927 48.0738 52.3734 47.9673 52.3301C47.8608 52.2867 47.7652 52.2203 47.6874 52.1356C47.5194 51.9107 47.4396 51.6321 47.463 51.3524V49.8872H48.013V51.3568C48.0013 51.5109 48.0383 51.6648 48.1186 51.7968C48.1577 51.8414 48.2067 51.8762 48.2618 51.8984C48.3168 51.9205 48.3763 51.9295 48.4354 51.9244C48.5509 51.9286 48.6657 51.9044 48.7698 51.854C48.8584 51.8066 48.9317 51.7348 48.981 51.6472V49.8872H49.531V52.36H49.0514L49.003 51.9816Z" fill="#263238"/>
<path d="M52.2546 51.194C52.272 51.5071 52.1837 51.8171 52.0038 52.074C51.9225 52.181 51.8162 52.2666 51.6943 52.3234C51.5724 52.3801 51.4385 52.4063 51.3042 52.3996C51.1769 52.4038 51.0503 52.3782 50.9346 52.3248C50.8266 52.2737 50.7317 52.1984 50.6574 52.1048V53.2972H50.1074V49.9004H50.5738L50.6266 50.2084C50.7047 50.0985 50.808 50.0089 50.9278 49.9471C51.0476 49.8853 51.1804 49.853 51.3152 49.853C51.45 49.853 51.5829 49.8853 51.7027 49.9471C51.8225 50.0089 51.9257 50.0985 52.0038 50.2084C52.1826 50.4921 52.2701 50.8238 52.2546 51.1588V51.194ZM51.709 51.1456C51.7182 50.9322 51.6679 50.7205 51.5638 50.534C51.5239 50.4536 51.4604 50.3873 51.3817 50.3441C51.3031 50.3008 51.2131 50.2826 51.1238 50.292C51.0248 50.2883 50.9267 50.3128 50.841 50.3627C50.7553 50.4125 50.6856 50.4857 50.6398 50.5736V51.678C50.6841 51.7611 50.7513 51.8299 50.8334 51.876C50.9234 51.926 51.0254 51.9503 51.1282 51.9464C51.2134 51.9547 51.2992 51.9399 51.3767 51.9035C51.4541 51.8671 51.5203 51.8105 51.5682 51.7396C51.668 51.5756 51.717 51.3858 51.709 51.194V51.1456Z" fill="#263238"/>
<path d="M54.7621 51.48L55.4221 49.0644H55.8621L56.5265 51.4888L57.0501 49.0732H57.5913L56.8169 52.36H56.3197L55.6597 49.9884L54.9997 52.36H54.4981L53.6797 49.038H54.2209L54.7621 51.48Z" fill="#263238"/>
<path d="M58.59 49.28H58.04V48.8004H58.59V49.28ZM58.59 52.338H58.04V49.8828H58.59V52.338Z" fill="#263238"/>
<path d="M59.7914 51.92H61.1114V52.36H59.1182V51.9948L60.3546 50.3448H59.1402V49.9048H61.0498V50.2524L59.7914 51.92Z" fill="#263238"/>
<path d="M63.0338 52.36C63.0338 52.2984 62.9986 52.2368 62.9854 52.1752C62.972 52.1173 62.9631 52.0585 62.959 51.9992C62.8826 52.116 62.7821 52.215 62.6642 52.2896C62.5403 52.3671 62.3966 52.4068 62.2506 52.404C62.0364 52.4184 61.8249 52.349 61.661 52.2104C61.5904 52.1389 61.5356 52.0534 61.5 51.9594C61.4644 51.8655 61.4488 51.7651 61.4542 51.6648C61.4499 51.5561 61.4736 51.448 61.5229 51.351C61.5722 51.2539 61.6454 51.1711 61.7358 51.1104C61.9735 50.9654 62.2498 50.8963 62.5278 50.9124H62.9678V50.6968C62.9714 50.642 62.9635 50.5871 62.9446 50.5355C62.9256 50.484 62.8961 50.437 62.8578 50.3976C62.7669 50.3318 62.6576 50.2963 62.5454 50.2963C62.4332 50.2963 62.3238 50.3318 62.233 50.3976C62.1971 50.4247 62.1684 50.46 62.1492 50.5006C62.1301 50.5413 62.121 50.5859 62.123 50.6308H61.5994C61.5977 50.5304 61.6205 50.4311 61.6657 50.3414C61.711 50.2518 61.7773 50.1744 61.859 50.116C62.066 49.9594 62.3212 49.88 62.5806 49.8916C62.8291 49.8791 63.074 49.9555 63.2714 50.1072C63.3604 50.1841 63.4306 50.2804 63.4763 50.3888C63.5221 50.4971 63.5423 50.6146 63.5354 50.732V51.8232C63.5287 51.9214 63.5287 52.0199 63.5354 52.118C63.549 52.2108 63.5711 52.3021 63.6014 52.3908L63.0338 52.36ZM62.3606 51.964C62.4928 51.9656 62.6227 51.9289 62.7346 51.8584C62.8308 51.804 62.9077 51.7209 62.9546 51.6208V51.26H62.5146C62.3782 51.252 62.2435 51.2943 62.1362 51.3788C62.0948 51.4124 62.0612 51.4546 62.0376 51.5025C62.0141 51.5503 62.0012 51.6027 61.9998 51.656C61.9975 51.6979 62.0046 51.7398 62.0206 51.7787C62.0365 51.8175 62.061 51.8523 62.0922 51.8804C62.1699 51.9359 62.266 51.9595 62.3606 51.9464V51.964Z" fill="#263238"/>
<path d="M65.3091 50.3844H65.0715C64.9777 50.3811 64.8847 50.4039 64.8031 50.4504C64.7309 50.4986 64.6731 50.5655 64.6359 50.644V52.36H64.0859V49.9048H64.5875L64.6271 50.2612C64.6804 50.1446 64.7621 50.0432 64.8647 49.9664C64.9633 49.8956 65.0822 49.8586 65.2035 49.8608H65.2959H65.3751L65.3091 50.3844Z" fill="#263238"/>
<path d="M65.591 51.15C65.5756 50.815 65.6631 50.4833 65.8418 50.1996C65.92 50.085 66.0261 49.9922 66.15 49.9299C66.2739 49.8675 66.4116 49.8377 66.5502 49.8432C66.6736 49.8413 66.7957 49.8685 66.9066 49.9224C67.0136 49.9772 67.1068 50.0554 67.1794 50.1512V48.8048H67.7338V52.3248H67.2718L67.2146 52.0212C67.1432 52.1325 67.0439 52.2232 66.9266 52.2842C66.8092 52.3452 66.678 52.3744 66.5458 52.3688C66.4108 52.3758 66.2762 52.3499 66.1535 52.2931C66.0309 52.2364 65.9239 52.1506 65.8418 52.0432C65.662 51.7863 65.5736 51.4764 65.591 51.1632V51.15ZM66.141 51.194C66.1315 51.3848 66.1773 51.5743 66.273 51.7396C66.3171 51.8074 66.379 51.8618 66.452 51.8967C66.525 51.9317 66.6061 51.9458 66.6866 51.9376C66.7901 51.9424 66.8927 51.9164 66.9814 51.8628C67.0664 51.813 67.1352 51.7396 67.1794 51.6516V50.6C67.1352 50.512 67.0664 50.4386 66.9814 50.3888C66.8945 50.3346 66.7935 50.307 66.691 50.3096C66.6065 50.3053 66.5226 50.3254 66.4492 50.3675C66.3759 50.4096 66.3162 50.472 66.2774 50.5472C66.1802 50.7391 66.1333 50.9526 66.141 51.1676V51.194Z" fill="#263238"/>
<path d="M133.263 147.413C136.217 147.413 138.613 144.669 138.613 141.284C138.613 137.899 136.217 135.155 133.263 135.155C130.308 135.155 127.912 137.899 127.912 141.284C127.912 144.669 130.308 147.413 133.263 147.413Z" fill="#263238" stroke="#263238" stroke-width="1.05542" stroke-linejoin="round"/>
<path d="M107.154 142.472C105.512 142.067 103.94 141.419 102.49 140.549C100.021 139.088 99.929 136.8 100.659 135.062C101.39 133.324 108.342 126.012 115.386 124.454C122.431 122.896 127.733 127.838 130.016 133.509C132.3 139.181 130.566 145.671 129.013 147.589C127.46 149.508 123.522 150.88 121.784 149.6C120.046 148.32 117.212 144.478 113.829 142.925C111.723 142.006 109.364 141.846 107.154 142.472Z" fill="#263238" stroke="#263238" stroke-width="1.05542" stroke-linejoin="round"/>
<path d="M111.034 130.953C111.034 130.953 117.793 138.556 128.779 137.72" stroke="#636363" stroke-width="1.05542" stroke-miterlimit="10"/>
<path d="M112.2 129.263L115.918 126.218C115.918 126.218 125.211 126.39 129.268 135.516" stroke="#636363" stroke-width="1.05542" stroke-miterlimit="10"/>
<path d="M107.145 133.993C107.145 133.993 99.5413 137.372 101.737 138.895C103.933 140.417 105.288 139.234 105.288 139.234" stroke="#636363" stroke-width="1.05542" stroke-miterlimit="10"/>
<path d="M102.749 133.32C102.749 133.32 103.933 131.459 108.328 131.459" stroke="#636363" stroke-width="1.05542" stroke-miterlimit="10"/>
<path d="M108.834 132.81C110.06 134.754 111.667 136.43 113.557 137.737C115.447 139.044 117.582 139.956 119.834 140.417C127.442 141.94 129.976 140.078 129.976 140.078" stroke="#636363" stroke-width="1.05542" stroke-miterlimit="10"/>
<path d="M115.879 170.896C115.808 175.771 111.549 189.446 109.521 195.694H130.905L136.365 159.83L131.243 157.362C131.243 157.362 127.31 155.531 124.643 156.169C121.977 156.807 118.607 158.809 118.607 158.809L115.773 159.817C115.773 159.817 115.967 164.494 115.879 170.896Z" fill="white"/>
<mask id="mask0_460_9941" style="mask-type:luminance" maskUnits="userSpaceOnUse" x="109" y="156" width="28" height="40">
<path d="M115.879 170.896C115.808 175.771 111.549 189.446 109.521 195.694H130.905L136.365 159.83L131.243 157.362C131.243 157.362 127.31 155.531 124.643 156.169C121.977 156.807 118.607 158.809 118.607 158.809L115.773 159.817C115.773 159.817 115.967 164.494 115.879 170.896Z" fill="white"/>
</mask>
<g mask="url(#mask0_460_9941)">
<path opacity="0.2" d="M115.377 195.694C115.817 193.758 116.728 189.798 118.207 183.374C120.437 173.694 120.627 158.462 120.627 158.462C120.464 162.466 114.097 188.536 112.337 195.69L115.377 195.694Z" fill="black"/>
</g>
<path d="M115.879 170.896C115.808 175.771 111.549 189.446 109.521 195.694H130.905L136.365 159.83L131.243 157.362C131.243 157.362 127.31 155.531 124.643 156.169C121.977 156.807 118.607 158.809 118.607 158.809L115.773 159.817C115.773 159.817 115.967 164.494 115.879 170.896Z" stroke="#263238" stroke-width="1.05542" stroke-linejoin="round"/>
<path d="M118.439 154.44C118.439 154.44 120.155 156.314 120.468 157.718C120.78 159.122 119.689 164.591 122.342 165.994C124.995 167.398 127.961 164.745 129.523 161.621C131.085 158.497 130.306 156.64 130.306 156.64C130.306 156.64 126.557 152.891 124.841 150.084C123.763 148.279 122.923 146.341 122.342 144.32C122.342 144.32 121.405 149.472 120.142 151.36C119.47 152.325 118.899 153.357 118.439 154.44Z" fill="white"/>
<mask id="mask1_460_9941" style="mask-type:luminance" maskUnits="userSpaceOnUse" x="118" y="144" width="13" height="23">
<path d="M118.439 154.44C118.439 154.44 120.155 156.314 120.468 157.718C120.78 159.122 119.689 164.591 122.342 165.994C124.995 167.398 127.961 164.745 129.523 161.621C131.085 158.497 130.306 156.64 130.306 156.64C130.306 156.64 126.557 152.891 124.841 150.084C123.763 148.279 122.923 146.341 122.342 144.32C122.342 144.32 121.405 149.472 120.142 151.36C119.47 152.325 118.899 153.357 118.439 154.44Z" fill="white"/>
</mask>
<g mask="url(#mask1_460_9941)">
<path opacity="0.2" d="M119.509 155.122L119.24 155.434C119.645 155.958 119.989 156.527 120.265 157.128C121.474 156.658 122.508 155.827 123.227 154.748C124.142 153.397 124.23 150.757 124.151 148.852C123.939 148.438 123.741 148.034 123.57 147.642C122.826 149.442 121.167 153.186 119.509 155.122Z" fill="black"/>
</g>
<path d="M118.439 154.44C118.439 154.44 120.155 156.314 120.468 157.718C120.78 159.122 119.689 164.591 122.342 165.994C124.995 167.398 127.961 164.745 129.523 161.621C131.085 158.497 130.306 156.64 130.306 156.64C130.306 156.64 126.557 152.891 124.841 150.084C123.763 148.279 122.923 146.341 122.342 144.32C122.342 144.32 121.405 149.472 120.142 151.36C119.47 152.325 118.899 153.357 118.439 154.44Z" stroke="#263238" stroke-width="1.05542" stroke-linecap="round" stroke-linejoin="round"/>
<path d="M107.893 135.7C107.893 135.7 114.933 141.165 118.351 142.415C121.77 143.664 125.831 143.04 125.831 143.04C125.915 143.367 125.916 143.709 125.834 144.036C125.751 144.364 125.589 144.665 125.361 144.914C124.844 145.445 124.375 146.019 123.957 146.63C123.957 146.63 124.111 151.312 122.553 153.67C120.996 156.028 118.959 157.26 116.151 156.165C113.344 155.069 110.999 153.67 109.591 151.325C108.183 148.98 108.346 146.643 107.721 145.081L105.847 140.4C105.847 140.4 106.643 136.95 107.893 135.7Z" fill="white" stroke="#263238" stroke-width="1.05542" stroke-linecap="round" stroke-linejoin="round"/>
<path d="M111.175 143.752C111.175 143.752 111.544 148.782 112.09 148.966C112.636 149.151 114.193 148.601 114.193 148.601" stroke="#263238" stroke-width="1.05542" stroke-linecap="round" stroke-linejoin="round"/>
<path d="M113.463 150.52C113.463 150.52 115.663 150.704 116.481 149.054" stroke="#263238" stroke-width="1.05542" stroke-linecap="round" stroke-linejoin="round"/>
<path d="M110.462 144.76C110.647 145.336 110.541 145.886 110.229 145.988C109.917 146.089 109.516 145.697 109.349 145.108C109.182 144.518 109.265 143.981 109.578 143.884C109.89 143.788 110.277 144.184 110.462 144.76Z" fill="#263238"/>
<path d="M114.841 143.295C115.025 143.876 114.92 144.421 114.607 144.522C114.295 144.624 113.89 144.236 113.705 143.642C113.521 143.048 113.626 142.516 113.939 142.415C114.251 142.314 114.669 142.718 114.841 143.295Z" fill="#263238"/>
<path d="M108.068 143.11C108.068 143.11 107.976 142.014 109.894 142.199" stroke="#263238" stroke-width="1.05542" stroke-linecap="round" stroke-linejoin="round"/>
<path d="M111.817 141.649C112.073 141.204 112.486 140.872 112.976 140.72C113.466 140.567 113.995 140.605 114.457 140.826" stroke="#263238" stroke-width="1.05542" stroke-linecap="round" stroke-linejoin="round"/>
<path d="M111.153 143.766C111.901 145.561 111.39 147.479 110.017 148.056C108.645 148.632 106.937 147.638 106.172 145.856C105.406 144.074 105.93 142.142 107.307 141.566C108.684 140.989 110.405 141.97 111.153 143.766Z" stroke="#263238" stroke-width="1.05542" stroke-linejoin="round"/>
<path d="M117.19 141.68C117.938 143.475 117.427 145.394 116.054 145.97C114.682 146.546 112.974 145.552 112.209 143.77C111.443 141.988 111.967 140.056 113.344 139.48C114.721 138.904 116.442 139.867 117.19 141.68Z" stroke="#263238" stroke-width="1.05542" stroke-linejoin="round"/>
<path d="M110.902 143.11L111.998 142.564" stroke="#263238" stroke-width="1.05542" stroke-linejoin="round"/>
<path d="M140.052 195.694C141.698 186.349 146.212 160.173 145.143 159.645C143.88 159.007 130.306 156.64 130.306 156.64C130.306 156.64 128.771 167.697 126.76 177.848C125.44 184.589 124.01 191.686 123.209 195.699L140.052 195.694Z" fill="#0F172A" stroke="#263238" stroke-width="1.05542" stroke-linejoin="round"/>
<path d="M110.85 161.568C110.85 161.568 108.328 163.689 108.17 165.255C108.012 166.822 105.354 185.605 105.354 185.605C105.354 185.605 104.729 184.826 103.946 185.139C103.431 185.376 102.996 185.756 102.692 186.234C102.692 186.234 102.41 185.209 101.596 185.922C100.782 186.635 100.188 189.363 100.188 189.363C100.188 189.363 101.438 193.437 102.388 194.062C103.339 194.687 104.738 193.75 104.738 193.75C104.738 193.75 104.58 194.374 106.3 194.374C108.02 194.374 108.337 191.712 108.962 190.617C109.587 189.521 111.47 177.778 112.407 171.358C113.344 164.938 110.85 161.568 110.85 161.568Z" fill="#0F172A" stroke="#263238" stroke-width="1.05542" stroke-linecap="round" stroke-linejoin="round"/>
<path d="M106.01 195.694H113.93C114.713 192.614 115.958 187.59 117.239 182.235C119.346 173.457 120.459 157.727 120.459 157.727L110.841 161.568C111.158 166.869 111.096 172.186 110.656 177.478C110.159 183.48 107.572 191.36 106.01 195.694Z" fill="#0F172A" stroke="#263238" stroke-width="1.05542" stroke-linejoin="round"/>
<path d="M138.389 161.964L132.911 184.668L130.561 184.043L129.466 184.98C129.466 184.98 128.683 183.885 127.899 185.139C127.476 185.841 126.947 186.474 126.333 187.018L127.429 193.437C127.429 193.437 132.079 195.342 132.753 195.158C133.223 195.038 133.63 194.745 133.892 194.336C134.153 193.927 134.249 193.435 134.161 192.958C134.738 193.291 135.377 193.503 136.039 193.582C136.449 193.582 137.549 192.812 138.499 192.073C139.542 191.279 140.311 190.179 140.699 188.927C142.349 183.603 147.057 168.397 147.805 166.342C149.684 161.172 144.831 159.302 144.206 159.302" fill="#0F172A"/>
<path d="M138.389 161.964L132.911 184.668L130.561 184.043L129.466 184.98C129.466 184.98 128.683 183.885 127.899 185.139C127.476 185.841 126.947 186.474 126.333 187.018L127.429 193.437C127.429 193.437 132.079 195.342 132.753 195.158C133.223 195.038 133.63 194.745 133.892 194.336C134.153 193.927 134.249 193.435 134.161 192.958C134.738 193.291 135.377 193.503 136.039 193.582C136.449 193.582 137.549 192.812 138.499 192.073C139.542 191.279 140.311 190.179 140.699 188.927C142.349 183.603 147.057 168.397 147.805 166.342C149.684 161.172 144.831 159.302 144.206 159.302" stroke="#263238" stroke-width="1.05542" stroke-linecap="round" stroke-linejoin="round"/>
<path d="M75.1785 188.76C75.1785 188.76 71.7113 190.388 72.0149 190.696C72.3185 191.004 74.6549 189.882 75.1785 189.776C75.7021 189.671 76.3005 188.566 75.1785 188.76Z" fill="white" stroke="#263238" stroke-width="1.05542" stroke-linecap="round" stroke-linejoin="round"/>
<path d="M76.5028 187.651C76.5028 187.651 75.3808 187.444 75.1828 187.955C74.9848 188.465 74.0608 191.22 74.162 191.831C74.2632 192.443 75.1828 191.22 75.592 190.608C76.0012 189.996 76.5028 187.651 76.5028 187.651Z" fill="white" stroke="#263238" stroke-width="1.05542" stroke-linecap="round" stroke-linejoin="round"/>
<path d="M78.6457 187.651C78.6457 187.651 76.8109 187.141 76.5029 187.651C76.1949 188.162 74.5669 191.73 74.5669 191.73C74.5669 191.73 74.3645 192.139 75.2797 191.73C76.1949 191.321 78.6457 187.651 78.6457 187.651Z" fill="white" stroke="#263238" stroke-width="1.05542" stroke-linecap="round" stroke-linejoin="round"/>
<path d="M100.576 187.651L88.9463 188.76C88.9463 188.76 80.8899 187.128 79.9703 187.026C79.0507 186.925 78.1355 187.638 77.7307 188.25C77.3259 188.861 74.7695 192.126 74.7695 192.126L75.3811 192.328L78.9539 189.473C78.9539 189.473 80.8899 189.372 81.5015 189.372C82.1131 189.372 79.7679 190.692 79.0551 190.797C78.3423 190.903 77.5239 191.004 77.6251 191.409C77.7263 191.814 79.5655 191.919 79.9703 191.919C80.3751 191.919 83.2351 190.898 83.2351 190.898C83.7807 190.905 84.3256 190.941 84.8675 191.004C85.7871 191.105 87.4195 190.388 87.4195 190.388C87.4195 190.388 101.9 193.86 102.921 193.754C103.942 193.648 104.016 188.32 100.576 187.651Z" fill="white" stroke="#263238" stroke-width="1.05542" stroke-linecap="round" stroke-linejoin="round"/>
<path d="M97.0074 188.056C97.0074 188.056 94.9658 189.178 94.0462 189.279C93.1266 189.38 93.2322 190.199 94.0462 190.507C94.8602 190.815 97.7202 189.385 98.3318 189.385C98.9434 189.385 103.735 189.79 104.756 189.895C105.777 190.001 106.388 188.976 103.841 188.162C101.293 187.348 97.0074 188.056 97.0074 188.056Z" fill="white" stroke="#263238" stroke-width="1.05542" stroke-linecap="round" stroke-linejoin="round"/>
<path d="M99.2685 186.626C99.2685 186.626 97.3765 186.186 97.1345 186.974C96.8925 187.761 94.6793 190.89 94.6265 191.189C94.5737 191.488 95.3613 191.734 96.2589 190.749C97.1565 189.763 99.2685 186.626 99.2685 186.626Z" fill="white" stroke="#263238" stroke-width="1.05542" stroke-linecap="round" stroke-linejoin="round"/>
<path d="M100.677 186.221C100.677 186.221 99.0446 185.812 98.6354 186.221C98.2262 186.63 95.375 191.422 95.375 191.831C95.375 192.24 96.497 192.034 96.497 192.034L99.7574 187.546L100.778 186.63L100.677 186.221Z" fill="white" stroke="#263238" stroke-width="1.05542" stroke-linecap="round" stroke-linejoin="round"/>
<path d="M130.763 193.565C131.418 193.485 132.023 193.177 132.472 192.693C132.921 192.21 133.184 191.584 133.214 190.925C133.417 188.478 130.763 186.133 128.929 186.032C127.094 185.931 118.527 187.867 115.06 187.968C111.593 188.069 108.53 188.069 107.817 187.766C107.105 187.462 101.085 186.234 100.676 186.234C100.267 186.234 96.0869 192.047 96.0869 192.047C96.0869 192.047 96.3949 192.764 97.2089 192.047C98.0229 191.33 100.676 188.888 100.676 188.888H103.633C103.633 188.888 100.879 190.52 100.474 190.824C100.069 191.127 98.4321 192.865 98.8413 192.966C99.2505 193.068 101.389 191.233 101.389 191.233L104.469 190.414C104.469 190.414 106.713 191.844 108.75 191.946C109.963 192.01 111.177 191.836 112.323 191.435C112.323 191.435 124.137 193.666 130.763 193.565Z" fill="white" stroke="#263238" stroke-width="1.05542" stroke-linecap="round" stroke-linejoin="round"/>
<path d="M196.847 195.637H19.9189" stroke="#263238" stroke-width="1.05542" stroke-linejoin="round"/>
<path d="M113.498 193.626H58.7002V195.637H113.498V193.626Z" fill="white" stroke="#263238" stroke-width="1.05542" stroke-linejoin="round"/>
<path d="M113.498 193.626H87.7539V195.637H113.498V193.626Z" fill="#263238" stroke="#263238" stroke-width="1.05542" stroke-linejoin="round"/>
<path d="M89.0299 193.626L78.9011 168.199H47.3223L59.9767 193.626H89.0299Z" fill="#263238" stroke="#263238" stroke-width="1.05542" stroke-linejoin="round"/>
<path d="M87.7535 193.626L77.6247 168.199H46.0459L58.7003 193.626H87.7535Z" fill="white" stroke="#263238" stroke-width="1.05542" stroke-linejoin="round"/>
</svg>
