<svg width="96" height="96" viewBox="0 0 96 96" fill="none" xmlns="http://www.w3.org/2000/svg">
<path d="M48.0952 0H47.8766C21.435 0 0 21.4414 0 47.8907V48.1093C0 74.5586 21.435 96 47.8766 96H48.0952C74.5367 96 95.9717 74.5586 95.9717 48.1093V47.8907C95.9717 21.4414 74.5367 0 48.0952 0Z" fill="#00B0F2"/>
<path d="M18.1768 46.3639C18.3113 46.2966 18.4459 46.2327 18.577 46.1721C20.8567 45.116 23.1666 44.1272 25.4732 43.1384C25.5976 43.1384 25.806 42.9938 25.9237 42.9467C26.1019 42.8693 26.2801 42.7953 26.4583 42.718L27.4839 42.2774C28.1698 41.9848 28.8523 41.6922 29.5382 41.3995C30.9067 40.8143 32.2752 40.2291 33.6437 39.6405C36.3806 38.4701 39.121 37.2963 41.8579 36.1258C44.5949 34.9554 47.3352 33.7816 50.0722 32.6111C52.8091 31.4407 55.5494 30.2669 58.2864 29.0964C61.0233 27.926 63.7637 26.7522 66.5007 25.5817C67.1093 25.3194 67.7683 24.9292 68.4206 24.8149C68.9686 24.7174 69.5032 24.529 70.0546 24.4247C71.1003 24.2263 72.2536 24.1456 73.2556 24.5795C73.6019 24.7308 73.9213 24.9427 74.187 25.2084C75.4579 26.4663 75.2797 28.5314 75.0107 30.3005C73.1379 42.6305 71.2651 54.9639 69.3889 67.294C69.1333 68.9857 68.7836 70.8423 67.4488 71.9118C66.319 72.8166 64.7118 72.9175 63.3164 72.534C61.9211 72.1473 60.6905 71.3367 59.4834 70.5396C54.4768 67.2233 49.467 63.9071 44.4604 60.5908C43.2701 59.8038 41.9454 58.7746 41.9588 57.3452C41.9656 56.4842 42.48 55.7173 43.0045 55.0346C47.3554 49.3572 53.6329 45.4557 58.3032 40.0408C58.9622 39.2773 59.48 37.8983 58.5756 37.4577C58.0376 37.1954 57.4189 37.5519 56.928 37.8916C50.7547 42.1798 44.5848 46.4715 38.4115 50.7597C36.3975 52.1589 34.2859 53.5984 31.8583 53.9415C29.6862 54.2509 27.5007 53.6455 25.3992 53.0266C23.6374 52.5087 21.8788 51.9773 20.127 51.4291C19.1956 51.1398 18.234 50.827 17.5144 50.1712C16.7949 49.5153 16.3814 48.4121 16.8151 47.5377C17.0875 46.9894 17.6154 46.643 18.1702 46.3605L18.1768 46.3639Z" fill="#FEFFFC"/>
</svg>
