<svg width="96" height="96" viewBox="0 0 96 96" fill="none" xmlns="http://www.w3.org/2000/svg">
<path d="M48.0952 0H47.8766C21.4351 0 0 21.4414 0 47.8907V48.1093C0 74.5586 21.4351 96 47.8766 96H48.0952C74.5367 96 95.9717 74.5586 95.9717 48.1093V47.8907C95.9717 21.4414 74.5367 0 48.0952 0Z" fill="black"/>
<path d="M72.3176 38.1267V47.1909C70.7339 47.0362 68.6761 46.6763 66.3998 45.8422C63.4275 44.7525 61.2151 43.2625 59.7659 42.1089V60.429L59.7289 60.3719C59.7524 60.7351 59.7659 61.1051 59.7659 61.4784C59.7659 70.5763 52.3653 77.9823 43.2668 77.9823C34.1683 77.9823 26.7677 70.5763 26.7677 61.4784C26.7677 52.3806 34.1683 44.9711 43.2668 44.9711C44.1578 44.9711 45.032 45.0417 45.8861 45.1796V54.1127C45.0657 53.8201 44.1847 53.662 43.2668 53.662C38.9596 53.662 35.4527 57.1666 35.4527 61.4784C35.4527 65.7902 38.9596 69.2948 43.2668 69.2948C47.574 69.2948 51.0809 65.7868 51.0809 61.4784C51.0809 61.317 51.0776 61.1555 51.0675 60.9941V25.3931H60.1223C60.1559 26.1599 60.1862 26.9335 60.2198 27.7003C60.2803 29.2105 60.8183 30.6601 61.7564 31.8473C62.8559 33.2431 64.4799 34.8643 66.7596 36.1591C68.8947 37.3699 70.8986 37.8879 72.3176 38.1334V38.1267Z" fill="#FF004F"/>
<path d="M69.204 30.7677V39.8319C67.6203 39.6772 65.5626 39.3173 63.2863 38.4832C60.314 37.3935 58.1015 35.9035 56.6523 34.7499V53.0701L56.6154 53.0129C56.6389 53.3761 56.6523 53.7461 56.6523 54.1194C56.6523 63.2173 49.2518 70.6234 40.1533 70.6234C31.0547 70.6234 23.6542 63.2173 23.6542 54.1194C23.6542 45.0216 31.0547 37.6121 40.1533 37.6121C41.0443 37.6121 41.9185 37.6827 42.7725 37.8206V46.7537C41.9521 46.4611 41.0712 46.303 40.1533 46.303C35.8461 46.303 32.3391 49.8076 32.3391 54.1194C32.3391 58.4312 35.8461 61.9358 40.1533 61.9358C44.4605 61.9358 47.9674 58.4279 47.9674 54.1194C47.9674 53.958 47.964 53.7965 47.9539 53.6351V18.0273H57.0087C57.0424 18.7942 57.0726 19.5678 57.1063 20.3346C57.1668 21.8447 57.7048 23.2943 58.6429 24.4816C59.7424 25.8774 61.3664 27.4985 63.6461 28.7934C65.7812 30.0009 67.7851 30.5222 69.204 30.7677Z" fill="#00F7EF"/>
<path d="M71.1844 34.7297V43.7939C69.6008 43.6392 67.543 43.2794 65.2667 42.4452C62.2944 41.3555 60.0819 39.8656 58.6328 38.7119V57.0321L58.5958 56.9749C58.6193 57.3381 58.6328 57.7081 58.6328 58.0814C58.6328 67.1793 51.2322 74.5854 42.1337 74.5854C33.0351 74.5854 25.6346 67.1793 25.6346 58.0814C25.6346 48.9836 33.0351 41.5741 42.1337 41.5741C43.0247 41.5741 43.8989 41.6448 44.753 41.7827V50.7157C43.9326 50.4231 43.0516 50.265 42.1337 50.265C37.8265 50.265 34.3196 53.7696 34.3196 58.0814C34.3196 62.3933 37.8265 65.8979 42.1337 65.8979C46.4409 65.8979 49.9478 62.3899 49.9478 58.0814C49.9478 57.92 49.9444 57.7586 49.9343 57.5971V21.9961H58.9892C59.0228 22.7629 59.0531 23.5365 59.0867 24.3033C59.1472 25.8135 59.6852 27.2631 60.6233 28.4504C61.7228 29.8461 63.3468 31.4673 65.6265 32.7622C67.7616 33.9696 69.7655 34.4909 71.1844 34.7365V34.7297Z" fill="white"/>
</svg>
