<svg width="46" height="46" viewBox="0 0 46 46" fill="none" xmlns="http://www.w3.org/2000/svg">
<rect x="1" y="1" width="44" height="44" rx="6" stroke="#0F172A"/>
<path fill-rule="evenodd" clip-rule="evenodd" d="M23.6584 9.4544C23.2339 9.29523 22.7661 9.29523 22.3416 9.4544L13.3416 12.8294C12.6097 13.1039 12.125 13.8033 12.125 14.5848L12.125 23.006C12.125 25.1907 13.6992 27.5758 15.9371 29.7971C18.1229 31.9666 20.7071 33.751 22.2485 34.7326C22.7367 35.0436 23.3311 35.0552 23.8232 34.7677C25.368 33.8653 27.9305 32.2137 30.0927 30.0931C32.2869 27.9411 33.875 25.4965 33.875 23.006V14.5848C33.875 13.8033 33.3903 13.1039 32.6584 12.8294L23.6584 9.4544ZM21.5516 7.34766C22.4855 6.99747 23.5146 6.99747 24.4484 7.34766L33.4484 10.7227C35.0583 11.3264 36.125 12.8652 36.125 14.5848V23.006C36.125 26.4247 33.9885 29.4237 31.6681 31.6995C29.3157 34.0067 26.5734 35.767 24.9581 36.7105C23.7304 37.4277 22.2315 37.3894 21.0398 36.6304C19.4412 35.6123 16.7034 33.7278 14.3521 31.394C12.0529 29.1119 9.87502 26.1592 9.87501 23.006L9.875 14.5848C9.875 12.8652 10.9417 11.3264 12.5516 10.7227L21.5516 7.34766ZM22.8527 18.8097L20.3357 21.2077L22.5744 22.0147C23.3147 22.2816 23.6986 23.0981 23.4317 23.8385L23.1148 24.7175L25.6318 22.3196L23.3931 21.5126C22.6528 21.2457 22.2689 20.4292 22.5358 19.6888L22.8527 18.8097ZM23.831 14.7701C24.9197 13.7329 26.6644 14.8705 26.1545 16.2851L24.9323 19.6757L27.6506 20.6556C28.6472 21.0148 28.9173 22.2972 28.1503 23.0279L22.1365 28.7572C21.0478 29.7944 19.3031 28.6568 19.813 27.2422L21.0352 23.8516L18.3169 22.8717C17.3203 22.5124 17.0502 21.2301 17.8172 20.4994L23.831 14.7701Z" fill="#FF4400"/>
</svg>
