<svg width="96" height="96" viewBox="0 0 96 96" fill="none" xmlns="http://www.w3.org/2000/svg">
<path d="M95.9683 48.0017C95.9683 72.2447 78.0033 92.2869 54.6652 95.5392C52.483 95.8419 50.2504 96 47.9842 96C45.3683 96 42.7994 95.7915 40.2978 95.3879C17.4506 91.7084 0 71.8915 0 48.0017C0 21.4918 21.4854 0 47.9875 0C74.4896 0 95.9751 21.4918 95.9751 48.0017H95.9683Z" fill="#1C1C1B"/>
<path d="M19.4614 21.1689L41.5924 50.7664L19.3235 74.8311H24.3368L43.8351 53.7631L59.5877 74.8311H76.6449L53.2698 43.5688L73.9988 21.1689H68.9855L51.0305 40.5721L36.5219 21.1689H19.4647H19.4614ZM26.8316 24.8619H34.6659L69.2679 71.1382H61.4336L26.8316 24.8619Z" fill="white"/>
</svg>
