<svg width="96" height="96" viewBox="0 0 96 96" fill="none" xmlns="http://www.w3.org/2000/svg">
<path d="M48.0952 0H47.8766C21.4351 0 0 21.4414 0 47.8907V48.1093C0 74.5586 21.4351 96 47.8766 96H48.0952C74.5367 96 95.9717 74.5586 95.9717 48.1093V47.8907C95.9717 21.4414 74.5367 0 48.0952 0Z" fill="#00E510"/>
<path d="M57.3382 62.04C45.0556 62.04 35.0626 52.0408 35.0593 39.7545C35.0626 36.64 37.5979 34.1074 40.7047 34.1074C41.0241 34.1074 41.3401 34.1343 41.6427 34.1881C42.3085 34.2991 42.9406 34.5245 43.5223 34.8642C43.6064 34.9146 43.6635 34.9953 43.677 35.0895L44.9748 43.2725C44.9917 43.3701 44.9614 43.4643 44.8975 43.5349C44.1813 44.3286 43.2668 44.9004 42.248 45.1863L41.7571 45.3242L41.942 45.7984C43.6165 50.0631 47.0259 53.4702 51.2927 55.1519L51.7668 55.3402L51.9047 54.8492C52.1905 53.8301 52.7621 52.9153 53.5556 52.1989C53.6127 52.145 53.6901 52.1181 53.7674 52.1181C53.7842 52.1181 53.8011 52.1181 53.8212 52.1215L62.0018 53.4198C62.0993 53.4366 62.18 53.4904 62.2305 53.5745C62.5667 54.1563 62.792 54.792 62.9063 55.4579C62.9601 55.7539 62.9836 56.0667 62.9836 56.393C62.9836 59.504 60.4518 62.0367 57.3382 62.04Z" fill="#FDFDFD"/>
<path d="M79.1196 45.3041C78.4572 37.8173 75.0276 30.872 69.4629 25.7496C63.8646 20.597 56.6019 17.7583 49.0063 17.7583C32.3357 17.7583 18.772 31.326 18.772 48.0015C18.772 53.5981 20.3153 59.0501 23.2372 63.7991L16.7209 78.2279L37.5844 76.0047C41.2124 77.4913 45.0522 78.2447 49.0029 78.2447C50.0419 78.2447 51.1078 78.1909 52.177 78.0799C53.1185 77.979 54.07 77.831 55.0048 77.6427C68.9653 74.8208 79.1566 62.4269 79.2373 48.163V48.0015C79.2373 47.0934 79.1969 46.1853 79.1162 45.3041H79.1196ZM38.388 69.6716L26.845 70.9025L30.2915 63.2644L29.6022 62.3395C29.5517 62.2722 29.5013 62.2049 29.4441 62.1276C26.4516 57.994 24.8713 53.1104 24.8713 48.0049C24.8713 34.6927 35.6981 23.8628 49.0063 23.8628C61.4739 23.8628 72.0418 33.5929 73.0606 46.0138C73.1144 46.6797 73.1447 47.349 73.1447 48.0082C73.1447 48.1966 73.1413 48.3816 73.1379 48.58C72.8824 59.716 65.1053 69.1738 54.2247 71.5819C53.3942 71.7669 52.5435 71.9082 51.6962 71.999C50.8152 72.0999 49.9108 72.1503 49.013 72.1503C45.8154 72.1503 42.7086 71.5315 39.7733 70.3072C39.4471 70.1761 39.1277 70.0348 38.8284 69.8902L38.3914 69.6783L38.388 69.6716Z" fill="#FDFDFD"/>
</svg>
