<svg width="96" height="96" viewBox="0 0 96 96" fill="none" xmlns="http://www.w3.org/2000/svg">
<path d="M95.9717 48C95.9717 21.4903 74.4878 0 47.9859 0C21.484 0 0 21.4903 0 48C0 74.5097 21.484 96 47.9859 96C74.4878 96 95.9717 74.5097 95.9717 48Z" fill="#FF0209"/>
<path d="M68.3557 69.2597C66.926 69.4148 65.4626 69.4418 64.0599 69.4384C53.118 69.4283 42.176 69.4182 31.2375 69.4114C27.7948 69.4114 24.0452 69.3001 21.3848 67.1111C18.3871 64.6388 17.7633 60.3518 17.5205 56.4729C17.1834 51.1572 17.1564 45.8246 17.4329 40.5055C17.5846 37.5846 17.851 34.5928 19.1087 31.9484C20.0124 30.0495 21.5196 28.3428 23.4484 27.4456C25.6907 26.4033 28.0376 26.5889 30.4519 26.5855C36.2314 26.5787 42.0108 26.5754 47.7903 26.5686C53.7991 26.5619 59.8112 26.5585 65.82 26.5518C68.6592 26.5518 71.7074 26.6091 74.0239 28.2517C77.0148 30.3699 77.8274 34.4005 78.2017 38.0467C78.8929 44.7621 78.9031 51.5485 78.2287 58.2639C77.9488 61.0331 77.4835 63.9608 75.6593 66.0621C73.8519 68.1466 71.1713 68.9493 68.3591 69.2563L68.3557 69.2597Z" fill="white"/>
<path d="M57.7712 48.0002L41.4646 38.583V57.4174L57.7712 48.0002Z" fill="#FF0209"/>
</svg>
